{"glyphs":{"0":{"ha":842,"x_min":61,"x_max":781,"o":"m 422 -16 q 156 120 252 -16 q 61 490 61 256 q 157 858 61 722 q 422 995 253 995 q 686 859 591 995 q 781 490 781 723 q 686 120 781 256 q 422 -16 591 -16 m 246 197 q 277 144 246 197 q 422 90 309 90 q 597 197 535 90 q 659 490 659 304 q 596 780 659 673 q 422 888 534 888 q 247 780 310 888 q 184 490 184 672 q 246 197 184 304 z "},"1":{"ha":616,"x_min":67,"x_max":447,"o":"m 329 0 l 329 849 l 326 849 l 67 663 l 67 791 l 328 979 l 447 979 l 447 0 l 329 0 z "},"2":{"ha":786,"x_min":73,"x_max":725,"o":"m 73 696 q 165 910 73 825 q 396 995 258 995 q 618 917 527 995 q 709 726 709 839 q 664 570 709 645 q 496 367 619 494 l 248 111 l 248 109 l 725 109 l 725 0 l 79 0 l 79 84 l 424 447 q 554 604 522 551 q 587 719 587 658 q 530 839 587 789 q 393 888 473 888 q 249 833 307 888 q 191 696 191 779 l 191 696 l 73 696 l 73 696 z "},"3":{"ha":822,"x_min":62,"x_max":752,"o":"m 279 452 l 279 555 l 396 555 q 534 603 480 555 q 587 726 587 652 q 538 845 587 801 q 397 889 488 889 q 260 844 313 889 q 199 722 208 800 l 82 722 q 179 921 92 847 q 403 995 265 995 q 623 924 535 995 q 710 743 710 852 q 656 589 710 651 q 509 510 602 526 l 509 507 q 686 436 621 500 q 752 269 752 372 q 706 121 752 187 q 581 20 660 56 q 407 -16 503 -16 q 162 60 255 -16 q 62 259 69 136 l 180 259 q 248 136 188 182 q 406 90 309 90 q 565 139 503 90 q 628 265 628 189 q 567 401 628 351 q 401 452 507 452 l 279 452 z "},"4":{"ha":840,"x_min":53,"x_max":801,"o":"m 545 0 l 545 203 l 53 203 l 53 314 q 213 582 116 431 q 482 979 311 732 l 663 979 l 663 311 l 801 311 l 801 203 l 663 203 l 663 0 l 545 0 m 174 313 l 174 311 l 545 311 l 545 877 l 543 877 q 174 313 286 510 z "},"5":{"ha":812,"x_min":80,"x_max":764,"o":"m 416 -16 q 181 63 275 -16 q 80 267 87 142 l 200 267 q 269 140 208 189 q 417 91 329 91 q 579 153 517 91 q 642 315 642 216 q 579 477 642 414 q 419 541 517 541 q 295 511 351 541 q 210 431 239 482 l 95 431 l 149 979 l 709 979 l 709 870 l 249 870 l 219 551 l 222 551 q 313 621 255 595 q 441 646 371 646 q 673 553 582 646 q 764 318 764 460 q 667 77 764 171 q 416 -16 569 -16 z "},"6":{"ha":831,"x_min":62,"x_max":780,"o":"m 433 -17 q 239 40 323 -17 q 110 203 155 98 q 62 473 62 315 q 162 858 62 720 q 441 996 262 996 q 654 926 566 996 q 766 742 743 857 l 642 742 q 568 848 623 808 q 440 888 513 888 q 250 783 317 888 q 180 482 183 677 l 182 482 q 290 597 215 554 q 455 641 364 641 q 687 549 595 641 q 780 317 780 456 q 682 78 780 172 q 433 -17 584 -17 m 274 157 q 306 124 274 157 q 432 92 338 92 q 591 156 526 92 q 656 313 656 220 q 593 472 656 410 q 434 534 531 534 q 273 472 337 534 q 209 317 209 410 q 274 157 209 222 z "},"7":{"ha":760,"x_min":52,"x_max":699,"o":"m 136 0 l 578 867 l 578 870 l 52 870 l 52 979 l 699 979 l 699 865 l 264 0 l 136 0 z "},"8":{"ha":832,"x_min":61,"x_max":771,"o":"m 416 -16 q 161 63 260 -16 q 61 264 61 142 q 119 425 61 356 q 271 516 176 494 l 271 519 q 146 602 192 543 q 100 738 100 661 q 190 922 100 848 q 416 995 279 995 q 642 922 553 995 q 731 737 731 849 q 686 602 731 661 q 560 519 640 544 l 560 516 q 713 425 655 494 q 771 264 771 355 q 671 63 771 142 q 416 -16 572 -16 m 416 90 q 582 142 517 90 q 646 273 646 193 q 582 406 646 354 q 416 457 517 457 q 250 405 315 457 q 185 273 185 353 q 250 142 185 193 q 416 90 315 90 m 416 564 q 556 610 501 564 q 610 726 610 655 q 556 844 610 798 q 416 890 502 890 q 275 844 330 890 q 221 726 221 798 q 275 610 221 655 q 416 564 330 564 z "},"9":{"ha":831,"x_min":52,"x_max":770,"o":"m 391 -16 q 177 53 266 -16 q 66 237 88 122 l 190 237 q 264 131 210 171 q 392 90 319 90 q 582 196 514 90 q 652 498 649 302 l 651 498 l 650 498 q 544 381 618 425 q 376 338 470 338 q 144 430 237 338 q 52 661 52 522 q 150 901 52 806 q 398 996 248 996 q 593 938 509 996 q 722 776 677 881 q 770 506 770 665 q 670 121 770 258 q 391 -16 570 -16 m 397 445 q 559 507 494 445 q 623 662 623 568 q 558 821 623 756 q 399 886 494 886 q 240 822 305 886 q 175 665 175 758 q 238 507 175 570 q 397 445 301 445 z "}," ":{"ha":285,"x_min":0,"x_max":0,"o":""},"!":{"ha":370,"x_min":108,"x_max":262,"o":"m 124 979 l 246 979 l 238 325 l 132 325 l 124 979 m 185 -7 q 130 16 153 -7 q 108 71 108 38 q 130 126 108 104 q 185 148 153 148 q 240 126 218 148 q 262 71 262 104 q 240 16 262 38 q 185 -7 218 -7 z "},"\"":{"ha":547,"x_min":92,"x_max":456,"o":"m 200 633 l 92 633 l 92 979 l 200 979 l 200 633 m 456 633 l 347 633 l 347 979 l 456 979 l 456 633 z "},"#":{"ha":835,"x_min":0,"x_max":835,"o":"m 422 0 l 478 273 l 256 273 l 200 0 l 104 0 l 159 273 l 0 273 l 19 371 l 180 371 l 229 618 l 62 618 l 81 715 l 249 715 l 304 979 l 400 979 l 347 715 l 568 715 l 623 979 l 720 979 l 666 715 l 835 715 l 816 618 l 646 618 l 595 371 l 772 371 l 753 273 l 575 273 l 519 0 l 422 0 m 275 369 l 498 369 l 549 619 l 326 619 l 275 369 z "},"$":{"ha":840,"x_min":71,"x_max":769,"o":"m 467 -93 l 376 -93 l 376 -2 q 155 81 238 8 q 71 268 72 155 l 187 268 q 242 157 193 200 q 376 103 292 113 l 376 456 l 321 471 q 154 564 212 499 q 95 724 95 629 q 170 906 95 835 q 376 990 245 977 l 376 1085 l 467 1085 l 467 991 q 671 907 593 980 q 752 725 749 835 l 637 725 q 588 832 635 788 q 467 886 542 877 l 467 554 l 524 540 q 709 443 649 507 q 769 277 769 379 q 689 83 769 157 q 467 -1 610 10 l 467 -93 m 652 267 q 607 376 652 334 q 467 437 562 417 l 467 101 q 603 149 555 106 q 652 267 652 193 m 212 730 q 376 574 212 608 l 376 886 q 258 838 304 882 q 212 730 212 794 z "},"%":{"ha":1016,"x_min":34,"x_max":983,"o":"m 389 924 q 417 891 389 924 q 445 747 445 858 q 389 570 445 637 q 239 504 332 504 q 90 570 146 504 q 34 747 34 637 q 90 924 34 858 q 239 991 146 991 q 389 924 332 991 m 169 630 q 182 608 169 630 q 239 587 195 587 q 310 630 284 587 q 336 747 336 673 q 310 865 336 822 q 239 908 284 908 q 169 865 195 908 q 142 747 142 822 q 169 630 142 673 m 210 0 l 92 0 l 469 516 l 808 979 l 924 979 l 557 475 l 210 0 m 926 410 q 955 377 926 410 q 983 233 983 344 q 926 56 983 123 q 777 -10 870 -10 q 628 56 684 -10 q 572 233 572 123 q 628 410 572 344 q 777 477 684 477 q 926 410 870 477 m 706 116 q 719 94 706 116 q 777 73 732 73 q 848 116 822 73 q 874 233 874 159 q 848 351 874 308 q 777 394 822 394 q 706 351 732 394 q 680 233 680 308 q 706 116 680 159 z "},"&":{"ha":929,"x_min":56,"x_max":941,"o":"m 787 0 l 696 98 q 553 14 635 43 q 384 -16 471 -16 q 147 61 239 -16 q 56 260 56 138 q 248 532 56 430 q 285 551 283 550 q 191 672 219 621 q 163 778 163 724 q 234 933 163 871 q 410 995 304 995 q 588 933 518 995 q 658 777 658 871 q 609 643 658 702 q 448 526 560 585 l 690 264 q 737 525 737 352 l 737 554 l 850 554 l 850 524 q 769 182 850 309 l 941 0 l 787 0 m 317 460 q 209 370 241 414 q 176 269 176 325 q 237 136 176 186 q 395 85 297 85 q 523 110 460 85 q 625 176 586 135 l 350 478 q 317 460 330 469 m 383 594 q 507 680 471 639 q 544 772 544 720 q 507 864 544 829 q 411 899 470 899 q 316 863 353 899 q 279 771 279 827 q 302 691 279 731 q 383 594 326 651 z "},"'":{"ha":292,"x_min":92,"x_max":200,"o":"m 200 633 l 92 633 l 92 979 l 200 979 l 200 633 z "},"(":{"ha":448,"x_min":129,"x_max":420,"o":"m 321 -208 q 129 385 129 37 q 321 979 129 734 l 420 979 q 298 723 348 895 q 249 385 249 551 q 298 47 249 219 q 420 -208 348 -124 l 321 -208 z "},")":{"ha":448,"x_min":27,"x_max":319,"o":"m 302 590 q 310 543 302 590 q 319 385 319 496 q 302 180 319 275 q 255 13 286 85 q 195 -109 224 -60 q 126 -208 165 -158 l 27 -208 q 80 -128 52 -179 q 135 -2 107 -77 q 181 174 163 72 q 199 385 199 277 q 181 596 199 494 q 135 773 163 699 q 79 898 106 847 q 27 979 52 949 l 126 979 q 195 879 165 928 q 255 758 224 830 q 302 590 286 685 z "},"*":{"ha":670,"x_min":90,"x_max":583,"o":"m 538 599 l 374 703 l 380 508 l 292 508 l 299 703 l 132 598 l 90 680 l 261 766 l 91 854 l 133 932 l 299 830 l 292 1023 l 380 1023 l 374 829 l 539 932 l 583 854 l 410 766 l 583 679 l 538 599 z "},"+":{"ha":840,"x_min":75,"x_max":764,"o":"m 475 331 l 475 20 l 365 20 l 365 331 l 75 331 l 75 441 l 365 441 l 365 744 l 475 744 l 475 441 l 764 441 l 764 331 l 475 331 z "},",":{"ha":353,"x_min":59,"x_max":250,"o":"m 157 -195 l 59 -195 l 125 151 l 250 151 l 157 -195 z "},"-":{"ha":595,"x_min":75,"x_max":520,"o":"m 520 342 l 75 342 l 75 452 l 520 452 l 520 342 z "},".":{"ha":353,"x_min":99,"x_max":254,"o":"m 231 16 q 220 4 231 16 q 176 -7 209 -7 q 121 16 144 -7 q 99 71 99 38 q 121 125 99 103 q 176 148 144 148 q 231 125 209 148 q 254 71 254 103 q 231 16 254 38 z "},"/":{"ha":448,"x_min":0,"x_max":448,"o":"m 101 -208 l 0 -208 l 347 979 l 448 979 l 101 -208 z "},":":{"ha":353,"x_min":99,"x_max":254,"o":"m 231 16 q 220 4 231 16 q 176 -7 209 -7 q 121 16 144 -7 q 99 71 99 38 q 121 125 99 103 q 176 148 144 148 q 231 125 209 148 q 254 71 254 103 q 231 16 254 38 m 231 515 q 220 504 231 515 q 176 492 209 492 q 121 515 144 492 q 99 570 99 537 q 121 625 99 602 q 176 647 144 647 q 231 625 209 647 q 254 570 254 602 q 231 515 254 537 z "},";":{"ha":353,"x_min":59,"x_max":254,"o":"m 231 515 q 220 504 231 515 q 176 492 209 492 q 121 515 144 492 q 99 570 99 537 q 121 625 99 602 q 176 647 144 647 q 231 625 209 647 q 254 570 254 602 q 231 515 254 537 m 157 -195 l 59 -195 l 125 151 l 250 151 l 157 -195 z "},"<":{"ha":840,"x_min":122,"x_max":718,"o":"m 718 665 l 239 393 l 239 387 l 718 131 l 718 5 l 122 338 l 122 434 l 718 791 l 718 665 z "},"=":{"ha":840,"x_min":89,"x_max":751,"o":"m 751 204 l 89 204 l 89 309 l 751 309 l 751 204 m 751 464 l 89 464 l 89 568 l 751 568 l 751 464 z "},">":{"ha":840,"x_min":122,"x_max":718,"o":"m 122 665 l 122 791 l 718 435 l 718 338 l 122 5 l 122 132 l 602 388 l 602 394 l 122 665 z "},"?":{"ha":680,"x_min":38,"x_max":621,"o":"m 38 723 q 120 912 44 839 q 334 986 197 986 q 541 916 460 986 q 621 741 621 846 q 479 507 621 592 q 392 435 416 469 q 369 347 369 401 l 369 302 l 250 302 l 250 365 q 282 480 250 431 q 386 571 315 529 q 470 644 446 608 q 495 734 495 681 q 449 839 495 798 q 329 880 404 880 q 206 838 252 880 q 154 723 159 796 l 38 723 m 310 -7 q 255 16 277 -7 q 233 71 233 38 q 255 126 233 104 q 310 148 277 148 q 365 126 343 148 q 387 71 387 104 q 365 16 387 38 q 310 -7 343 -7 z "},"@":{"ha":1215,"x_min":66,"x_max":1171,"o":"m 603 593 q 497 543 535 593 q 458 404 458 493 q 497 265 458 316 q 602 214 535 214 q 713 266 671 214 q 754 404 754 317 q 713 542 754 491 q 603 593 672 593 m 627 973 q 845 937 744 973 q 1017 836 945 901 q 1130 678 1089 771 q 1171 474 1171 585 q 1102 211 1171 310 q 916 113 1034 113 q 813 144 857 113 q 764 227 770 176 l 758 227 q 691 147 736 175 q 586 119 646 119 q 415 198 480 119 q 350 407 350 277 q 416 609 350 530 q 586 687 481 687 q 686 661 640 687 q 750 591 731 635 l 755 591 l 755 674 l 858 674 l 858 276 q 877 221 858 241 q 935 201 897 201 q 1036 274 997 201 q 1075 475 1075 347 q 1017 691 1075 597 q 856 836 960 785 q 618 888 751 888 q 384 826 488 888 q 221 654 279 765 q 162 404 162 543 q 198 200 162 291 q 299 50 235 109 q 450 -41 363 -9 q 640 -73 537 -73 q 771 -64 708 -73 q 867 -40 834 -55 l 867 -125 q 638 -159 772 -159 q 409 -121 513 -159 q 228 -13 304 -83 q 109 165 152 58 q 66 408 66 273 q 108 638 66 533 q 223 818 149 744 q 400 932 296 891 q 627 973 505 973 z "},"A":{"ha":876,"x_min":17,"x_max":859,"o":"m 731 0 l 633 280 l 243 280 l 145 0 l 17 0 l 378 979 l 498 979 l 859 0 l 731 0 m 436 830 l 279 384 l 597 384 l 440 830 l 436 830 z "},"B":{"ha":840,"x_min":95,"x_max":796,"o":"m 465 0 l 95 0 l 95 979 l 466 979 q 669 911 591 979 q 747 734 747 844 q 697 596 747 658 q 578 521 648 534 l 578 515 q 737 437 677 503 q 796 275 796 372 q 708 73 796 145 q 465 0 621 0 m 217 871 l 217 557 l 400 557 q 566 599 509 557 q 623 720 623 641 q 575 832 623 793 q 438 871 527 871 l 217 871 m 217 108 l 446 108 q 614 152 557 108 q 671 281 671 196 q 435 452 671 452 l 217 452 l 217 108 z "},"C":{"ha":953,"x_min":57,"x_max":904,"o":"m 498 -16 q 176 120 295 -16 q 57 490 57 257 q 177 858 57 720 q 498 995 297 995 q 769 906 658 995 q 904 670 881 817 l 781 670 q 680 824 757 766 q 498 882 602 882 q 269 775 355 882 q 182 490 182 668 q 268 203 182 309 q 498 96 353 96 q 680 146 606 96 q 781 285 754 195 l 904 285 q 765 62 870 140 q 498 -16 660 -16 z "},"D":{"ha":942,"x_min":95,"x_max":886,"o":"m 95 979 l 424 979 q 764 849 642 979 q 886 490 886 720 q 764 129 886 258 q 424 0 642 0 l 95 0 l 95 979 m 217 869 l 217 110 l 416 110 q 671 208 582 110 q 761 488 761 306 q 672 770 761 672 q 416 869 583 869 l 217 869 z "},"E":{"ha":767,"x_min":95,"x_max":701,"o":"m 701 110 l 701 0 l 95 0 l 95 979 l 701 979 l 701 869 l 217 869 l 217 555 l 676 555 l 676 446 l 217 446 l 217 110 l 701 110 z "},"F":{"ha":733,"x_min":95,"x_max":689,"o":"m 217 0 l 95 0 l 95 979 l 689 979 l 689 869 l 217 869 l 217 532 l 650 532 l 650 424 l 217 424 l 217 0 z "},"G":{"ha":981,"x_min":57,"x_max":920,"o":"m 920 405 q 811 95 920 206 q 505 -16 701 -16 q 179 122 300 -16 q 57 494 57 261 q 178 859 57 724 q 505 995 300 995 q 775 908 664 995 q 914 675 887 821 l 786 675 q 682 828 755 774 q 505 882 608 882 q 268 780 354 882 q 182 495 182 677 q 269 203 182 311 q 505 96 356 96 q 717 173 635 96 q 798 373 798 250 l 798 391 l 522 391 l 522 498 l 920 498 l 920 405 z "},"H":{"ha":971,"x_min":95,"x_max":876,"o":"m 876 0 l 754 0 l 754 446 l 217 446 l 217 0 l 95 0 l 95 979 l 217 979 l 217 555 l 754 555 l 754 979 l 876 979 l 876 0 z "},"I":{"ha":312,"x_min":95,"x_max":217,"o":"m 217 0 l 95 0 l 95 979 l 217 979 l 217 0 z "},"J":{"ha":688,"x_min":28,"x_max":593,"o":"m 28 230 l 150 230 q 195 129 152 168 q 304 90 238 90 q 428 137 385 90 q 471 273 471 184 l 471 979 l 593 979 l 593 273 q 517 55 593 134 q 305 -23 441 -23 q 106 48 183 -23 q 28 230 28 119 z "},"K":{"ha":854,"x_min":95,"x_max":846,"o":"m 217 0 l 95 0 l 95 979 l 217 979 l 217 501 l 224 501 l 656 979 l 810 979 l 408 545 l 846 0 l 690 0 l 323 458 l 217 342 l 217 0 z "},"L":{"ha":728,"x_min":95,"x_max":689,"o":"m 689 110 l 689 0 l 95 0 l 95 979 l 217 979 l 217 110 l 689 110 z "},"M":{"ha":1154,"x_min":95,"x_max":1059,"o":"m 1059 0 l 945 0 l 945 754 l 941 754 l 629 7 l 526 7 l 214 754 l 209 754 l 209 0 l 95 0 l 95 979 l 237 979 l 574 162 l 580 162 l 918 979 l 1059 979 l 1059 0 z "},"N":{"ha":971,"x_min":95,"x_max":876,"o":"m 216 0 l 95 0 l 95 979 l 214 979 l 749 210 l 755 210 l 755 979 l 876 979 l 876 0 l 758 0 l 222 766 l 216 766 l 216 0 z "},"O":{"ha":1016,"x_min":57,"x_max":959,"o":"m 178 859 q 239 927 178 859 q 508 995 300 995 q 838 859 716 995 q 959 489 959 722 q 838 120 959 256 q 508 -16 716 -16 q 178 120 300 -16 q 57 489 57 256 q 178 859 57 722 m 746 776 q 702 829 746 776 q 508 882 658 882 q 270 776 358 882 q 182 489 182 670 q 270 202 182 309 q 508 96 358 96 q 746 202 658 96 q 833 489 833 309 q 746 776 833 670 z "},"P":{"ha":802,"x_min":95,"x_max":758,"o":"m 95 979 l 444 979 q 670 891 582 979 q 758 665 758 803 q 669 437 758 526 q 443 349 581 349 l 217 349 l 217 0 l 95 0 l 95 979 m 217 870 l 217 458 l 412 458 q 574 512 517 458 q 632 665 632 567 q 575 816 632 762 q 412 870 517 870 l 217 870 z "},"Q":{"ha":1016,"x_min":57,"x_max":959,"o":"m 508 -16 q 178 120 300 -16 q 57 489 57 256 q 178 859 57 722 q 508 995 300 995 q 838 859 716 995 q 959 489 959 722 q 913 240 959 348 q 781 68 867 132 l 911 -111 l 774 -111 l 683 14 q 508 -16 605 -16 m 508 96 q 612 112 563 96 l 490 280 l 627 280 l 710 166 q 802 299 770 216 q 833 489 833 382 q 746 776 833 670 q 508 882 658 882 q 270 776 358 882 q 182 489 182 670 q 270 202 182 309 q 508 96 358 96 z "},"R":{"ha":832,"x_min":95,"x_max":804,"o":"m 217 870 l 217 495 l 451 495 q 596 544 545 495 q 648 683 648 593 q 594 821 648 771 q 446 870 541 870 l 217 870 m 217 387 l 217 0 l 95 0 l 95 979 l 462 979 q 689 899 604 979 q 774 687 774 819 q 722 510 774 585 q 577 406 669 435 l 804 0 l 661 0 l 451 387 l 217 387 z "},"S":{"ha":825,"x_min":48,"x_max":777,"o":"m 48 269 l 171 269 q 249 142 180 190 q 422 94 317 94 q 586 141 522 94 q 651 260 651 188 q 606 361 651 321 q 462 427 561 401 l 336 460 q 138 556 201 494 q 76 718 76 618 q 173 918 76 840 q 422 995 269 995 q 663 917 568 995 q 763 715 759 838 l 641 715 q 573 840 633 794 q 418 885 513 885 q 263 840 323 885 q 203 724 203 795 q 247 632 203 668 q 390 571 290 597 l 492 544 q 711 443 644 506 q 777 275 777 380 q 679 62 777 140 q 411 -16 580 -16 q 156 62 255 -16 q 48 269 57 140 z "},"T":{"ha":807,"x_min":34,"x_max":773,"o":"m 465 0 l 342 0 l 342 869 l 34 869 l 34 979 l 773 979 l 773 869 l 465 869 l 465 0 z "},"U":{"ha":967,"x_min":95,"x_max":872,"o":"m 217 979 l 217 351 q 288 167 217 238 q 484 96 359 96 q 679 167 608 96 q 750 351 750 238 l 750 979 l 872 979 l 872 343 q 767 84 872 184 q 484 -16 663 -16 q 200 84 304 -16 q 95 343 95 184 l 95 979 l 217 979 z "},"V":{"ha":876,"x_min":17,"x_max":859,"o":"m 498 0 l 378 0 l 17 979 l 145 979 l 436 149 l 440 149 l 731 979 l 859 979 l 498 0 z "},"W":{"ha":1283,"x_min":31,"x_max":1253,"o":"m 638 777 l 412 0 l 297 0 l 31 979 l 158 979 l 354 180 l 359 180 l 580 979 l 703 979 l 924 180 l 929 180 l 1125 979 l 1253 979 l 986 0 l 871 0 l 645 777 l 638 777 z "},"X":{"ha":882,"x_min":31,"x_max":851,"o":"m 31 0 l 363 490 l 363 495 l 35 979 l 182 979 l 443 585 l 448 585 l 712 979 l 851 979 l 513 489 l 513 485 l 844 0 l 697 0 l 437 390 l 433 390 l 169 0 l 31 0 z "},"Y":{"ha":850,"x_min":17,"x_max":833,"o":"m 486 0 l 364 0 l 364 421 l 17 979 l 156 979 l 423 539 l 427 539 l 694 979 l 833 979 l 486 421 l 486 0 z "},"Z":{"ha":857,"x_min":66,"x_max":790,"o":"m 66 0 l 66 87 l 625 864 l 625 869 l 85 869 l 85 979 l 779 979 l 779 892 l 223 115 l 223 110 l 790 110 l 790 0 l 66 0 z "},"[":{"ha":448,"x_min":140,"x_max":434,"o":"m 140 979 l 434 979 l 434 886 l 254 886 l 254 -117 l 434 -117 l 434 -208 l 140 -208 l 140 979 z "},"\\":{"ha":448,"x_min":0,"x_max":448,"o":"m 347 -208 l 0 979 l 101 979 l 448 -208 l 347 -208 z "},"]":{"ha":448,"x_min":14,"x_max":308,"o":"m 308 979 l 308 -208 l 14 -208 l 14 -117 l 194 -117 l 194 886 l 14 886 l 14 979 l 308 979 z "},"^":{"ha":608,"x_min":37,"x_max":570,"o":"m 298 876 l 151 553 l 37 553 l 239 979 l 368 979 l 570 553 l 457 553 l 309 876 l 298 876 z "},"_":{"ha":562,"x_min":-37,"x_max":598,"o":"m 598 -159 l -37 -159 l -37 -73 l 598 -73 l 598 -159 z "},"`":{"ha":682,"x_min":208,"x_max":477,"o":"m 477 873 l 374 873 l 208 1077 l 335 1077 l 477 873 z "},"a":{"ha":697,"x_min":48,"x_max":624,"o":"m 309 88 q 449 140 393 88 q 506 268 506 192 l 506 326 l 317 314 q 207 279 246 309 q 168 199 168 250 q 207 119 168 149 q 309 88 245 88 m 283 -12 q 113 46 178 -12 q 48 199 48 104 q 115 345 48 290 q 304 406 182 399 l 506 417 l 506 476 q 465 577 506 541 q 351 614 425 614 q 242 584 284 614 q 189 502 200 555 l 75 502 q 156 657 81 596 q 354 718 232 718 q 551 655 478 718 q 624 488 624 593 l 624 0 l 512 0 l 512 121 l 509 121 q 416 24 477 61 q 283 -12 354 -12 z "},"b":{"ha":770,"x_min":83,"x_max":727,"o":"m 427 -12 q 292 22 351 -12 q 198 119 233 57 l 195 119 l 195 0 l 83 0 l 83 979 l 201 979 l 201 587 l 203 587 q 296 683 237 648 q 429 718 355 718 q 645 618 563 718 q 727 353 727 518 q 645 87 727 186 q 427 -12 563 -12 m 404 614 q 257 542 314 614 q 200 353 200 469 q 257 163 200 235 q 404 92 314 92 q 552 162 498 92 q 606 353 606 232 q 552 543 606 473 q 404 614 498 614 z "},"c":{"ha":696,"x_min":42,"x_max":664,"o":"m 663 474 l 547 474 q 487 574 534 535 q 367 614 441 614 q 218 543 275 614 q 162 353 162 472 q 219 161 162 231 q 368 92 275 92 q 486 127 439 92 q 548 227 532 163 l 664 227 q 569 55 650 121 q 368 -12 487 -12 q 131 86 220 -12 q 42 353 42 184 q 131 618 42 519 q 366 718 220 718 q 571 646 492 718 q 663 474 650 575 z "},"d":{"ha":769,"x_min":42,"x_max":686,"o":"m 344 -12 q 125 87 208 -12 q 42 353 42 187 q 125 617 42 517 q 341 718 208 718 q 475 684 416 718 q 566 591 534 650 l 568 591 l 568 979 l 686 979 l 686 0 l 574 0 l 574 119 l 572 119 q 478 23 537 58 q 344 -12 419 -12 m 366 614 q 218 543 273 614 q 163 353 163 472 q 218 162 163 233 q 366 92 273 92 q 513 163 458 92 q 569 353 569 235 q 513 542 569 471 q 366 614 457 614 z "},"e":{"ha":711,"x_min":42,"x_max":669,"o":"m 359 615 q 223 558 277 615 q 164 413 170 502 l 547 413 q 494 559 545 503 q 359 615 442 615 m 545 202 l 661 202 q 563 48 645 109 q 367 -12 481 -12 q 129 85 216 -12 q 42 350 42 183 q 129 616 42 515 q 361 718 216 718 q 587 622 504 718 q 669 366 669 526 l 669 321 l 163 321 l 163 314 q 219 151 163 212 q 370 90 275 90 q 483 121 436 90 q 545 202 530 151 z "},"f":{"ha":422,"x_min":16,"x_max":380,"o":"m 115 0 l 115 608 l 16 608 l 16 705 l 115 705 l 115 784 q 162 935 115 886 q 308 984 210 984 q 380 979 346 984 l 380 883 q 326 887 351 887 q 232 783 232 887 l 232 705 l 376 705 l 376 608 l 233 608 l 233 0 l 115 0 z "},"g":{"ha":763,"x_min":42,"x_max":686,"o":"m 363 98 q 512 169 456 98 q 568 355 568 239 q 512 543 568 472 q 363 614 456 614 q 217 544 272 614 q 163 355 163 473 q 217 168 163 237 q 363 98 272 98 m 368 -266 q 168 -207 252 -266 q 70 -58 85 -149 l 191 -58 q 258 -136 209 -107 q 372 -165 307 -165 q 516 -117 463 -165 q 568 10 568 -69 l 568 121 l 566 121 q 473 29 532 63 q 340 -5 413 -5 q 123 93 205 -5 q 42 355 42 191 q 124 619 42 521 q 342 718 205 718 q 477 683 417 718 q 572 587 536 648 l 574 587 l 574 705 l 686 705 l 686 14 q 600 -189 686 -113 q 368 -266 513 -266 z "},"h":{"ha":749,"x_min":83,"x_max":675,"o":"m 83 0 l 83 979 l 201 979 l 201 593 l 203 593 q 291 685 233 652 q 427 718 348 718 q 609 646 543 718 q 675 456 675 575 l 675 0 l 557 0 l 557 434 q 515 566 557 519 q 391 613 473 613 q 252 558 303 613 q 201 411 201 503 l 201 0 l 83 0 z "},"i":{"ha":283,"x_min":68,"x_max":216,"o":"m 83 0 l 83 705 l 201 705 l 201 0 l 83 0 m 142 824 q 90 846 112 824 q 68 897 68 867 q 90 949 68 928 q 142 970 112 970 q 194 949 172 970 q 216 897 216 928 q 194 846 216 867 q 142 824 172 824 z "},"j":{"ha":283,"x_min":-40,"x_max":216,"o":"m 201 705 l 201 -35 q 148 -192 201 -142 q -18 -243 95 -243 q -40 -242 -39 -243 l -40 -144 l -22 -144 q 59 -119 36 -144 q 83 -36 83 -95 l 83 705 l 201 705 m 142 824 q 90 846 112 824 q 68 897 68 867 q 90 949 68 928 q 142 970 112 970 q 194 949 172 970 q 216 897 216 928 q 194 846 216 867 q 142 824 172 824 z "},"k":{"ha":674,"x_min":83,"x_max":665,"o":"m 201 392 l 513 705 l 656 705 l 350 401 l 665 0 l 528 0 l 267 328 l 201 266 l 201 0 l 83 0 l 83 979 l 201 979 l 201 392 z "},"l":{"ha":283,"x_min":83,"x_max":201,"o":"m 83 0 l 83 979 l 201 979 l 201 0 l 83 0 z "},"m":{"ha":1116,"x_min":77,"x_max":1042,"o":"m 77 0 l 77 705 l 188 705 l 188 593 l 191 593 q 269 684 216 650 q 391 718 321 718 q 514 683 463 718 q 589 583 566 648 l 591 583 q 679 682 621 646 q 812 718 738 718 q 980 655 917 718 q 1042 487 1042 592 l 1042 0 l 924 0 l 924 460 q 886 573 924 532 q 778 613 848 613 q 663 567 708 613 q 618 448 618 520 l 618 0 l 500 0 l 500 473 q 461 575 500 536 q 356 613 422 613 q 240 564 286 613 q 195 442 195 515 l 195 0 l 77 0 z "},"n":{"ha":732,"x_min":77,"x_max":659,"o":"m 77 0 l 77 705 l 188 705 l 188 593 l 191 593 q 278 685 221 652 q 414 718 335 718 q 594 648 530 718 q 659 458 659 578 l 659 0 l 541 0 l 541 437 q 500 568 541 523 q 378 613 459 613 q 245 559 295 613 q 195 415 195 505 l 195 0 l 77 0 z "},"o":{"ha":737,"x_min":42,"x_max":695,"o":"m 369 -12 q 132 86 221 -12 q 42 353 42 185 q 132 619 42 520 q 369 718 221 718 q 606 619 516 718 q 695 353 695 520 q 606 87 695 186 q 369 -12 516 -12 m 218 161 q 246 126 218 161 q 369 92 274 92 q 519 160 464 92 q 575 353 575 229 q 519 545 575 476 q 369 614 464 614 q 218 545 274 614 q 162 353 162 475 q 218 161 162 230 z "},"p":{"ha":763,"x_min":77,"x_max":721,"o":"m 419 718 q 638 618 555 718 q 721 353 721 518 q 638 88 721 188 q 422 -12 555 -12 q 288 22 347 -12 q 197 115 229 56 l 195 115 l 195 -235 l 77 -235 l 77 705 l 189 705 l 189 586 l 191 586 q 284 682 224 647 q 419 718 344 718 m 396 92 q 545 162 490 92 q 600 353 600 233 q 545 543 600 473 q 396 614 490 614 q 250 542 305 614 q 194 353 194 470 q 250 163 194 235 q 396 92 305 92 z "},"q":{"ha":763,"x_min":42,"x_max":686,"o":"m 342 718 q 477 683 418 718 q 571 586 536 648 l 574 586 l 574 705 l 686 705 l 686 -235 l 568 -235 l 568 118 l 566 118 q 473 22 532 57 q 340 -12 414 -12 q 124 87 205 -12 q 42 353 42 187 q 124 618 42 519 q 342 718 206 718 m 363 92 q 511 163 454 92 q 568 353 568 235 q 511 542 568 470 q 363 614 454 614 q 217 544 271 614 q 163 353 163 473 q 217 162 163 232 q 363 92 271 92 z "},"r":{"ha":428,"x_min":77,"x_max":409,"o":"m 77 0 l 77 705 l 188 705 l 188 590 l 191 590 q 254 683 208 649 q 361 718 300 718 q 409 713 376 718 l 409 598 q 346 605 390 605 q 236 559 277 605 q 195 439 195 514 l 195 0 l 77 0 z "},"s":{"ha":646,"x_min":45,"x_max":601,"o":"m 64 511 q 138 660 64 602 q 328 718 212 718 q 509 659 437 718 q 586 511 582 601 l 473 511 q 428 592 467 563 q 323 621 388 621 q 220 592 259 621 q 180 517 180 564 q 298 415 180 445 l 407 389 q 557 318 513 361 q 601 197 601 275 q 522 46 601 105 q 320 -12 444 -12 q 130 45 205 -12 q 45 197 55 102 l 163 197 q 328 84 183 84 q 440 112 399 84 q 482 189 482 140 q 457 249 482 227 q 374 287 433 271 l 250 319 q 64 511 64 366 z "},"t":{"ha":418,"x_min":9,"x_max":370,"o":"m 115 876 l 233 876 l 233 705 l 370 705 l 370 608 l 233 608 l 233 189 q 254 118 233 141 q 320 96 275 96 q 369 99 349 96 l 369 0 q 294 -5 346 -5 q 156 38 197 -5 q 115 183 115 81 l 115 608 l 9 608 l 9 705 l 115 705 l 115 876 z "},"u":{"ha":732,"x_min":73,"x_max":656,"o":"m 656 705 l 656 0 l 544 0 l 544 115 l 541 115 q 317 -12 475 -12 q 138 57 203 -12 q 73 248 73 127 l 73 705 l 191 705 l 191 269 q 354 92 191 92 q 489 146 439 92 q 538 291 538 200 l 538 705 l 656 705 z "},"v":{"ha":671,"x_min":16,"x_max":655,"o":"m 655 705 l 396 0 l 275 0 l 16 705 l 140 705 l 334 125 l 337 125 l 532 705 l 655 705 z "},"w":{"ha":994,"x_min":19,"x_max":974,"o":"m 974 705 l 777 0 l 657 0 l 498 546 l 495 546 l 336 0 l 216 0 l 19 705 l 136 705 l 277 132 l 280 132 l 439 705 l 553 705 l 713 132 l 716 132 l 857 705 l 974 705 z "},"x":{"ha":652,"x_min":22,"x_max":629,"o":"m 326 269 l 323 269 l 153 0 l 22 0 l 262 353 l 26 705 l 158 705 l 328 441 l 330 441 l 498 705 l 629 705 l 391 357 l 626 0 l 495 0 l 326 269 z "},"y":{"ha":675,"x_min":16,"x_max":659,"o":"m 135 -264 q 84 -260 104 -264 l 84 -161 q 130 -164 100 -164 q 210 -138 180 -164 q 260 -50 239 -112 l 276 -1 l 16 705 l 142 705 l 337 118 l 339 118 l 534 705 l 659 705 l 381 -50 q 283 -218 336 -173 q 135 -264 231 -264 z "},"z":{"ha":650,"x_min":62,"x_max":588,"o":"m 62 0 l 62 84 l 452 606 l 452 608 l 62 608 l 62 705 l 586 705 l 586 619 l 198 99 l 198 97 l 588 97 l 588 0 l 62 0 z "},"{":{"ha":448,"x_min":14,"x_max":434,"o":"m 124 377 q 273 218 273 362 l 273 40 q 304 -77 273 -41 q 407 -113 335 -113 l 434 -113 l 434 -208 l 397 -208 q 219 -151 277 -208 q 161 25 161 -94 l 161 176 q 129 289 161 258 q 14 321 96 321 l 14 450 q 129 481 96 450 q 161 594 161 513 l 161 745 q 219 921 161 864 q 397 979 277 979 l 434 979 l 434 883 l 407 883 q 304 847 335 883 q 273 730 273 812 l 273 552 q 124 393 273 408 l 124 377 z "},"|":{"ha":448,"x_min":174,"x_max":273,"o":"m 273 -208 l 174 -208 l 174 979 l 273 979 l 273 -208 z "},"}":{"ha":448,"x_min":14,"x_max":434,"o":"m 323 377 l 323 393 q 175 552 175 408 l 175 730 q 144 847 175 812 q 41 883 113 883 l 14 883 l 14 979 l 51 979 q 229 921 171 979 q 286 745 286 864 l 286 594 q 319 481 286 513 q 434 450 351 450 l 434 321 q 318 290 351 321 q 286 178 286 258 l 286 31 q 228 -149 286 -90 q 51 -208 170 -208 l 14 -208 l 14 -113 l 41 -113 q 143 -77 112 -113 q 175 39 175 -41 l 175 217 q 323 377 175 363 z "},"~":{"ha":840,"x_min":77,"x_max":764,"o":"m 390 431 q 329 485 353 469 q 281 500 304 500 q 186 378 193 500 l 77 378 q 132 549 77 487 q 284 612 188 612 q 452 527 367 612 q 511 474 487 490 q 559 459 536 459 q 655 581 648 459 l 763 581 q 708 410 764 472 q 557 347 653 347 q 390 431 474 347 z "}," ":{"ha":285,"x_min":0,"x_max":0,"o":""},"¡":{"ha":370,"x_min":108,"x_max":262,"o":"m 124 -232 l 132 422 l 238 422 l 246 -232 l 124 -232 m 185 600 q 130 623 153 600 q 108 677 108 645 q 130 733 108 711 q 185 755 153 755 q 240 733 218 755 q 262 677 262 711 q 240 623 262 645 q 185 600 218 600 z "},"¢":{"ha":840,"x_min":77,"x_max":763,"o":"m 763 365 q 676 195 751 264 q 488 115 600 126 l 488 0 l 371 0 l 371 116 q 157 239 236 137 q 77 492 77 340 q 157 742 77 641 q 371 863 237 843 l 371 979 l 488 979 l 488 864 q 678 780 600 852 q 763 610 755 707 l 645 610 q 573 722 631 681 q 431 762 516 762 q 263 687 328 762 q 198 492 198 611 q 263 294 198 371 q 431 216 329 216 q 645 365 617 216 l 763 365 z "},"£":{"ha":840,"x_min":66,"x_max":787,"o":"m 254 104 l 787 104 l 787 0 l 66 0 l 66 103 q 216 191 157 123 q 275 340 275 258 q 259 443 275 385 l 66 443 l 66 541 l 225 541 q 184 719 184 656 q 277 927 184 852 q 534 1002 370 1002 q 738 966 661 1002 l 738 857 q 655 883 712 872 q 541 894 599 894 q 370 848 431 894 q 309 722 309 802 q 349 541 309 656 l 669 541 l 669 443 l 381 443 q 395 345 395 386 q 355 204 395 264 q 254 107 315 144 l 254 104 z "},"¤":{"ha":840,"x_min":86,"x_max":754,"o":"m 295 571 q 268 545 295 571 q 242 445 242 519 q 295 318 242 371 q 421 266 347 266 q 547 318 495 266 q 600 445 600 371 q 547 571 600 519 q 421 624 495 624 q 295 571 347 624 m 754 707 l 640 593 q 686 445 686 526 q 640 296 686 363 l 754 182 l 682 110 l 568 224 q 421 180 502 180 q 273 225 340 180 l 158 110 l 86 182 l 201 297 q 156 445 156 365 q 201 592 156 525 l 86 707 l 158 779 l 273 665 q 421 710 340 710 q 568 665 501 710 l 682 779 l 754 707 z "},"¥":{"ha":840,"x_min":12,"x_max":828,"o":"m 669 182 l 481 182 l 481 0 l 359 0 l 359 182 l 172 182 l 172 275 l 359 275 l 359 387 l 172 387 l 172 479 l 323 479 l 12 979 l 151 979 l 418 540 l 422 540 l 689 979 l 828 979 l 518 479 l 669 479 l 669 387 l 481 387 l 481 275 l 669 275 l 669 182 z "},"¦":{"ha":448,"x_min":174,"x_max":273,"o":"m 273 504 l 174 504 l 174 979 l 273 979 l 273 504 m 273 -208 l 174 -208 l 174 267 l 273 267 l 273 -208 z "},"§":{"ha":670,"x_min":55,"x_max":615,"o":"m 291 271 l 347 259 q 452 296 410 259 q 495 389 495 334 q 465 460 495 431 q 380 502 435 490 l 323 514 q 218 476 262 514 q 175 385 175 438 q 205 313 175 342 q 291 271 235 283 m 338 -174 q 145 -118 222 -174 q 61 28 68 -62 l 180 28 q 233 -47 187 -18 q 345 -75 278 -75 q 457 -45 414 -75 q 500 32 500 -16 q 468 96 500 70 q 366 140 436 121 l 270 166 q 107 243 159 196 q 55 361 55 290 q 95 473 55 426 q 206 539 134 519 l 206 550 q 58 735 58 608 q 133 889 58 830 q 330 947 208 947 q 515 895 443 947 q 600 751 588 842 l 482 751 q 433 822 475 795 q 327 848 391 848 q 217 819 258 848 q 175 742 175 789 q 206 677 175 703 q 307 633 237 652 l 403 607 q 564 532 513 578 q 615 417 615 486 q 567 294 615 347 q 443 225 519 240 l 443 214 q 615 40 615 176 q 537 -114 615 -54 q 338 -174 460 -174 z "},"¨":{"ha":681,"x_min":140,"x_max":541,"o":"m 267 904 q 256 893 267 904 q 214 882 245 882 q 162 904 184 882 q 140 957 140 926 q 162 1010 140 988 q 214 1031 184 1031 q 267 1010 245 1031 q 289 957 289 988 q 267 904 289 926 m 519 904 q 508 893 519 904 q 467 882 497 882 q 414 904 436 882 q 392 957 392 926 q 414 1010 392 988 q 467 1031 436 1031 q 519 1010 497 1031 q 541 957 541 988 q 519 904 541 926 z "},"©":{"ha":1157,"x_min":41,"x_max":1116,"o":"m 578 -114 q 306 -44 429 -114 q 112 150 183 26 q 41 425 41 274 q 112 700 41 576 q 306 893 183 823 q 578 963 429 963 q 851 893 728 963 q 1045 700 975 823 q 1116 425 1116 576 q 1045 150 1116 274 q 851 -44 975 26 q 578 -114 728 -114 m 578 -19 q 803 39 701 -19 q 962 198 904 96 q 1021 425 1021 300 q 962 652 1021 550 q 803 811 904 753 q 578 868 701 868 q 355 811 456 868 q 195 652 254 753 q 136 425 136 550 q 195 198 136 300 q 355 39 254 96 q 578 -19 456 -19 m 835 521 l 741 521 q 689 597 729 567 q 590 627 650 627 q 465 573 511 627 q 418 426 418 519 q 465 277 418 332 q 590 222 512 222 q 688 249 648 222 q 741 325 728 275 l 835 325 q 757 190 822 241 q 591 138 692 138 q 395 216 468 138 q 322 426 322 293 q 395 633 322 556 q 590 711 468 711 q 757 657 692 711 q 835 521 822 603 z "},"ª":{"ha":494,"x_min":28,"x_max":446,"o":"m 221 562 q 312 593 276 562 q 348 672 348 624 l 348 710 l 229 703 q 128 630 128 695 q 154 580 128 599 q 221 562 179 562 m 194 483 q 74 523 120 483 q 28 628 28 563 q 77 729 28 692 q 216 772 125 766 l 348 779 l 348 817 q 321 881 348 859 q 245 903 294 903 q 179 884 206 903 q 146 833 152 865 l 53 833 q 110 942 55 899 q 248 985 165 985 q 392 941 338 985 q 446 825 446 897 l 446 488 l 351 488 l 351 569 l 349 569 q 287 506 329 529 q 194 483 244 483 z "},"«":{"ha":883,"x_min":92,"x_max":791,"o":"m 229 388 l 229 378 l 467 98 l 329 98 l 92 380 l 92 386 l 329 668 l 467 668 l 229 388 m 553 388 l 553 378 l 791 98 l 653 98 l 416 380 l 416 386 l 653 668 l 791 668 l 553 388 z "},"¬":{"ha":840,"x_min":99,"x_max":741,"o":"m 741 444 l 741 85 l 641 85 l 641 343 l 99 343 l 99 444 l 741 444 z "},"®":{"ha":787,"x_min":68,"x_max":719,"o":"m 393 401 q 229 444 304 401 q 111 559 155 486 q 68 720 68 633 q 162 946 68 854 q 393 1039 257 1039 q 624 947 530 1039 q 719 720 719 854 q 624 494 719 587 q 393 401 530 401 m 393 469 q 571 542 498 469 q 644 720 644 615 q 571 898 644 825 q 393 971 498 971 q 215 898 288 971 q 142 720 142 825 q 216 543 142 616 q 393 469 289 469 m 335 574 l 271 574 l 271 879 l 420 879 q 497 852 467 879 q 528 786 528 826 q 509 725 528 749 q 456 696 490 701 l 543 574 l 463 574 l 389 687 l 335 687 l 335 574 m 335 825 l 335 736 l 408 736 q 445 749 431 736 q 458 783 458 761 q 410 825 458 825 l 335 825 z "},"¯":{"ha":678,"x_min":144,"x_max":534,"o":"m 534 996 l 534 917 l 144 917 l 144 996 l 534 996 z "},"°":{"ha":497,"x_min":56,"x_max":441,"o":"m 248 602 q 112 658 168 602 q 56 795 56 714 q 112 932 56 876 q 248 988 168 988 q 385 931 328 988 q 441 795 441 875 q 385 658 441 715 q 248 602 328 602 m 248 689 q 324 720 293 689 q 355 795 355 751 q 324 870 355 839 q 248 901 293 901 q 174 870 205 901 q 142 795 142 839 q 174 721 142 752 q 248 689 205 689 z "},"±":{"ha":840,"x_min":75,"x_max":765,"o":"m 765 76 l 75 76 l 75 176 l 765 176 l 765 76 m 470 449 l 470 252 l 370 252 l 370 449 l 75 449 l 75 541 l 370 541 l 370 739 l 470 739 l 470 541 l 765 541 l 765 449 l 470 449 z "},"²":{"ha":418,"x_min":31,"x_max":385,"o":"m 31 1086 q 80 1196 31 1154 q 208 1238 129 1238 q 331 1200 283 1238 q 378 1102 378 1162 q 359 1034 378 1066 q 292 956 340 1001 l 180 850 l 180 848 l 385 848 l 385 763 l 37 763 l 37 836 l 216 1004 q 260 1055 248 1035 q 272 1095 272 1075 q 253 1138 272 1122 q 203 1155 233 1155 q 152 1135 172 1155 q 132 1086 132 1116 l 132 1084 l 31 1084 l 31 1086 z "},"³":{"ha":436,"x_min":31,"x_max":402,"o":"m 156 962 l 156 1039 l 213 1039 q 263 1055 244 1039 q 281 1099 281 1072 q 263 1140 281 1125 q 212 1156 244 1156 q 160 1138 180 1156 q 139 1093 140 1121 l 39 1093 q 89 1199 41 1159 q 216 1238 138 1238 q 338 1204 292 1238 q 385 1114 385 1170 q 358 1043 385 1072 q 288 1006 332 1013 l 288 1003 q 372 968 341 998 q 402 892 402 939 q 350 790 402 829 q 213 752 298 752 q 83 792 133 752 q 31 899 34 832 l 135 899 q 158 855 137 871 q 214 839 180 839 q 269 856 248 839 q 290 900 290 873 q 270 946 290 929 q 213 962 249 962 l 156 962 z "},"´":{"ha":682,"x_min":203,"x_max":473,"o":"m 307 873 l 203 873 l 346 1077 l 473 1077 l 307 873 z "},"µ":{"ha":798,"x_min":77,"x_max":757,"o":"m 77 -235 l 77 705 l 195 705 l 195 272 q 236 139 195 185 q 355 94 277 94 q 492 146 443 94 q 541 291 541 199 l 541 705 l 659 705 l 659 181 q 673 115 659 135 q 720 96 688 96 q 757 101 744 96 l 757 3 q 697 -5 732 -5 q 601 19 637 -5 q 550 95 564 43 q 545 118 548 102 l 544 118 q 462 22 512 56 q 352 -12 412 -12 q 257 12 300 -12 q 196 75 215 36 l 195 75 l 195 -235 l 77 -235 z "},"¶":{"ha":814,"x_min":68,"x_max":747,"o":"m 525 -149 l 403 -149 l 403 390 l 389 390 q 160 472 252 390 q 68 680 68 555 q 160 894 68 809 q 390 979 253 979 l 525 979 l 525 -149 m 625 -149 l 625 979 l 747 979 l 747 -149 l 625 -149 z "},"·":{"ha":353,"x_min":98,"x_max":255,"o":"m 232 354 q 221 343 232 354 q 176 332 210 332 q 120 354 143 332 q 98 410 98 377 q 120 466 98 444 q 176 489 143 489 q 232 466 210 489 q 255 410 255 444 q 232 354 255 377 z "},"¸":{"ha":682,"x_min":209,"x_max":469,"o":"m 233 -155 l 233 -108 l 278 5 l 362 5 l 362 0 l 324 -88 q 430 -118 391 -90 q 469 -197 469 -146 q 425 -284 469 -253 q 311 -317 380 -316 q 209 -308 243 -319 l 209 -239 q 294 -247 245 -247 q 380 -198 380 -247 q 356 -165 380 -175 q 281 -155 333 -155 l 233 -155 z "},"¹":{"ha":337,"x_min":47,"x_max":274,"o":"m 170 763 l 170 1133 l 168 1133 l 47 1050 l 47 1146 l 167 1227 l 274 1227 l 274 763 l 170 763 z "},"º":{"ha":521,"x_min":28,"x_max":493,"o":"m 430 549 q 399 515 430 549 q 260 481 368 481 q 91 549 153 481 q 28 733 28 617 q 91 917 28 849 q 260 985 154 985 q 430 917 367 985 q 493 733 493 849 q 430 549 493 617 m 260 564 q 358 608 323 564 q 393 733 393 653 q 358 858 393 813 q 260 903 323 903 q 164 858 199 903 q 129 733 129 813 q 164 608 129 653 q 260 564 199 564 z "},"»":{"ha":883,"x_min":92,"x_max":791,"o":"m 330 388 l 92 668 l 230 668 l 467 386 l 467 380 l 230 98 l 92 98 l 330 378 l 330 388 m 654 388 l 416 668 l 554 668 l 791 386 l 791 380 l 554 98 l 416 98 l 654 378 l 654 388 z "},"¼":{"ha":991,"x_min":54,"x_max":970,"o":"m 177 514 l 177 884 l 175 884 l 54 801 l 54 897 l 174 979 l 281 979 l 281 514 l 177 514 m 180 0 l 62 0 l 439 516 l 778 979 l 895 979 l 527 475 l 180 0 m 806 0 l 806 78 l 576 78 l 576 171 q 758 465 629 273 l 911 465 l 911 165 l 970 165 l 970 78 l 911 78 l 911 0 l 806 0 m 671 163 l 671 161 l 809 161 l 809 389 l 807 389 q 671 163 713 243 z "},"½":{"ha":991,"x_min":54,"x_max":970,"o":"m 177 514 l 177 884 l 175 884 l 54 801 l 54 897 l 174 979 l 281 979 l 281 514 l 177 514 m 180 0 l 62 0 l 439 516 l 778 979 l 895 979 l 527 475 l 180 0 m 616 323 q 665 433 616 391 q 793 475 714 475 q 916 437 869 475 q 964 339 964 399 q 945 271 964 303 q 878 193 926 238 l 766 87 l 766 85 l 970 85 l 970 0 l 622 0 l 622 73 l 801 241 q 845 292 833 272 q 857 332 857 312 q 838 375 857 359 q 788 392 819 392 q 737 372 758 392 q 717 323 717 353 l 717 321 l 616 321 l 616 323 z "},"¾":{"ha":1066,"x_min":31,"x_max":1044,"o":"m 156 713 l 156 790 l 213 790 q 263 806 244 790 q 281 850 281 823 q 263 891 281 876 q 212 907 244 907 q 160 889 180 907 q 139 844 140 872 l 39 844 q 89 950 41 910 q 216 989 138 989 q 338 955 292 989 q 385 865 385 921 q 358 794 385 823 q 288 757 332 764 l 288 754 q 372 720 341 749 q 402 643 402 690 q 350 542 402 580 q 213 503 298 503 q 83 543 133 503 q 31 650 34 583 l 135 650 q 158 606 137 623 q 214 590 180 590 q 269 607 248 590 q 290 651 290 624 q 270 697 290 680 q 213 713 249 713 l 156 713 m 254 0 l 136 0 l 514 516 l 852 979 l 969 979 l 602 475 l 254 0 m 881 0 l 881 78 l 651 78 l 651 171 q 832 465 704 273 l 985 465 l 985 165 l 1044 165 l 1044 78 l 985 78 l 985 0 l 881 0 m 745 163 l 745 161 l 884 161 l 884 389 l 882 389 q 745 163 787 243 z "},"¿":{"ha":680,"x_min":58,"x_max":642,"o":"m 642 22 q 559 -168 636 -94 q 347 -242 483 -242 q 139 -172 219 -242 q 58 5 58 -102 q 200 237 58 151 q 287 309 264 275 q 310 397 310 343 l 310 441 l 429 441 l 429 379 q 397 264 429 313 q 294 173 365 216 q 210 100 235 136 q 184 11 184 64 q 230 -95 184 -54 q 351 -136 276 -136 q 474 -94 427 -136 q 526 22 520 -52 l 642 22 m 361 600 q 306 623 328 600 q 283 677 283 645 q 306 733 283 711 q 361 755 328 755 q 416 733 394 755 q 438 677 438 711 q 416 623 438 645 q 361 600 394 600 z "},"À":{"ha":876,"x_min":17,"x_max":859,"o":"m 731 0 l 633 280 l 243 280 l 145 0 l 17 0 l 378 979 l 498 979 l 859 0 l 731 0 m 436 830 l 279 384 l 597 384 l 440 830 l 436 830 m 377 1058 l 201 1254 l 332 1254 l 481 1058 l 377 1058 z "},"Á":{"ha":876,"x_min":17,"x_max":859,"o":"m 731 0 l 633 280 l 243 280 l 145 0 l 17 0 l 378 979 l 498 979 l 859 0 l 731 0 m 436 830 l 279 384 l 597 384 l 440 830 l 436 830 m 499 1058 l 395 1058 l 544 1254 l 675 1254 l 499 1058 z "},"Â":{"ha":876,"x_min":17,"x_max":859,"o":"m 731 0 l 633 280 l 243 280 l 145 0 l 17 0 l 378 979 l 498 979 l 859 0 l 731 0 m 436 830 l 279 384 l 597 384 l 440 830 l 436 830 m 393 1246 l 484 1246 l 675 1044 l 563 1044 l 440 1175 l 436 1175 l 313 1044 l 201 1044 l 393 1246 z "},"Ã":{"ha":876,"x_min":17,"x_max":859,"o":"m 731 0 l 633 280 l 243 280 l 145 0 l 17 0 l 378 979 l 498 979 l 859 0 l 731 0 m 436 830 l 279 384 l 597 384 l 440 830 l 436 830 m 527 1072 q 469 1088 496 1072 q 425 1123 441 1104 q 388 1158 408 1142 q 350 1175 368 1175 q 313 1149 326 1175 q 302 1078 300 1124 l 222 1078 q 257 1206 222 1160 q 351 1251 292 1251 q 400 1241 377 1251 q 440 1215 424 1230 q 471 1184 456 1200 q 499 1159 485 1169 q 528 1148 514 1148 q 562 1173 549 1148 q 574 1245 574 1198 l 654 1245 q 619 1118 654 1165 q 527 1072 583 1072 z "},"Ä":{"ha":876,"x_min":17,"x_max":859,"o":"m 731 0 l 633 280 l 243 280 l 145 0 l 17 0 l 378 979 l 498 979 l 859 0 l 731 0 m 436 830 l 279 384 l 597 384 l 440 830 l 436 830 m 365 1109 q 353 1099 365 1109 q 312 1088 342 1088 q 259 1109 281 1088 q 237 1162 237 1131 q 259 1215 237 1194 q 312 1237 281 1237 q 365 1215 342 1237 q 387 1162 387 1194 q 365 1109 387 1131 m 617 1109 q 606 1099 617 1109 q 564 1088 595 1088 q 512 1109 534 1088 q 490 1162 490 1131 q 512 1215 490 1194 q 564 1237 534 1237 q 617 1215 595 1237 q 639 1162 639 1194 q 617 1109 639 1131 z "},"Å":{"ha":876,"x_min":17,"x_max":859,"o":"m 731 0 l 633 280 l 243 280 l 145 0 l 17 0 l 378 979 l 498 979 l 859 0 l 731 0 m 436 830 l 279 384 l 597 384 l 440 830 l 436 830 m 530 1066 q 511 1047 530 1066 q 438 1028 492 1028 q 347 1066 385 1028 q 309 1158 309 1104 q 347 1249 309 1211 q 438 1287 385 1287 q 530 1249 492 1287 q 568 1158 568 1211 q 530 1066 568 1104 m 389 1108 q 399 1098 389 1108 q 438 1088 409 1088 q 488 1108 467 1088 q 508 1158 508 1128 q 488 1207 508 1187 q 438 1227 467 1227 q 389 1207 409 1227 q 368 1158 368 1187 q 389 1108 368 1128 z "},"Æ":{"ha":1338,"x_min":3,"x_max":1245,"o":"m 544 876 l 326 415 l 652 415 l 652 876 l 544 876 m 652 0 l 652 311 l 276 311 l 129 0 l 3 0 l 469 979 l 1245 979 l 1245 869 l 774 869 l 774 548 l 1220 548 l 1220 439 l 774 439 l 774 110 l 1245 110 l 1245 0 l 652 0 z "},"Ç":{"ha":953,"x_min":57,"x_max":904,"o":"m 904 670 l 781 670 q 680 824 757 766 q 498 882 602 882 q 269 775 355 882 q 182 490 182 668 q 268 203 182 309 q 498 96 353 96 q 680 146 606 96 q 781 285 754 195 l 904 285 q 781 74 873 151 q 546 -14 688 -3 l 514 -88 q 620 -118 581 -90 q 659 -197 659 -146 q 614 -284 659 -253 q 500 -317 570 -316 q 399 -308 433 -319 l 399 -239 q 484 -247 435 -247 q 570 -198 570 -247 q 546 -165 570 -175 q 471 -155 523 -155 l 423 -155 l 423 -108 l 460 -15 q 165 134 274 -1 q 57 490 57 269 q 177 858 57 720 q 498 995 297 995 q 769 906 658 995 q 904 670 881 817 z "},"È":{"ha":767,"x_min":95,"x_max":701,"o":"m 701 110 l 701 0 l 95 0 l 95 979 l 701 979 l 701 869 l 217 869 l 217 555 l 676 555 l 676 446 l 217 446 l 217 110 l 701 110 m 337 1058 l 161 1254 l 292 1254 l 441 1058 l 337 1058 z "},"É":{"ha":767,"x_min":95,"x_max":701,"o":"m 701 110 l 701 0 l 95 0 l 95 979 l 701 979 l 701 869 l 217 869 l 217 555 l 676 555 l 676 446 l 217 446 l 217 110 l 701 110 m 459 1058 l 355 1058 l 504 1254 l 635 1254 l 459 1058 z "},"Ê":{"ha":767,"x_min":95,"x_max":701,"o":"m 701 110 l 701 0 l 95 0 l 95 979 l 701 979 l 701 869 l 217 869 l 217 555 l 676 555 l 676 446 l 217 446 l 217 110 l 701 110 m 353 1246 l 444 1246 l 635 1044 l 523 1044 l 400 1175 l 396 1175 l 273 1044 l 161 1044 l 353 1246 z "},"Ë":{"ha":767,"x_min":95,"x_max":701,"o":"m 701 110 l 701 0 l 95 0 l 95 979 l 701 979 l 701 869 l 217 869 l 217 555 l 676 555 l 676 446 l 217 446 l 217 110 l 701 110 m 325 1109 q 313 1099 325 1109 q 272 1088 302 1088 q 219 1109 241 1088 q 197 1162 197 1131 q 219 1215 197 1194 q 272 1237 241 1237 q 325 1215 302 1237 q 347 1162 347 1194 q 325 1109 347 1131 m 577 1109 q 566 1099 577 1109 q 524 1088 555 1088 q 472 1109 494 1088 q 450 1162 450 1131 q 472 1215 450 1194 q 524 1237 494 1237 q 577 1215 555 1237 q 599 1162 599 1194 q 577 1109 599 1131 z "},"Ì":{"ha":312,"x_min":-81,"x_max":217,"o":"m 217 0 l 95 0 l 95 979 l 217 979 l 217 0 m 95 1058 l -81 1254 l 50 1254 l 199 1058 l 95 1058 z "},"Í":{"ha":312,"x_min":95,"x_max":393,"o":"m 217 0 l 95 0 l 95 979 l 217 979 l 217 0 m 217 1058 l 113 1058 l 262 1254 l 393 1254 l 217 1058 z "},"Î":{"ha":312,"x_min":-81,"x_max":393,"o":"m 217 0 l 95 0 l 95 979 l 217 979 l 217 0 m 111 1246 l 201 1246 l 393 1044 l 281 1044 l 158 1175 l 154 1175 l 31 1044 l -81 1044 l 111 1246 z "},"Ï":{"ha":312,"x_min":-45,"x_max":357,"o":"m 217 0 l 95 0 l 95 979 l 217 979 l 217 0 m 82 1109 q 71 1099 82 1109 q 30 1088 60 1088 q -23 1109 -1 1088 q -45 1162 -45 1131 q -23 1215 -45 1194 q 30 1237 -1 1237 q 82 1215 60 1237 q 104 1162 104 1194 q 82 1109 104 1131 m 335 1109 q 324 1099 335 1109 q 282 1088 313 1088 q 230 1109 252 1088 q 208 1162 208 1131 q 230 1215 208 1194 q 282 1237 252 1237 q 335 1215 313 1237 q 357 1162 357 1194 q 335 1109 357 1131 z "},"Ð":{"ha":958,"x_min":16,"x_max":895,"o":"m 226 110 l 425 110 q 680 208 591 110 q 770 488 770 306 q 681 770 770 672 q 425 869 591 869 l 226 869 l 226 560 l 414 560 l 414 450 l 226 450 l 226 110 m 104 979 l 433 979 q 772 849 650 979 q 895 490 895 720 q 773 129 895 258 q 433 0 651 0 l 104 0 l 104 450 l 16 450 l 16 560 l 104 560 l 104 979 z "},"Ñ":{"ha":971,"x_min":95,"x_max":876,"o":"m 216 0 l 95 0 l 95 979 l 214 979 l 749 210 l 755 210 l 755 979 l 876 979 l 876 0 l 758 0 l 222 766 l 216 766 l 216 0 m 574 1072 q 516 1088 544 1072 q 472 1123 489 1104 q 435 1158 456 1142 q 397 1175 415 1175 q 360 1149 374 1175 q 349 1078 347 1124 l 269 1078 q 304 1206 269 1160 q 398 1251 339 1251 q 448 1241 425 1251 q 488 1215 471 1230 q 518 1184 504 1200 q 547 1159 532 1169 q 575 1148 562 1148 q 609 1173 597 1148 q 622 1245 622 1198 l 702 1245 q 666 1118 702 1165 q 574 1072 631 1072 z "},"Ò":{"ha":1016,"x_min":57,"x_max":959,"o":"m 178 859 q 239 927 178 859 q 508 995 300 995 q 838 859 716 995 q 959 489 959 722 q 838 120 959 256 q 508 -16 716 -16 q 178 120 300 -16 q 57 489 57 256 q 178 859 57 722 m 746 776 q 702 829 746 776 q 508 882 658 882 q 270 776 358 882 q 182 489 182 670 q 270 202 182 309 q 508 96 358 96 q 746 202 658 96 q 833 489 833 309 q 746 776 833 670 m 447 1058 l 271 1254 l 402 1254 l 551 1058 l 447 1058 z "},"Ó":{"ha":1016,"x_min":57,"x_max":959,"o":"m 178 859 q 239 927 178 859 q 508 995 300 995 q 838 859 716 995 q 959 489 959 722 q 838 120 959 256 q 508 -16 716 -16 q 178 120 300 -16 q 57 489 57 256 q 178 859 57 722 m 746 776 q 702 829 746 776 q 508 882 658 882 q 270 776 358 882 q 182 489 182 670 q 270 202 182 309 q 508 96 358 96 q 746 202 658 96 q 833 489 833 309 q 746 776 833 670 m 569 1058 l 465 1058 l 614 1254 l 745 1254 l 569 1058 z "},"Ô":{"ha":1016,"x_min":57,"x_max":959,"o":"m 178 859 q 239 927 178 859 q 508 995 300 995 q 838 859 716 995 q 959 489 959 722 q 838 120 959 256 q 508 -16 716 -16 q 178 120 300 -16 q 57 489 57 256 q 178 859 57 722 m 746 776 q 702 829 746 776 q 508 882 658 882 q 270 776 358 882 q 182 489 182 670 q 270 202 182 309 q 508 96 358 96 q 746 202 658 96 q 833 489 833 309 q 746 776 833 670 m 463 1246 l 553 1246 l 745 1044 l 633 1044 l 510 1175 l 506 1175 l 383 1044 l 271 1044 l 463 1246 z "},"Õ":{"ha":1016,"x_min":57,"x_max":959,"o":"m 178 859 q 239 927 178 859 q 508 995 300 995 q 838 859 716 995 q 959 489 959 722 q 838 120 959 256 q 508 -16 716 -16 q 178 120 300 -16 q 57 489 57 256 q 178 859 57 722 m 746 776 q 702 829 746 776 q 508 882 658 882 q 270 776 358 882 q 182 489 182 670 q 270 202 182 309 q 508 96 358 96 q 746 202 658 96 q 833 489 833 309 q 746 776 833 670 m 597 1072 q 539 1088 566 1072 q 495 1123 511 1104 q 458 1158 478 1142 q 420 1175 437 1175 q 383 1149 396 1175 q 372 1078 370 1124 l 292 1078 q 327 1206 292 1160 q 420 1251 361 1251 q 470 1241 447 1251 q 510 1215 494 1230 q 541 1184 526 1200 q 569 1159 555 1169 q 597 1148 584 1148 q 632 1173 619 1148 q 644 1245 644 1198 l 724 1245 q 689 1118 724 1165 q 597 1072 653 1072 z "},"Ö":{"ha":1016,"x_min":57,"x_max":959,"o":"m 178 859 q 239 927 178 859 q 508 995 300 995 q 838 859 716 995 q 959 489 959 722 q 838 120 959 256 q 508 -16 716 -16 q 178 120 300 -16 q 57 489 57 256 q 178 859 57 722 m 746 776 q 702 829 746 776 q 508 882 658 882 q 270 776 358 882 q 182 489 182 670 q 270 202 182 309 q 508 96 358 96 q 746 202 658 96 q 833 489 833 309 q 746 776 833 670 m 434 1109 q 423 1099 434 1109 q 382 1088 412 1088 q 329 1109 351 1088 q 307 1162 307 1131 q 329 1215 307 1194 q 382 1237 351 1237 q 434 1215 412 1237 q 456 1162 456 1194 q 434 1109 456 1131 m 687 1109 q 676 1099 687 1109 q 634 1088 665 1088 q 582 1109 604 1088 q 559 1162 559 1131 q 582 1215 559 1194 q 634 1237 604 1237 q 687 1215 665 1237 q 709 1162 709 1194 q 687 1109 709 1131 z "},"×":{"ha":840,"x_min":141,"x_max":699,"o":"m 420 322 l 212 114 l 141 184 l 349 393 l 141 602 l 212 673 l 420 465 l 629 673 l 699 602 l 492 393 l 699 184 l 629 114 l 420 322 z "},"Ø":{"ha":1016,"x_min":57,"x_max":959,"o":"m 770 743 l 319 156 q 508 96 397 96 q 746 202 658 96 q 833 489 833 309 q 770 743 833 643 m 259 216 l 715 808 q 508 882 633 882 q 270 776 358 882 q 182 489 182 670 q 259 216 182 320 m 937 962 l 848 846 q 959 489 959 711 q 838 120 959 256 q 508 -16 716 -16 q 245 60 355 -16 l 175 -32 l 107 20 l 182 116 q 57 489 57 254 q 178 859 57 722 q 508 995 300 995 q 789 904 677 995 l 871 1009 l 937 962 z "},"Ù":{"ha":967,"x_min":95,"x_max":872,"o":"m 217 979 l 217 351 q 288 167 217 238 q 484 96 359 96 q 679 167 608 96 q 750 351 750 238 l 750 979 l 872 979 l 872 343 q 767 84 872 184 q 484 -16 663 -16 q 200 84 304 -16 q 95 343 95 184 l 95 979 l 217 979 m 422 1058 l 246 1254 l 378 1254 l 527 1058 l 422 1058 z "},"Ú":{"ha":967,"x_min":95,"x_max":872,"o":"m 217 979 l 217 351 q 288 167 217 238 q 484 96 359 96 q 679 167 608 96 q 750 351 750 238 l 750 979 l 872 979 l 872 343 q 767 84 872 184 q 484 -16 663 -16 q 200 84 304 -16 q 95 343 95 184 l 95 979 l 217 979 m 545 1058 l 440 1058 l 589 1254 l 721 1254 l 545 1058 z "},"Û":{"ha":967,"x_min":95,"x_max":872,"o":"m 217 979 l 217 351 q 288 167 217 238 q 484 96 359 96 q 679 167 608 96 q 750 351 750 238 l 750 979 l 872 979 l 872 343 q 767 84 872 184 q 484 -16 663 -16 q 200 84 304 -16 q 95 343 95 184 l 95 979 l 217 979 m 438 1246 l 529 1246 l 721 1044 l 608 1044 l 486 1175 l 481 1175 l 359 1044 l 246 1044 l 438 1246 z "},"Ü":{"ha":967,"x_min":95,"x_max":872,"o":"m 217 979 l 217 351 q 288 167 217 238 q 484 96 359 96 q 679 167 608 96 q 750 351 750 238 l 750 979 l 872 979 l 872 343 q 767 84 872 184 q 484 -16 663 -16 q 200 84 304 -16 q 95 343 95 184 l 95 979 l 217 979 m 410 1109 q 399 1099 410 1109 q 357 1088 388 1088 q 305 1109 327 1088 q 283 1162 283 1131 q 305 1215 283 1194 q 357 1237 327 1237 q 410 1215 388 1237 q 432 1162 432 1194 q 410 1109 432 1131 m 662 1109 q 651 1099 662 1109 q 610 1088 640 1088 q 557 1109 579 1088 q 535 1162 535 1131 q 557 1215 535 1194 q 610 1237 579 1237 q 662 1215 640 1237 q 684 1162 684 1194 q 662 1109 684 1131 z "},"Ý":{"ha":850,"x_min":17,"x_max":833,"o":"m 486 0 l 364 0 l 364 421 l 17 979 l 156 979 l 423 539 l 427 539 l 694 979 l 833 979 l 486 421 l 486 0 m 486 1058 l 382 1058 l 531 1254 l 663 1254 l 486 1058 z "},"Þ":{"ha":836,"x_min":109,"x_max":770,"o":"m 109 979 l 231 979 l 231 798 l 484 798 q 591 779 540 798 q 683 725 643 760 q 746 636 722 690 q 770 517 770 582 q 746 397 770 452 q 682 308 722 343 q 590 253 642 273 q 482 234 538 234 l 231 234 l 231 0 l 109 0 l 109 979 m 231 690 l 231 342 l 449 342 q 591 387 537 342 q 644 517 644 432 q 591 646 644 602 q 449 690 537 690 l 231 690 z "},"ß":{"ha":813,"x_min":118,"x_max":739,"o":"m 234 0 l 118 0 l 118 726 q 193 913 118 843 q 395 984 269 984 q 592 915 515 984 q 669 739 669 846 q 628 593 669 655 q 519 510 588 531 l 519 507 q 681 427 623 492 q 739 262 739 362 q 657 65 739 139 q 440 -9 576 -9 q 345 -1 385 -9 l 345 102 q 431 93 380 93 q 571 139 519 93 q 623 264 623 186 q 564 396 623 348 q 403 444 506 444 l 362 444 l 362 558 l 396 558 q 512 605 470 558 q 554 732 554 651 q 510 840 554 798 q 397 882 467 882 q 277 837 320 882 q 234 713 234 792 l 234 0 z "},"à":{"ha":697,"x_min":48,"x_max":624,"o":"m 309 88 q 449 140 393 88 q 506 268 506 192 l 506 326 l 317 314 q 207 279 246 309 q 168 199 168 250 q 207 119 168 149 q 309 88 245 88 m 283 -12 q 113 46 178 -12 q 48 199 48 104 q 115 345 48 290 q 304 406 182 399 l 506 417 l 506 476 q 465 577 506 541 q 351 614 425 614 q 242 584 284 614 q 189 502 200 555 l 75 502 q 156 657 81 596 q 354 718 232 718 q 551 655 478 718 q 624 488 624 593 l 624 0 l 512 0 l 512 121 l 509 121 q 416 24 477 61 q 283 -12 354 -12 m 389 807 l 286 807 l 119 1010 l 247 1010 l 389 807 z "},"á":{"ha":697,"x_min":48,"x_max":624,"o":"m 309 88 q 449 140 393 88 q 506 268 506 192 l 506 326 l 317 314 q 207 279 246 309 q 168 199 168 250 q 207 119 168 149 q 309 88 245 88 m 283 -12 q 113 46 178 -12 q 48 199 48 104 q 115 345 48 290 q 304 406 182 399 l 506 417 l 506 476 q 465 577 506 541 q 351 614 425 614 q 242 584 284 614 q 189 502 200 555 l 75 502 q 156 657 81 596 q 354 718 232 718 q 551 655 478 718 q 624 488 624 593 l 624 0 l 512 0 l 512 121 l 509 121 q 416 24 477 61 q 283 -12 354 -12 m 399 807 l 296 807 l 439 1010 l 566 1010 l 399 807 z "},"â":{"ha":697,"x_min":48,"x_max":624,"o":"m 309 88 q 449 140 393 88 q 506 268 506 192 l 506 326 l 317 314 q 207 279 246 309 q 168 199 168 250 q 207 119 168 149 q 309 88 245 88 m 283 -12 q 113 46 178 -12 q 48 199 48 104 q 115 345 48 290 q 304 406 182 399 l 506 417 l 506 476 q 465 577 506 541 q 351 614 425 614 q 242 584 284 614 q 189 502 200 555 l 75 502 q 156 657 81 596 q 354 718 232 718 q 551 655 478 718 q 624 488 624 593 l 624 0 l 512 0 l 512 121 l 509 121 q 416 24 477 61 q 283 -12 354 -12 m 391 1010 l 576 807 l 465 807 l 348 937 l 344 937 l 227 807 l 116 807 l 300 1010 l 391 1010 z "},"ã":{"ha":697,"x_min":48,"x_max":624,"o":"m 309 88 q 449 140 393 88 q 506 268 506 192 l 506 326 l 317 314 q 207 279 246 309 q 168 199 168 250 q 207 119 168 149 q 309 88 245 88 m 283 -12 q 113 46 178 -12 q 48 199 48 104 q 115 345 48 290 q 304 406 182 399 l 506 417 l 506 476 q 465 577 506 541 q 351 614 425 614 q 242 584 284 614 q 189 502 200 555 l 75 502 q 156 657 81 596 q 354 718 232 718 q 551 655 478 718 q 624 488 624 593 l 624 0 l 512 0 l 512 121 l 509 121 q 416 24 477 61 q 283 -12 354 -12 m 437 812 q 379 829 407 812 q 335 864 352 845 q 298 899 319 883 q 260 916 278 916 q 223 890 237 916 q 212 819 210 865 l 132 819 q 167 947 132 901 q 261 992 202 992 q 311 982 288 992 q 351 956 334 971 q 381 925 367 941 q 410 900 395 910 q 438 889 425 889 q 472 914 460 889 q 485 986 485 939 l 565 986 q 529 859 565 906 q 437 812 494 812 z "},"ä":{"ha":697,"x_min":48,"x_max":624,"o":"m 309 88 q 449 140 393 88 q 506 268 506 192 l 506 326 l 317 314 q 207 279 246 309 q 168 199 168 250 q 207 119 168 149 q 309 88 245 88 m 283 -12 q 113 46 178 -12 q 48 199 48 104 q 115 345 48 290 q 304 406 182 399 l 506 417 l 506 476 q 465 577 506 541 q 351 614 425 614 q 242 584 284 614 q 189 502 200 555 l 75 502 q 156 657 81 596 q 354 718 232 718 q 551 655 478 718 q 624 488 624 593 l 624 0 l 512 0 l 512 121 l 509 121 q 416 24 477 61 q 283 -12 354 -12 m 272 838 q 261 827 272 838 q 220 816 250 816 q 167 838 189 816 q 145 890 145 859 q 167 943 145 922 q 220 965 189 965 q 272 943 250 965 q 294 890 294 922 q 272 838 294 859 m 525 838 q 514 827 525 838 q 472 816 503 816 q 419 838 441 816 q 397 890 397 859 q 419 943 397 922 q 472 965 441 965 q 525 943 503 965 q 547 890 547 922 q 525 838 547 859 z "},"å":{"ha":697,"x_min":48,"x_max":624,"o":"m 309 88 q 449 140 393 88 q 506 268 506 192 l 506 326 l 317 314 q 207 279 246 309 q 168 199 168 250 q 207 119 168 149 q 309 88 245 88 m 283 -12 q 113 46 178 -12 q 48 199 48 104 q 115 345 48 290 q 304 406 182 399 l 506 417 l 506 476 q 465 577 506 541 q 351 614 425 614 q 242 584 284 614 q 189 502 200 555 l 75 502 q 156 657 81 596 q 354 718 232 718 q 551 655 478 718 q 624 488 624 593 l 624 0 l 512 0 l 512 121 l 509 121 q 416 24 477 61 q 283 -12 354 -12 m 437 806 q 418 787 437 806 q 346 768 399 768 q 254 806 292 768 q 216 897 216 844 q 254 989 216 951 q 346 1027 292 1027 q 437 989 399 1027 q 475 897 475 951 q 437 806 475 844 m 296 848 q 307 838 296 848 q 346 827 317 827 q 395 848 375 827 q 416 897 416 868 q 395 947 416 926 q 346 967 375 967 q 296 947 317 967 q 276 897 276 926 q 296 848 276 868 z "},"æ":{"ha":1159,"x_min":45,"x_max":1116,"o":"m 825 -12 q 672 28 739 -12 q 571 138 606 68 l 564 138 q 453 27 521 66 q 299 -12 386 -12 q 114 45 182 -12 q 45 199 45 102 q 113 343 45 290 q 309 402 182 396 l 505 412 l 505 462 q 459 571 505 528 q 342 614 414 614 q 234 583 276 614 q 187 501 193 551 l 72 501 q 150 656 77 595 q 338 718 222 718 q 491 681 426 718 q 581 578 555 644 l 587 578 q 684 682 623 646 q 826 718 745 718 q 1038 622 960 718 q 1116 366 1116 526 l 1116 321 l 623 321 l 623 314 q 678 152 623 214 q 826 90 734 90 q 932 120 888 90 q 992 202 976 151 l 1108 202 q 1014 48 1093 109 q 825 -12 935 -12 m 817 615 q 682 559 735 615 q 623 413 629 503 l 995 413 q 944 560 993 505 q 817 615 896 615 m 303 89 q 447 141 388 89 q 505 268 505 194 l 505 321 l 321 311 q 205 278 245 307 q 165 201 165 250 q 203 120 165 151 q 303 89 241 89 z "},"ç":{"ha":696,"x_min":42,"x_max":664,"o":"m 548 227 l 664 227 q 585 68 652 133 q 416 -9 517 4 l 382 -88 q 489 -118 450 -90 q 528 -197 528 -146 q 483 -284 528 -253 q 369 -317 438 -316 q 267 -308 302 -319 l 267 -239 q 352 -247 303 -247 q 438 -198 438 -247 q 415 -165 438 -175 q 339 -155 391 -155 l 292 -155 l 292 -108 l 330 -10 q 120 99 198 2 q 42 353 42 195 q 131 618 42 519 q 366 718 220 718 q 571 646 492 718 q 663 474 650 575 l 547 474 q 487 574 534 535 q 367 614 441 614 q 218 543 275 614 q 162 353 162 472 q 219 161 162 231 q 368 92 275 92 q 486 127 439 92 q 548 227 532 163 z "},"è":{"ha":711,"x_min":42,"x_max":669,"o":"m 359 615 q 223 558 277 615 q 164 413 170 502 l 547 413 q 494 559 545 503 q 359 615 442 615 m 545 202 l 661 202 q 563 48 645 109 q 367 -12 481 -12 q 129 85 216 -12 q 42 350 42 183 q 129 616 42 515 q 361 718 216 718 q 587 622 504 718 q 669 366 669 526 l 669 321 l 163 321 l 163 314 q 219 151 163 212 q 370 90 275 90 q 483 121 436 90 q 545 202 530 151 m 405 807 l 302 807 l 135 1010 l 262 1010 l 405 807 z "},"é":{"ha":711,"x_min":42,"x_max":669,"o":"m 359 615 q 223 558 277 615 q 164 413 170 502 l 547 413 q 494 559 545 503 q 359 615 442 615 m 545 202 l 661 202 q 563 48 645 109 q 367 -12 481 -12 q 129 85 216 -12 q 42 350 42 183 q 129 616 42 515 q 361 718 216 718 q 587 622 504 718 q 669 366 669 526 l 669 321 l 163 321 l 163 314 q 219 151 163 212 q 370 90 275 90 q 483 121 436 90 q 545 202 530 151 m 415 807 l 312 807 l 454 1010 l 582 1010 l 415 807 z "},"ê":{"ha":711,"x_min":42,"x_max":669,"o":"m 359 615 q 223 558 277 615 q 164 413 170 502 l 547 413 q 494 559 545 503 q 359 615 442 615 m 545 202 l 661 202 q 563 48 645 109 q 367 -12 481 -12 q 129 85 216 -12 q 42 350 42 183 q 129 616 42 515 q 361 718 216 718 q 587 622 504 718 q 669 366 669 526 l 669 321 l 163 321 l 163 314 q 219 151 163 212 q 370 90 275 90 q 483 121 436 90 q 545 202 530 151 m 407 1010 l 591 807 l 481 807 l 363 937 l 359 937 l 242 807 l 132 807 l 316 1010 l 407 1010 z "},"ë":{"ha":711,"x_min":42,"x_max":669,"o":"m 359 615 q 223 558 277 615 q 164 413 170 502 l 547 413 q 494 559 545 503 q 359 615 442 615 m 545 202 l 661 202 q 563 48 645 109 q 367 -12 481 -12 q 129 85 216 -12 q 42 350 42 183 q 129 616 42 515 q 361 718 216 718 q 587 622 504 718 q 669 366 669 526 l 669 321 l 163 321 l 163 314 q 219 151 163 212 q 370 90 275 90 q 483 121 436 90 q 545 202 530 151 m 288 838 q 277 827 288 838 q 235 816 266 816 q 183 838 205 816 q 161 890 161 859 q 183 943 161 922 q 235 965 205 965 q 288 943 266 965 q 310 890 310 922 q 288 838 310 859 m 540 838 q 529 827 540 838 q 488 816 518 816 q 435 838 457 816 q 413 890 413 859 q 435 943 413 922 q 488 965 457 965 q 540 943 518 965 q 562 890 562 922 q 540 838 562 859 z "},"ì":{"ha":283,"x_min":-85,"x_max":201,"o":"m 83 0 l 83 705 l 201 705 l 201 0 l 83 0 m 185 807 l 82 807 l -85 1010 l 43 1010 l 185 807 z "},"í":{"ha":283,"x_min":83,"x_max":362,"o":"m 83 0 l 83 705 l 201 705 l 201 0 l 83 0 m 195 807 l 92 807 l 235 1010 l 362 1010 l 195 807 z "},"î":{"ha":283,"x_min":-88,"x_max":372,"o":"m 83 0 l 83 705 l 201 705 l 201 0 l 83 0 m 187 1010 l 372 807 l 261 807 l 144 937 l 140 937 l 22 807 l -88 807 l 96 1010 l 187 1010 z "},"ï":{"ha":283,"x_min":-59,"x_max":342,"o":"m 83 0 l 83 705 l 201 705 l 201 0 l 83 0 m 68 838 q 57 827 68 838 q 16 816 46 816 q -37 838 -15 816 q -59 890 -59 859 q -37 943 -59 922 q 16 965 -15 965 q 68 943 46 965 q 90 890 90 922 q 68 838 90 859 m 320 838 q 309 827 320 838 q 268 816 298 816 q 215 838 237 816 q 193 890 193 859 q 215 943 193 922 q 268 965 237 965 q 320 943 298 965 q 342 890 342 922 q 320 838 342 859 z "},"ð":{"ha":758,"x_min":55,"x_max":696,"o":"m 378 -12 q 142 82 229 -12 q 55 340 55 176 q 139 595 55 500 q 362 690 222 690 q 478 659 422 690 q 557 582 534 628 l 568 582 q 520 700 553 637 q 449 808 487 763 l 267 749 l 243 824 l 394 873 q 262 997 351 922 l 402 997 q 496 906 452 955 l 660 960 l 684 885 l 551 843 q 696 374 696 643 q 611 92 696 195 q 378 -12 526 -12 m 528 519 q 500 553 528 519 q 379 587 472 587 q 231 520 286 587 q 176 340 176 453 q 231 159 176 227 q 379 92 286 92 q 528 159 473 92 q 584 340 584 227 q 528 519 584 452 z "},"ñ":{"ha":732,"x_min":77,"x_max":659,"o":"m 77 0 l 77 705 l 188 705 l 188 593 l 191 593 q 278 685 221 652 q 414 718 335 718 q 594 648 530 718 q 659 458 659 578 l 659 0 l 541 0 l 541 437 q 500 568 541 523 q 378 613 459 613 q 245 559 295 613 q 195 415 195 505 l 195 0 l 77 0 m 459 812 q 401 829 429 812 q 357 864 374 845 q 320 899 340 883 q 282 916 300 916 q 245 890 258 916 q 234 819 232 865 l 154 819 q 189 947 154 901 q 283 992 224 992 q 333 982 309 992 q 372 956 356 971 q 403 925 389 941 q 432 900 417 910 q 460 889 446 889 q 494 914 481 889 q 507 986 507 939 l 587 986 q 551 859 587 906 q 459 812 515 812 z "},"ò":{"ha":737,"x_min":42,"x_max":695,"o":"m 369 -12 q 132 86 221 -12 q 42 353 42 185 q 132 619 42 520 q 369 718 221 718 q 606 619 516 718 q 695 353 695 520 q 606 87 695 186 q 369 -12 516 -12 m 218 161 q 246 126 218 161 q 369 92 274 92 q 519 160 464 92 q 575 353 575 229 q 519 545 575 476 q 369 614 464 614 q 218 545 274 614 q 162 353 162 475 q 218 161 162 230 m 412 807 l 309 807 l 142 1010 l 270 1010 l 412 807 z "},"ó":{"ha":737,"x_min":42,"x_max":695,"o":"m 369 -12 q 132 86 221 -12 q 42 353 42 185 q 132 619 42 520 q 369 718 221 718 q 606 619 516 718 q 695 353 695 520 q 606 87 695 186 q 369 -12 516 -12 m 218 161 q 246 126 218 161 q 369 92 274 92 q 519 160 464 92 q 575 353 575 229 q 519 545 575 476 q 369 614 464 614 q 218 545 274 614 q 162 353 162 475 q 218 161 162 230 m 422 807 l 319 807 l 462 1010 l 589 1010 l 422 807 z "},"ô":{"ha":737,"x_min":42,"x_max":695,"o":"m 369 -12 q 132 86 221 -12 q 42 353 42 185 q 132 619 42 520 q 369 718 221 718 q 606 619 516 718 q 695 353 695 520 q 606 87 695 186 q 369 -12 516 -12 m 218 161 q 246 126 218 161 q 369 92 274 92 q 519 160 464 92 q 575 353 575 229 q 519 545 575 476 q 369 614 464 614 q 218 545 274 614 q 162 353 162 475 q 218 161 162 230 m 414 1010 l 599 807 l 488 807 l 371 937 l 367 937 l 250 807 l 139 807 l 323 1010 l 414 1010 z "},"õ":{"ha":737,"x_min":42,"x_max":695,"o":"m 369 -12 q 132 86 221 -12 q 42 353 42 185 q 132 619 42 520 q 369 718 221 718 q 606 619 516 718 q 695 353 695 520 q 606 87 695 186 q 369 -12 516 -12 m 218 161 q 246 126 218 161 q 369 92 274 92 q 519 160 464 92 q 575 353 575 229 q 519 545 575 476 q 369 614 464 614 q 218 545 274 614 q 162 353 162 475 q 218 161 162 230 m 460 812 q 402 829 430 812 q 358 864 375 845 q 321 899 342 883 q 283 916 301 916 q 247 890 260 916 q 235 819 233 865 l 155 819 q 190 947 155 901 q 284 992 225 992 q 334 982 311 992 q 374 956 357 971 q 404 925 390 941 q 433 900 418 910 q 461 889 448 889 q 495 914 483 889 q 508 986 508 939 l 588 986 q 552 859 588 906 q 460 812 517 812 z "},"ö":{"ha":737,"x_min":42,"x_max":695,"o":"m 369 -12 q 132 86 221 -12 q 42 353 42 185 q 132 619 42 520 q 369 718 221 718 q 606 619 516 718 q 695 353 695 520 q 606 87 695 186 q 369 -12 516 -12 m 218 161 q 246 126 218 161 q 369 92 274 92 q 519 160 464 92 q 575 353 575 229 q 519 545 575 476 q 369 614 464 614 q 218 545 274 614 q 162 353 162 475 q 218 161 162 230 m 295 838 q 284 827 295 838 q 243 816 273 816 q 190 838 212 816 q 168 890 168 859 q 190 943 168 922 q 243 965 212 965 q 295 943 273 965 q 317 890 317 922 q 295 838 317 859 m 548 838 q 537 827 548 838 q 495 816 526 816 q 443 838 465 816 q 420 890 420 859 q 443 943 420 922 q 495 965 465 965 q 548 943 526 965 q 570 890 570 922 q 548 838 570 859 z "},"÷":{"ha":840,"x_min":75,"x_max":765,"o":"m 481 568 q 469 556 481 568 q 420 544 457 544 q 360 568 384 544 q 336 629 336 591 q 360 689 336 665 q 420 713 384 713 q 481 689 456 713 q 505 629 505 665 q 481 568 505 592 m 481 84 q 469 72 481 84 q 420 60 457 60 q 360 83 384 60 q 336 144 336 107 q 360 205 336 181 q 420 229 384 229 q 481 205 456 229 q 505 144 505 181 q 481 84 505 108 m 765 336 l 75 336 l 75 437 l 765 437 l 765 336 z "},"ø":{"ha":737,"x_min":42,"x_max":695,"o":"m 534 524 l 262 121 q 369 92 309 92 q 519 160 464 92 q 575 353 575 229 q 534 524 575 456 m 205 180 l 479 582 q 369 614 432 614 q 218 545 274 614 q 162 353 162 475 q 205 180 162 245 m 647 691 l 602 623 q 695 353 695 523 q 606 87 695 186 q 369 -12 516 -12 q 201 31 275 -12 l 163 -25 l 96 20 l 137 81 q 42 353 42 180 q 132 619 42 520 q 369 718 221 718 q 541 672 467 718 l 582 732 l 647 691 z "},"ù":{"ha":732,"x_min":73,"x_max":656,"o":"m 656 705 l 656 0 l 544 0 l 544 115 l 541 115 q 317 -12 475 -12 q 138 57 203 -12 q 73 248 73 127 l 73 705 l 191 705 l 191 269 q 354 92 191 92 q 489 146 439 92 q 538 291 538 200 l 538 705 l 656 705 m 408 807 l 304 807 l 138 1010 l 265 1010 l 408 807 z "},"ú":{"ha":732,"x_min":73,"x_max":656,"o":"m 656 705 l 656 0 l 544 0 l 544 115 l 541 115 q 317 -12 475 -12 q 138 57 203 -12 q 73 248 73 127 l 73 705 l 191 705 l 191 269 q 354 92 191 92 q 489 146 439 92 q 538 291 538 200 l 538 705 l 656 705 m 418 807 l 315 807 l 457 1010 l 585 1010 l 418 807 z "},"û":{"ha":732,"x_min":73,"x_max":656,"o":"m 656 705 l 656 0 l 544 0 l 544 115 l 541 115 q 317 -12 475 -12 q 138 57 203 -12 q 73 248 73 127 l 73 705 l 191 705 l 191 269 q 354 92 191 92 q 489 146 439 92 q 538 291 538 200 l 538 705 l 656 705 m 410 1010 l 594 807 l 484 807 l 366 937 l 362 937 l 245 807 l 134 807 l 319 1010 l 410 1010 z "},"ü":{"ha":732,"x_min":73,"x_max":656,"o":"m 656 705 l 656 0 l 544 0 l 544 115 l 541 115 q 317 -12 475 -12 q 138 57 203 -12 q 73 248 73 127 l 73 705 l 191 705 l 191 269 q 354 92 191 92 q 489 146 439 92 q 538 291 538 200 l 538 705 l 656 705 m 291 838 q 280 827 291 838 q 238 816 269 816 q 185 838 208 816 q 163 890 163 859 q 185 943 163 922 q 238 965 208 965 q 291 943 269 965 q 313 890 313 922 q 291 838 313 859 m 543 838 q 532 827 543 838 q 490 816 521 816 q 438 838 460 816 q 416 890 416 859 q 438 943 416 922 q 490 965 460 965 q 543 943 521 965 q 565 890 565 922 q 543 838 565 859 z "},"ý":{"ha":675,"x_min":16,"x_max":659,"o":"m 135 -264 q 84 -260 104 -264 l 84 -161 q 130 -164 100 -164 q 210 -138 180 -164 q 260 -50 239 -112 l 276 -1 l 16 705 l 142 705 l 337 118 l 339 118 l 534 705 l 659 705 l 381 -50 q 283 -218 336 -173 q 135 -264 231 -264 m 391 807 l 288 807 l 431 1010 l 558 1010 l 391 807 z "},"þ":{"ha":768,"x_min":83,"x_max":726,"o":"m 430 718 q 645 618 565 718 q 726 353 726 519 q 645 87 726 187 q 430 -12 564 -12 q 296 19 355 -12 q 210 106 238 50 l 199 106 l 199 -235 l 83 -235 l 83 979 l 195 979 l 195 587 l 205 587 q 298 683 239 648 q 430 718 358 718 m 401 92 q 551 161 497 92 q 605 353 605 231 q 551 544 605 475 q 401 614 497 614 q 252 544 307 614 q 197 353 197 473 q 252 162 197 233 q 401 92 307 92 z "},"ÿ":{"ha":675,"x_min":16,"x_max":659,"o":"m 135 -264 q 84 -260 104 -264 l 84 -161 q 130 -164 100 -164 q 210 -138 180 -164 q 260 -50 239 -112 l 276 -1 l 16 705 l 142 705 l 337 118 l 339 118 l 534 705 l 659 705 l 381 -50 q 283 -218 336 -173 q 135 -264 231 -264 m 264 838 q 253 827 264 838 q 212 816 242 816 q 159 838 181 816 q 137 890 137 859 q 159 943 137 922 q 212 965 181 965 q 264 943 242 965 q 286 890 286 922 q 264 838 286 859 m 516 838 q 505 827 516 838 q 464 816 494 816 q 411 838 433 816 q 389 890 389 859 q 411 943 389 922 q 464 965 433 965 q 516 943 494 965 q 538 890 538 922 q 516 838 538 859 z "},"Ā":{"ha":876,"x_min":17,"x_max":859,"o":"m 731 0 l 633 280 l 243 280 l 145 0 l 17 0 l 378 979 l 498 979 l 859 0 l 731 0 m 436 830 l 279 384 l 597 384 l 440 830 l 436 830 m 653 1187 l 653 1108 l 223 1108 l 223 1187 l 653 1187 z "},"ā":{"ha":697,"x_min":48,"x_max":624,"o":"m 309 88 q 449 140 393 88 q 506 268 506 192 l 506 326 l 317 314 q 207 279 246 309 q 168 199 168 250 q 207 119 168 149 q 309 88 245 88 m 283 -12 q 113 46 178 -12 q 48 199 48 104 q 115 345 48 290 q 304 406 182 399 l 506 417 l 506 476 q 465 577 506 541 q 351 614 425 614 q 242 584 284 614 q 189 502 200 555 l 75 502 q 156 657 81 596 q 354 718 232 718 q 551 655 478 718 q 624 488 624 593 l 624 0 l 512 0 l 512 121 l 509 121 q 416 24 477 61 q 283 -12 354 -12 m 541 929 l 541 850 l 151 850 l 151 929 l 541 929 z "},"Ă":{"ha":876,"x_min":17,"x_max":859,"o":"m 731 0 l 633 280 l 243 280 l 145 0 l 17 0 l 378 979 l 498 979 l 859 0 l 731 0 m 436 830 l 279 384 l 597 384 l 440 830 l 436 830 m 220 1253 l 307 1253 q 349 1157 313 1192 q 438 1122 385 1122 q 528 1157 492 1122 q 570 1253 564 1192 l 656 1253 q 590 1106 649 1166 q 438 1046 532 1046 q 286 1106 345 1046 q 220 1253 227 1166 z "},"ă":{"ha":697,"x_min":48,"x_max":624,"o":"m 309 88 q 449 140 393 88 q 506 268 506 192 l 506 326 l 317 314 q 207 279 246 309 q 168 199 168 250 q 207 119 168 149 q 309 88 245 88 m 283 -12 q 113 46 178 -12 q 48 199 48 104 q 115 345 48 290 q 304 406 182 399 l 506 417 l 506 476 q 465 577 506 541 q 351 614 425 614 q 242 584 284 614 q 189 502 200 555 l 75 502 q 156 657 81 596 q 354 718 232 718 q 551 655 478 718 q 624 488 624 593 l 624 0 l 512 0 l 512 121 l 509 121 q 416 24 477 61 q 283 -12 354 -12 m 127 1010 l 212 1010 q 250 911 212 949 q 345 873 287 873 q 441 911 404 873 q 478 1010 478 949 l 564 1010 q 504 859 564 917 q 345 800 445 800 q 186 859 245 800 q 127 1010 127 917 z "},"Ą":{"ha":876,"x_min":17,"x_max":859,"o":"m 436 830 l 279 384 l 597 384 l 440 830 l 436 830 m 849 -280 q 769 -292 826 -292 q 658 -256 702 -292 q 614 -164 614 -221 q 728 7 614 -65 l 633 280 l 243 280 l 145 0 l 17 0 l 378 979 l 498 979 l 859 2 l 852 -1 q 749 -66 785 -31 q 713 -138 713 -102 q 736 -187 713 -170 q 794 -204 759 -204 q 849 -198 820 -204 l 849 -280 z "},"ą":{"ha":697,"x_min":48,"x_max":624,"o":"m 309 88 q 449 140 393 88 q 506 268 506 192 l 506 324 l 317 313 q 207 278 246 308 q 168 199 168 249 q 207 119 168 149 q 309 88 245 88 m 621 -268 q 542 -279 597 -279 q 433 -245 476 -279 q 391 -156 391 -212 q 426 -56 391 -100 q 512 15 461 -13 l 512 121 l 509 121 q 416 24 477 61 q 283 -13 354 -13 q 113 46 178 -13 q 48 199 48 104 q 115 344 48 290 q 304 404 182 397 l 506 416 l 506 474 q 466 573 506 538 q 353 608 426 608 q 245 580 288 608 q 192 501 202 551 l 79 501 q 160 652 82 592 q 355 712 239 712 q 550 650 477 712 q 624 484 624 587 l 624 -1 l 618 -3 q 527 -57 565 -24 q 490 -129 490 -90 q 511 -177 490 -160 q 566 -194 532 -194 q 621 -188 591 -194 l 621 -268 z "},"Ć":{"ha":953,"x_min":57,"x_max":904,"o":"m 498 -16 q 176 120 295 -16 q 57 490 57 257 q 177 858 57 720 q 498 995 297 995 q 769 906 658 995 q 904 670 881 817 l 781 670 q 680 824 757 766 q 498 882 602 882 q 269 775 355 882 q 182 490 182 668 q 268 203 182 309 q 498 96 353 96 q 680 146 606 96 q 781 285 754 195 l 904 285 q 765 62 870 140 q 498 -16 660 -16 m 559 1059 l 454 1059 l 604 1255 l 735 1255 l 559 1059 z "},"ć":{"ha":696,"x_min":42,"x_max":664,"o":"m 663 474 l 547 474 q 487 574 534 535 q 367 614 441 614 q 218 543 275 614 q 162 353 162 472 q 219 161 162 231 q 368 92 275 92 q 486 127 439 92 q 548 227 532 163 l 664 227 q 569 55 650 121 q 368 -12 487 -12 q 131 86 220 -12 q 42 353 42 184 q 131 618 42 519 q 366 718 220 718 q 571 646 492 718 q 663 474 650 575 m 418 807 l 315 807 l 458 1010 l 585 1010 l 418 807 z "},"Ĉ":{"ha":953,"x_min":57,"x_max":904,"o":"m 498 -16 q 176 120 295 -16 q 57 490 57 257 q 177 858 57 720 q 498 995 297 995 q 769 906 658 995 q 904 670 881 817 l 781 670 q 680 824 757 766 q 498 882 602 882 q 269 775 355 882 q 182 490 182 668 q 268 203 182 309 q 498 96 353 96 q 680 146 606 96 q 781 285 754 195 l 904 285 q 765 62 870 140 q 498 -16 660 -16 m 452 1248 l 543 1248 l 735 1046 l 623 1046 l 500 1176 l 496 1176 l 373 1046 l 260 1046 l 452 1248 z "},"ĉ":{"ha":696,"x_min":42,"x_max":664,"o":"m 663 474 l 547 474 q 487 574 534 535 q 367 614 441 614 q 218 543 275 614 q 162 353 162 472 q 219 161 162 231 q 368 92 275 92 q 486 127 439 92 q 548 227 532 163 l 664 227 q 569 55 650 121 q 368 -12 487 -12 q 131 86 220 -12 q 42 353 42 184 q 131 618 42 519 q 366 718 220 718 q 571 646 492 718 q 663 474 650 575 m 410 1010 l 595 807 l 484 807 l 367 937 l 363 937 l 245 807 l 135 807 l 319 1010 l 410 1010 z "},"Ċ":{"ha":953,"x_min":57,"x_max":904,"o":"m 498 -16 q 176 120 295 -16 q 57 490 57 257 q 177 858 57 720 q 498 995 297 995 q 769 906 658 995 q 904 670 881 817 l 781 670 q 680 824 757 766 q 498 882 602 882 q 269 775 355 882 q 182 490 182 668 q 268 203 182 309 q 498 96 353 96 q 680 146 606 96 q 781 285 754 195 l 904 285 q 765 62 870 140 q 498 -16 660 -16 m 556 1100 q 544 1088 556 1100 q 498 1076 532 1076 q 440 1100 464 1076 q 416 1158 416 1124 q 440 1216 416 1192 q 498 1240 464 1240 q 556 1216 532 1240 q 580 1158 580 1192 q 556 1100 580 1124 z "},"ċ":{"ha":696,"x_min":42,"x_max":664,"o":"m 663 474 l 547 474 q 487 574 534 535 q 367 614 441 614 q 218 543 275 614 q 162 353 162 472 q 219 161 162 231 q 368 92 275 92 q 486 127 439 92 q 548 227 532 163 l 664 227 q 569 55 650 121 q 368 -12 487 -12 q 131 86 220 -12 q 42 353 42 184 q 131 618 42 519 q 366 718 220 718 q 571 646 492 718 q 663 474 650 575 m 424 839 q 412 827 424 839 q 365 814 399 814 q 306 839 330 814 q 281 899 281 864 q 306 958 281 933 q 365 983 330 983 q 424 958 399 983 q 449 899 449 933 q 424 839 449 864 z "},"Č":{"ha":953,"x_min":57,"x_max":904,"o":"m 498 -16 q 176 120 295 -16 q 57 490 57 257 q 177 858 57 720 q 498 995 297 995 q 769 906 658 995 q 904 670 881 817 l 781 670 q 680 824 757 766 q 498 882 602 882 q 269 775 355 882 q 182 490 182 668 q 268 203 182 309 q 498 96 353 96 q 680 146 606 96 q 781 285 754 195 l 904 285 q 765 62 870 140 q 498 -16 660 -16 m 452 1053 l 260 1255 l 373 1255 l 496 1124 l 500 1124 l 623 1255 l 735 1255 l 543 1053 l 452 1053 z "},"č":{"ha":696,"x_min":42,"x_max":664,"o":"m 663 474 l 547 474 q 487 574 534 535 q 367 614 441 614 q 218 543 275 614 q 162 353 162 472 q 219 161 162 231 q 368 92 275 92 q 486 127 439 92 q 548 227 532 163 l 664 227 q 569 55 650 121 q 368 -12 487 -12 q 131 86 220 -12 q 42 353 42 184 q 131 618 42 519 q 366 718 220 718 q 571 646 492 718 q 663 474 650 575 m 410 807 l 319 807 l 135 1010 l 245 1010 l 363 878 l 367 878 l 484 1010 l 595 1010 l 410 807 z "},"Ď":{"ha":942,"x_min":95,"x_max":886,"o":"m 95 979 l 424 979 q 764 849 642 979 q 886 490 886 720 q 764 129 886 258 q 424 0 642 0 l 95 0 l 95 979 m 217 869 l 217 110 l 416 110 q 671 208 582 110 q 761 488 761 306 q 672 770 761 672 q 416 869 583 869 l 217 869 m 328 1051 l 136 1253 l 248 1253 l 371 1123 l 375 1123 l 498 1253 l 610 1253 l 418 1051 l 328 1051 z "},"ď":{"ha":873,"x_min":42,"x_max":880,"o":"m 785 979 l 880 979 l 859 659 l 785 659 l 785 979 m 344 -12 q 125 87 208 -12 q 42 353 42 187 q 125 617 42 517 q 341 718 208 718 q 475 684 416 718 q 566 591 534 650 l 568 591 l 568 979 l 686 979 l 686 0 l 574 0 l 574 119 l 572 119 q 478 23 537 58 q 344 -12 419 -12 m 366 614 q 218 543 273 614 q 163 353 163 472 q 218 162 163 233 q 366 92 273 92 q 513 163 458 92 q 569 353 569 235 q 513 542 569 471 q 366 614 457 614 z "},"Đ":{"ha":951,"x_min":16,"x_max":895,"o":"m 226 110 l 425 110 q 680 208 591 110 q 770 488 770 306 q 681 770 770 672 q 425 869 591 869 l 226 869 l 226 560 l 414 560 l 414 450 l 226 450 l 226 110 m 104 979 l 433 979 q 772 849 650 979 q 895 490 895 720 q 773 129 895 258 q 433 0 651 0 l 104 0 l 104 450 l 16 450 l 16 560 l 104 560 l 104 979 z "},"đ":{"ha":781,"x_min":42,"x_max":772,"o":"m 366 98 q 513 168 457 98 q 569 353 569 238 q 513 537 569 467 q 366 608 457 608 q 219 538 275 608 q 163 353 163 468 q 219 167 163 237 q 366 98 275 98 m 772 909 l 772 827 l 686 827 l 686 0 l 574 0 l 574 119 l 572 119 q 479 26 538 58 q 344 -7 420 -7 q 126 93 210 -7 q 42 353 42 192 q 125 613 42 513 q 341 712 209 712 q 475 681 417 712 q 566 591 534 649 l 568 591 l 568 827 l 406 827 l 406 909 l 568 909 l 568 979 l 686 979 l 686 909 l 772 909 z "},"Ē":{"ha":767,"x_min":95,"x_max":701,"o":"m 701 110 l 701 0 l 95 0 l 95 979 l 701 979 l 701 869 l 217 869 l 217 555 l 676 555 l 676 446 l 217 446 l 217 110 l 701 110 m 613 1187 l 613 1108 l 183 1108 l 183 1187 l 613 1187 z "},"ē":{"ha":711,"x_min":42,"x_max":669,"o":"m 359 615 q 223 558 277 615 q 164 413 170 502 l 547 413 q 494 559 545 503 q 359 615 442 615 m 545 202 l 661 202 q 563 48 645 109 q 367 -12 481 -12 q 129 85 216 -12 q 42 350 42 183 q 129 616 42 515 q 361 718 216 718 q 587 622 504 718 q 669 366 669 526 l 669 321 l 163 321 l 163 314 q 219 151 163 212 q 370 90 275 90 q 483 121 436 90 q 545 202 530 151 m 556 929 l 556 850 l 167 850 l 167 929 l 556 929 z "},"Ĕ":{"ha":767,"x_min":95,"x_max":701,"o":"m 701 110 l 701 0 l 95 0 l 95 979 l 701 979 l 701 869 l 217 869 l 217 555 l 676 555 l 676 446 l 217 446 l 217 110 l 701 110 m 180 1253 l 267 1253 q 309 1157 273 1192 q 398 1122 345 1122 q 488 1157 452 1122 q 530 1253 524 1192 l 616 1253 q 550 1106 609 1166 q 398 1046 492 1046 q 246 1106 304 1046 q 180 1253 187 1166 z "},"ĕ":{"ha":711,"x_min":42,"x_max":669,"o":"m 359 615 q 223 558 277 615 q 164 413 170 502 l 547 413 q 494 559 545 503 q 359 615 442 615 m 545 202 l 661 202 q 563 48 645 109 q 367 -12 481 -12 q 129 85 216 -12 q 42 350 42 183 q 129 616 42 515 q 361 718 216 718 q 587 622 504 718 q 669 366 669 526 l 669 321 l 163 321 l 163 314 q 219 151 163 212 q 370 90 275 90 q 483 121 436 90 q 545 202 530 151 m 142 1010 l 228 1010 q 265 911 228 949 q 361 873 302 873 q 456 911 419 873 q 494 1010 494 949 l 579 1010 q 520 859 579 917 q 361 800 460 800 q 202 859 261 800 q 142 1010 142 917 z "},"Ė":{"ha":767,"x_min":95,"x_max":701,"o":"m 701 110 l 701 0 l 95 0 l 95 979 l 701 979 l 701 869 l 217 869 l 217 555 l 676 555 l 676 446 l 217 446 l 217 110 l 701 110 m 456 1099 q 444 1087 456 1099 q 398 1075 432 1075 q 340 1099 364 1075 q 316 1157 316 1123 q 340 1215 316 1191 q 398 1239 364 1239 q 456 1215 432 1239 q 480 1157 480 1191 q 456 1099 480 1123 z "},"ė":{"ha":711,"x_min":42,"x_max":669,"o":"m 359 615 q 223 558 277 615 q 164 413 170 502 l 547 413 q 494 559 545 503 q 359 615 442 615 m 545 202 l 661 202 q 563 48 645 109 q 367 -12 481 -12 q 129 85 216 -12 q 42 350 42 183 q 129 616 42 515 q 361 718 216 718 q 587 622 504 718 q 669 366 669 526 l 669 321 l 163 321 l 163 314 q 219 151 163 212 q 370 90 275 90 q 483 121 436 90 q 545 202 530 151 m 421 839 q 408 827 421 839 q 361 814 396 814 q 302 839 327 814 q 277 899 277 864 q 302 958 277 933 q 361 983 327 983 q 421 958 396 983 q 446 899 446 933 q 421 839 446 864 z "},"Ę":{"ha":767,"x_min":95,"x_max":701,"o":"m 95 0 l 95 979 l 701 979 l 701 869 l 217 869 l 217 555 l 676 555 l 676 446 l 217 446 l 217 110 l 701 110 l 701 9 l 688 4 q 577 -63 616 -24 q 537 -138 537 -102 q 560 -187 537 -170 q 618 -204 583 -204 q 673 -198 644 -204 l 673 -280 q 593 -292 650 -292 q 482 -256 526 -292 q 438 -164 438 -221 q 536 -3 438 -77 l 536 0 l 95 0 z "},"ę":{"ha":711,"x_min":42,"x_max":669,"o":"m 479 -279 q 370 -245 413 -279 q 327 -157 327 -212 q 414 -10 327 -78 l 414 -7 q 367 -12 396 -12 q 129 85 216 -12 q 42 350 42 183 q 129 616 42 515 q 361 718 216 718 q 587 622 504 718 q 669 366 669 526 l 669 321 l 163 321 l 163 314 q 219 151 163 212 q 370 90 275 90 q 483 121 436 90 q 545 202 530 151 l 661 202 q 616 102 650 145 q 528 16 582 58 q 425 -129 425 -64 q 447 -177 425 -160 q 503 -194 469 -194 q 557 -188 528 -194 l 557 -268 q 479 -279 534 -279 m 359 615 q 223 558 277 615 q 164 413 170 502 l 547 413 q 494 559 545 503 q 359 615 442 615 z "},"Ě":{"ha":767,"x_min":95,"x_max":701,"o":"m 701 110 l 701 0 l 95 0 l 95 979 l 701 979 l 701 869 l 217 869 l 217 555 l 676 555 l 676 446 l 217 446 l 217 110 l 701 110 m 353 1051 l 161 1253 l 273 1253 l 396 1123 l 400 1123 l 523 1253 l 635 1253 l 444 1051 l 353 1051 z "},"ě":{"ha":711,"x_min":42,"x_max":669,"o":"m 359 615 q 223 558 277 615 q 164 413 170 502 l 547 413 q 494 559 545 503 q 359 615 442 615 m 545 202 l 661 202 q 563 48 645 109 q 367 -12 481 -12 q 129 85 216 -12 q 42 350 42 183 q 129 616 42 515 q 361 718 216 718 q 587 622 504 718 q 669 366 669 526 l 669 321 l 163 321 l 163 314 q 219 151 163 212 q 370 90 275 90 q 483 121 436 90 q 545 202 530 151 m 407 807 l 316 807 l 132 1010 l 242 1010 l 359 878 l 363 878 l 481 1010 l 591 1010 l 407 807 z "},"Ĝ":{"ha":981,"x_min":57,"x_max":920,"o":"m 920 405 q 811 95 920 206 q 505 -16 701 -16 q 179 122 300 -16 q 57 494 57 261 q 178 859 57 724 q 505 995 300 995 q 775 908 664 995 q 914 675 887 821 l 786 675 q 682 828 755 774 q 505 882 608 882 q 268 780 354 882 q 182 495 182 677 q 269 203 182 311 q 505 96 356 96 q 717 173 635 96 q 798 373 798 250 l 798 391 l 522 391 l 522 498 l 920 498 l 920 405 m 460 1246 l 551 1246 l 743 1044 l 630 1044 l 507 1175 l 503 1175 l 380 1044 l 268 1044 l 460 1246 z "},"ĝ":{"ha":763,"x_min":42,"x_max":686,"o":"m 363 98 q 512 169 456 98 q 568 355 568 239 q 512 543 568 472 q 363 614 456 614 q 217 544 272 614 q 163 355 163 473 q 217 168 163 237 q 363 98 272 98 m 368 -266 q 168 -207 252 -266 q 70 -58 85 -149 l 191 -58 q 258 -136 209 -107 q 372 -165 307 -165 q 516 -117 463 -165 q 568 10 568 -69 l 568 121 l 566 121 q 473 29 532 63 q 340 -5 413 -5 q 123 93 205 -5 q 42 355 42 191 q 124 619 42 521 q 342 718 205 718 q 477 683 417 718 q 572 587 536 648 l 574 587 l 574 705 l 686 705 l 686 14 q 600 -189 686 -113 q 368 -266 513 -266 m 410 1010 l 595 807 l 484 807 l 367 937 l 363 937 l 245 807 l 135 807 l 319 1010 l 410 1010 z "},"Ğ":{"ha":981,"x_min":57,"x_max":920,"o":"m 920 405 q 811 95 920 206 q 505 -16 701 -16 q 179 122 300 -16 q 57 494 57 261 q 178 859 57 724 q 505 995 300 995 q 775 908 664 995 q 914 675 887 821 l 786 675 q 682 828 755 774 q 505 882 608 882 q 268 780 354 882 q 182 495 182 677 q 269 203 182 311 q 505 96 356 96 q 717 173 635 96 q 798 373 798 250 l 798 391 l 522 391 l 522 498 l 920 498 l 920 405 m 288 1253 l 374 1253 q 416 1157 380 1192 q 505 1122 452 1122 q 595 1157 559 1122 q 637 1253 631 1192 l 723 1253 q 657 1106 716 1166 q 505 1046 599 1046 q 353 1106 412 1046 q 288 1253 294 1166 z "},"ğ":{"ha":763,"x_min":42,"x_max":686,"o":"m 363 98 q 512 169 456 98 q 568 355 568 239 q 512 543 568 472 q 363 614 456 614 q 217 544 272 614 q 163 355 163 473 q 217 168 163 237 q 363 98 272 98 m 368 -266 q 168 -207 252 -266 q 70 -58 85 -149 l 191 -58 q 258 -136 209 -107 q 372 -165 307 -165 q 516 -117 463 -165 q 568 10 568 -69 l 568 121 l 566 121 q 473 29 532 63 q 340 -5 413 -5 q 123 93 205 -5 q 42 355 42 191 q 124 619 42 521 q 342 718 205 718 q 477 683 417 718 q 572 587 536 648 l 574 587 l 574 705 l 686 705 l 686 14 q 600 -189 686 -113 q 368 -266 513 -266 m 146 1010 l 231 1010 q 269 911 231 949 q 364 873 306 873 q 460 911 422 873 q 497 1010 497 949 l 583 1010 q 523 859 583 917 q 364 800 464 800 q 205 859 264 800 q 146 1010 146 917 z "},"Ġ":{"ha":981,"x_min":57,"x_max":920,"o":"m 920 405 q 811 95 920 206 q 505 -16 701 -16 q 179 122 300 -16 q 57 494 57 261 q 178 859 57 724 q 505 995 300 995 q 775 908 664 995 q 914 675 887 821 l 786 675 q 682 828 755 774 q 505 882 608 882 q 268 780 354 882 q 182 495 182 677 q 269 203 182 311 q 505 96 356 96 q 717 173 635 96 q 798 373 798 250 l 798 391 l 522 391 l 522 498 l 920 498 l 920 405 m 563 1099 q 551 1087 563 1099 q 505 1075 539 1075 q 447 1099 471 1075 q 423 1157 423 1123 q 447 1215 423 1191 q 505 1239 471 1239 q 563 1215 539 1239 q 587 1157 587 1191 q 563 1099 587 1123 z "},"ġ":{"ha":763,"x_min":42,"x_max":686,"o":"m 363 98 q 512 169 456 98 q 568 355 568 239 q 512 543 568 472 q 363 614 456 614 q 217 544 272 614 q 163 355 163 473 q 217 168 163 237 q 363 98 272 98 m 368 -266 q 168 -207 252 -266 q 70 -58 85 -149 l 191 -58 q 258 -136 209 -107 q 372 -165 307 -165 q 516 -117 463 -165 q 568 10 568 -69 l 568 121 l 566 121 q 473 29 532 63 q 340 -5 413 -5 q 123 93 205 -5 q 42 355 42 191 q 124 619 42 521 q 342 718 205 718 q 477 683 417 718 q 572 587 536 648 l 574 587 l 574 705 l 686 705 l 686 14 q 600 -189 686 -113 q 368 -266 513 -266 m 424 839 q 412 827 424 839 q 365 814 399 814 q 306 839 330 814 q 281 899 281 864 q 306 958 281 933 q 365 983 330 983 q 424 958 399 983 q 449 899 449 933 q 424 839 449 864 z "},"Ģ":{"ha":981,"x_min":57,"x_max":920,"o":"m 920 405 q 811 95 920 206 q 505 -16 701 -16 q 179 122 300 -16 q 57 494 57 261 q 178 859 57 724 q 505 995 300 995 q 775 908 664 995 q 914 675 887 821 l 786 675 q 682 828 755 774 q 505 882 608 882 q 268 780 354 882 q 182 495 182 677 q 269 203 182 311 q 505 96 356 96 q 717 173 635 96 q 798 373 798 250 l 798 391 l 522 391 l 522 498 l 920 498 l 920 405 m 486 -330 l 401 -330 l 474 -86 l 577 -86 l 486 -330 z "},"ģ":{"ha":763,"x_min":42,"x_max":686,"o":"m 363 98 q 512 169 456 98 q 568 355 568 239 q 512 543 568 472 q 363 614 456 614 q 217 544 272 614 q 163 355 163 473 q 217 168 163 237 q 363 98 272 98 m 368 -266 q 168 -207 252 -266 q 70 -58 85 -149 l 191 -58 q 258 -136 209 -107 q 372 -165 307 -165 q 516 -117 463 -165 q 568 10 568 -69 l 568 121 l 566 121 q 473 29 532 63 q 340 -5 413 -5 q 123 93 205 -5 q 42 355 42 191 q 124 619 42 521 q 342 718 205 718 q 477 683 417 718 q 572 587 536 648 l 574 587 l 574 705 l 686 705 l 686 14 q 600 -189 686 -113 q 368 -266 513 -266 m 384 1035 l 469 1035 l 396 791 l 293 791 l 384 1035 z "},"Ĥ":{"ha":971,"x_min":95,"x_max":876,"o":"m 876 0 l 754 0 l 754 446 l 217 446 l 217 0 l 95 0 l 95 979 l 217 979 l 217 555 l 754 555 l 754 979 l 876 979 l 876 0 m 440 1246 l 531 1246 l 723 1044 l 610 1044 l 488 1175 l 484 1175 l 361 1044 l 248 1044 l 440 1246 z "},"ĥ":{"ha":749,"x_min":-95,"x_max":675,"o":"m 83 0 l 83 979 l 201 979 l 201 593 l 203 593 q 291 685 233 652 q 427 718 348 718 q 609 646 543 718 q 675 456 675 575 l 675 0 l 557 0 l 557 434 q 515 566 557 519 q 391 613 473 613 q 252 558 303 613 q 201 411 201 503 l 201 0 l 83 0 m 97 1246 l 188 1246 l 380 1044 l 267 1044 l 144 1175 l 140 1175 l 18 1044 l -95 1044 l 97 1246 z "},"Ħ":{"ha":971,"x_min":3,"x_max":968,"o":"m 754 555 l 754 729 l 217 729 l 217 555 l 754 555 m 968 826 l 968 729 l 876 729 l 876 0 l 754 0 l 754 446 l 217 446 l 217 0 l 95 0 l 95 729 l 3 729 l 3 826 l 95 826 l 95 979 l 217 979 l 217 826 l 754 826 l 754 979 l 876 979 l 876 826 l 968 826 z "},"ħ":{"ha":749,"x_min":9,"x_max":675,"o":"m 201 593 l 203 593 q 291 685 233 652 q 427 718 348 718 q 609 646 543 718 q 675 456 675 575 l 675 0 l 557 0 l 557 434 q 515 566 557 519 q 391 613 473 613 q 252 558 303 613 q 201 411 201 503 l 201 0 l 83 0 l 83 827 l 9 827 l 9 909 l 83 909 l 83 979 l 201 979 l 201 909 l 374 909 l 374 827 l 201 827 l 201 593 z "},"Ĩ":{"ha":312,"x_min":-60,"x_max":372,"o":"m 217 0 l 95 0 l 95 979 l 217 979 l 217 0 m 245 1072 q 187 1088 214 1072 q 143 1123 159 1104 q 106 1158 126 1142 q 68 1175 85 1175 q 31 1149 44 1175 q 20 1078 18 1124 l -60 1078 q -25 1206 -60 1160 q 68 1251 9 1251 q 118 1241 95 1251 q 158 1215 142 1230 q 189 1184 174 1200 q 217 1159 203 1169 q 245 1148 232 1148 q 280 1173 267 1148 q 292 1245 292 1198 l 372 1245 q 337 1118 372 1165 q 245 1072 301 1072 z "},"ĩ":{"ha":283,"x_min":-72,"x_max":361,"o":"m 83 0 l 83 705 l 201 705 l 201 0 l 83 0 m 233 812 q 175 829 203 812 q 131 864 148 845 q 94 899 115 883 q 56 916 74 916 q 19 890 33 916 q 8 819 6 865 l -72 819 q -37 947 -72 901 q 57 992 -2 992 q 107 982 83 992 q 146 956 130 971 q 177 925 163 941 q 206 900 191 910 q 234 889 220 889 q 268 914 256 889 q 281 986 281 939 l 361 986 q 325 859 361 906 q 233 812 290 812 z "},"Ī":{"ha":312,"x_min":-59,"x_max":371,"o":"m 217 0 l 95 0 l 95 979 l 217 979 l 217 0 m 371 1187 l 371 1108 l -59 1108 l -59 1187 l 371 1187 z "},"ī":{"ha":283,"x_min":-24,"x_max":307,"o":"m 83 0 l 83 705 l 201 705 l 201 0 l 83 0 m 307 929 l 307 850 l -24 850 l -24 929 l 307 929 z "},"Ĭ":{"ha":312,"x_min":-62,"x_max":374,"o":"m 217 0 l 95 0 l 95 979 l 217 979 l 217 0 m -62 1253 l 24 1253 q 66 1157 31 1192 q 156 1122 102 1122 q 245 1157 210 1122 q 288 1253 281 1192 l 374 1253 q 308 1106 367 1166 q 156 1046 250 1046 q 4 1106 62 1046 q -62 1253 -55 1166 z "},"ĭ":{"ha":283,"x_min":-77,"x_max":359,"o":"m 83 0 l 83 705 l 201 705 l 201 0 l 83 0 m -77 1010 l 8 1010 q 45 911 8 949 q 141 873 83 873 q 237 911 199 873 q 274 1010 274 949 l 359 1010 q 300 859 359 917 q 141 800 241 800 q -18 859 41 800 q -77 1010 -77 917 z "},"Į":{"ha":312,"x_min":1,"x_max":236,"o":"m 95 -3 l 95 979 l 217 979 l 217 3 l 213 0 q 100 -138 100 -75 q 123 -187 100 -170 q 181 -204 146 -204 q 236 -198 207 -204 l 236 -280 q 156 -292 213 -292 q 45 -256 89 -292 q 1 -164 1 -221 q 95 -3 1 -77 z "},"į":{"ha":283,"x_min":-8,"x_max":222,"o":"m 142 817 q 90 839 112 817 q 68 890 68 861 q 90 942 68 921 q 142 964 112 964 q 194 942 172 964 q 216 890 216 921 q 194 839 216 861 q 142 817 172 817 m 83 -3 l 83 705 l 201 705 l 201 5 l 193 0 q 114 -65 138 -37 q 90 -130 90 -94 q 112 -178 90 -161 q 168 -194 134 -194 q 222 -188 193 -194 l 222 -268 q 144 -279 199 -279 q 35 -245 78 -279 q -8 -156 -8 -211 q 15 -76 -8 -116 q 83 -3 38 -35 z "},"İ":{"ha":312,"x_min":74,"x_max":238,"o":"m 217 0 l 95 0 l 95 979 l 217 979 l 217 0 m 214 1099 q 202 1087 214 1099 q 156 1075 190 1075 q 98 1099 122 1075 q 74 1157 74 1123 q 98 1215 74 1191 q 156 1239 122 1239 q 214 1215 190 1239 q 238 1157 238 1191 q 214 1099 238 1123 z "},"ı":{"ha":283,"x_min":83,"x_max":201,"o":"m 83 0 l 83 705 l 201 705 l 201 0 l 83 0 z "},"Ĳ":{"ha":1000,"x_min":95,"x_max":905,"o":"m 217 0 l 95 0 l 95 979 l 217 979 l 217 0 m 340 230 l 462 230 q 507 129 464 168 q 616 90 550 90 q 740 137 697 90 q 783 273 783 184 l 783 979 l 905 979 l 905 273 q 829 55 905 134 q 617 -23 753 -23 q 418 48 495 -23 q 340 230 340 119 z "},"ĳ":{"ha":583,"x_min":68,"x_max":507,"o":"m 83 0 l 83 705 l 201 705 l 201 0 l 83 0 m 142 824 q 90 846 112 824 q 68 897 68 867 q 90 949 68 928 q 142 970 112 970 q 194 949 172 970 q 216 897 216 928 q 194 846 216 867 q 142 824 172 824 m 492 705 l 492 -35 q 439 -192 492 -142 q 274 -243 387 -243 q 252 -242 253 -243 l 252 -144 l 270 -144 q 351 -119 328 -144 q 374 -36 374 -95 l 374 705 l 492 705 m 433 824 q 382 846 404 824 q 360 897 360 867 q 382 949 360 928 q 433 970 404 970 q 486 949 464 970 q 507 897 507 928 q 486 846 507 867 q 433 824 464 824 z "},"Ĵ":{"ha":688,"x_min":28,"x_max":769,"o":"m 28 230 l 150 230 q 195 129 152 168 q 304 90 238 90 q 428 137 385 90 q 471 273 471 184 l 471 979 l 593 979 l 593 273 q 517 55 593 134 q 305 -23 441 -23 q 106 48 183 -23 q 28 230 28 119 m 486 1246 l 577 1246 l 769 1044 l 656 1044 l 534 1175 l 530 1175 l 407 1044 l 294 1044 l 486 1246 z "},"ĵ":{"ha":283,"x_min":-89,"x_max":371,"o":"m 201 705 l 201 -35 q 148 -192 201 -142 q -18 -243 95 -243 q -40 -242 -39 -243 l -40 -144 l -22 -144 q 59 -119 36 -144 q 83 -36 83 -95 l 83 705 l 201 705 m 186 1010 l 371 807 l 260 807 l 143 937 l 139 937 l 22 807 l -89 807 l 96 1010 l 186 1010 z "},"Ķ":{"ha":854,"x_min":95,"x_max":846,"o":"m 217 0 l 95 0 l 95 979 l 217 979 l 217 501 l 224 501 l 656 979 l 810 979 l 408 545 l 846 0 l 690 0 l 323 458 l 217 342 l 217 0 m 394 -330 l 309 -330 l 382 -86 l 485 -86 l 394 -330 z "},"ķ":{"ha":674,"x_min":83,"x_max":665,"o":"m 201 392 l 513 705 l 656 705 l 350 401 l 665 0 l 528 0 l 267 328 l 201 266 l 201 0 l 83 0 l 83 979 l 201 979 l 201 392 m 345 -330 l 260 -330 l 333 -86 l 436 -86 l 345 -330 z "},"Ĺ":{"ha":728,"x_min":95,"x_max":689,"o":"m 689 110 l 689 0 l 95 0 l 95 979 l 217 979 l 217 110 l 689 110 m 217 1058 l 113 1058 l 262 1254 l 393 1254 l 217 1058 z "},"ĺ":{"ha":283,"x_min":83,"x_max":379,"o":"m 83 0 l 83 979 l 201 979 l 201 0 l 83 0 m 203 1058 l 98 1058 l 248 1254 l 379 1254 l 203 1058 z "},"Ļ":{"ha":728,"x_min":95,"x_max":689,"o":"m 689 110 l 689 0 l 95 0 l 95 979 l 217 979 l 217 110 l 689 110 m 373 -330 l 288 -330 l 361 -86 l 464 -86 l 373 -330 z "},"ļ":{"ha":283,"x_min":37,"x_max":214,"o":"m 83 0 l 83 979 l 201 979 l 201 0 l 83 0 m 123 -330 l 37 -330 l 111 -86 l 214 -86 l 123 -330 z "},"Ľ":{"ha":728,"x_min":95,"x_max":689,"o":"m 399 979 l 515 979 l 481 648 l 399 648 l 399 979 m 689 110 l 689 0 l 95 0 l 95 979 l 217 979 l 217 110 l 689 110 z "},"ľ":{"ha":387,"x_min":83,"x_max":394,"o":"m 300 984 l 394 984 l 374 665 l 300 665 l 300 984 m 83 0 l 83 979 l 201 979 l 201 0 l 83 0 z "},"Ł":{"ha":728,"x_min":12,"x_max":689,"o":"m 217 110 l 689 110 l 689 0 l 95 0 l 95 474 l 12 436 l 12 533 l 95 571 l 95 979 l 217 979 l 217 627 l 445 730 l 445 633 l 217 530 l 217 110 z "},"ł":{"ha":301,"x_min":9,"x_max":292,"o":"m 292 652 l 292 557 l 210 517 l 210 0 l 92 0 l 92 460 l 9 420 l 9 516 l 92 555 l 92 979 l 210 979 l 210 613 l 292 652 z "},"Ń":{"ha":971,"x_min":95,"x_max":876,"o":"m 216 0 l 95 0 l 95 979 l 214 979 l 749 210 l 755 210 l 755 979 l 876 979 l 876 0 l 758 0 l 222 766 l 216 766 l 216 0 m 547 1058 l 442 1058 l 591 1254 l 723 1254 l 547 1058 z "},"ń":{"ha":732,"x_min":77,"x_max":659,"o":"m 77 0 l 77 705 l 188 705 l 188 593 l 191 593 q 278 685 221 652 q 414 718 335 718 q 594 648 530 718 q 659 458 659 578 l 659 0 l 541 0 l 541 437 q 500 568 541 523 q 378 613 459 613 q 245 559 295 613 q 195 415 195 505 l 195 0 l 77 0 m 421 807 l 318 807 l 460 1010 l 588 1010 l 421 807 z "},"Ņ":{"ha":971,"x_min":95,"x_max":876,"o":"m 216 0 l 95 0 l 95 979 l 214 979 l 749 210 l 755 210 l 755 979 l 876 979 l 876 0 l 758 0 l 222 766 l 216 766 l 216 0 m 467 -330 l 381 -330 l 454 -86 l 557 -86 l 467 -330 z "},"ņ":{"ha":732,"x_min":77,"x_max":659,"o":"m 77 0 l 77 705 l 188 705 l 188 593 l 191 593 q 278 685 221 652 q 414 718 335 718 q 594 648 530 718 q 659 458 659 578 l 659 0 l 541 0 l 541 437 q 500 568 541 523 q 378 613 459 613 q 245 559 295 613 q 195 415 195 505 l 195 0 l 77 0 m 355 -330 l 269 -330 l 342 -86 l 446 -86 l 355 -330 z "},"Ň":{"ha":971,"x_min":95,"x_max":876,"o":"m 216 0 l 95 0 l 95 979 l 214 979 l 749 210 l 755 210 l 755 979 l 876 979 l 876 0 l 758 0 l 222 766 l 216 766 l 216 0 m 440 1051 l 248 1253 l 361 1253 l 484 1123 l 488 1123 l 610 1253 l 723 1253 l 531 1051 l 440 1051 z "},"ň":{"ha":732,"x_min":77,"x_max":659,"o":"m 77 0 l 77 705 l 188 705 l 188 593 l 191 593 q 278 685 221 652 q 414 718 335 718 q 594 648 530 718 q 659 458 659 578 l 659 0 l 541 0 l 541 437 q 500 568 541 523 q 378 613 459 613 q 245 559 295 613 q 195 415 195 505 l 195 0 l 77 0 m 413 807 l 322 807 l 138 1010 l 248 1010 l 366 878 l 370 878 l 487 1010 l 597 1010 l 413 807 z "},"Ō":{"ha":1016,"x_min":57,"x_max":959,"o":"m 178 859 q 239 927 178 859 q 508 995 300 995 q 838 859 716 995 q 959 489 959 722 q 838 120 959 256 q 508 -16 716 -16 q 178 120 300 -16 q 57 489 57 256 q 178 859 57 722 m 746 776 q 702 829 746 776 q 508 882 658 882 q 270 776 358 882 q 182 489 182 670 q 270 202 182 309 q 508 96 358 96 q 746 202 658 96 q 833 489 833 309 q 746 776 833 670 m 723 1187 l 723 1108 l 293 1108 l 293 1187 l 723 1187 z "},"ō":{"ha":737,"x_min":42,"x_max":695,"o":"m 369 -12 q 132 86 221 -12 q 42 353 42 185 q 132 619 42 520 q 369 718 221 718 q 606 619 516 718 q 695 353 695 520 q 606 87 695 186 q 369 -12 516 -12 m 218 161 q 246 126 218 161 q 369 92 274 92 q 519 160 464 92 q 575 353 575 229 q 519 545 575 476 q 369 614 464 614 q 218 545 274 614 q 162 353 162 475 q 218 161 162 230 m 564 929 l 564 850 l 174 850 l 174 929 l 564 929 z "},"Ŏ":{"ha":1016,"x_min":57,"x_max":959,"o":"m 178 859 q 239 927 178 859 q 508 995 300 995 q 838 859 716 995 q 959 489 959 722 q 838 120 959 256 q 508 -16 716 -16 q 178 120 300 -16 q 57 489 57 256 q 178 859 57 722 m 746 776 q 702 829 746 776 q 508 882 658 882 q 270 776 358 882 q 182 489 182 670 q 270 202 182 309 q 508 96 358 96 q 746 202 658 96 q 833 489 833 309 q 746 776 833 670 m 290 1253 l 376 1253 q 418 1157 382 1192 q 508 1122 454 1122 q 597 1157 562 1122 q 640 1253 633 1192 l 726 1253 q 660 1106 719 1166 q 508 1046 602 1046 q 356 1106 414 1046 q 290 1253 297 1166 z "},"ŏ":{"ha":737,"x_min":42,"x_max":695,"o":"m 369 -12 q 132 86 221 -12 q 42 353 42 185 q 132 619 42 520 q 369 718 221 718 q 606 619 516 718 q 695 353 695 520 q 606 87 695 186 q 369 -12 516 -12 m 218 161 q 246 126 218 161 q 369 92 274 92 q 519 160 464 92 q 575 353 575 229 q 519 545 575 476 q 369 614 464 614 q 218 545 274 614 q 162 353 162 475 q 218 161 162 230 m 150 1010 l 235 1010 q 273 911 235 949 q 368 873 310 873 q 464 911 427 873 q 501 1010 501 949 l 587 1010 q 527 859 587 917 q 368 800 468 800 q 209 859 269 800 q 150 1010 150 917 z "},"Ő":{"ha":1016,"x_min":57,"x_max":959,"o":"m 178 859 q 239 927 178 859 q 508 995 300 995 q 838 859 716 995 q 959 489 959 722 q 838 120 959 256 q 508 -16 716 -16 q 178 120 300 -16 q 57 489 57 256 q 178 859 57 722 m 746 776 q 702 829 746 776 q 508 882 658 882 q 270 776 358 882 q 182 489 182 670 q 270 202 182 309 q 508 96 358 96 q 746 202 658 96 q 833 489 833 309 q 746 776 833 670 m 677 1058 l 573 1058 l 722 1254 l 854 1254 l 677 1058 m 460 1058 l 356 1058 l 505 1254 l 637 1254 l 460 1058 z "},"ő":{"ha":737,"x_min":42,"x_max":695,"o":"m 369 -12 q 132 86 221 -12 q 42 353 42 185 q 132 619 42 520 q 369 718 221 718 q 606 619 516 718 q 695 353 695 520 q 606 87 695 186 q 369 -12 516 -12 m 218 161 q 246 126 218 161 q 369 92 274 92 q 519 160 464 92 q 575 353 575 229 q 519 545 575 476 q 369 614 464 614 q 218 545 274 614 q 162 353 162 475 q 218 161 162 230 m 430 807 l 563 1010 l 688 1010 l 524 807 l 430 807 m 216 807 l 349 1010 l 473 1010 l 309 807 l 216 807 z "},"Œ":{"ha":1503,"x_min":57,"x_max":1437,"o":"m 513 882 q 272 776 361 882 q 182 489 182 670 q 272 202 182 309 q 513 96 361 96 q 753 202 664 96 q 842 489 842 309 q 753 776 842 669 q 513 882 664 882 m 844 0 l 844 155 q 707 28 793 73 q 513 -16 620 -16 q 180 120 302 -16 q 57 489 57 256 q 180 859 57 722 q 513 995 302 995 q 708 951 622 995 q 844 827 793 907 l 844 979 l 1437 979 l 1437 869 l 966 869 l 966 555 l 1411 555 l 1411 446 l 966 446 l 966 110 l 1437 110 l 1437 0 l 844 0 z "},"œ":{"ha":1244,"x_min":42,"x_max":1202,"o":"m 901 -12 q 745 26 816 -12 q 636 127 673 64 l 631 127 q 368 -12 540 -12 q 131 87 219 -12 q 42 353 42 186 q 131 618 42 519 q 368 718 219 718 q 631 571 541 718 l 636 571 q 741 678 674 638 q 895 718 808 718 q 1119 622 1036 718 q 1202 366 1202 526 l 1202 321 l 696 321 l 696 313 q 753 152 696 214 q 902 90 810 90 q 1014 121 966 90 q 1078 202 1062 153 l 1194 202 q 1096 49 1179 111 q 901 -12 1013 -12 m 1080 413 q 1026 559 1078 503 q 892 615 975 615 q 757 559 811 615 q 696 413 703 503 l 1080 413 m 217 544 q 189 509 217 544 q 162 353 162 475 q 217 161 162 231 q 368 92 272 92 q 520 161 465 92 q 574 353 574 231 q 520 545 574 475 q 368 614 465 614 q 217 544 271 614 z "},"Ŕ":{"ha":832,"x_min":95,"x_max":804,"o":"m 217 870 l 217 495 l 451 495 q 596 544 545 495 q 648 683 648 593 q 594 821 648 771 q 446 870 541 870 l 217 870 m 217 387 l 217 0 l 95 0 l 95 979 l 462 979 q 689 899 604 979 q 774 687 774 819 q 722 510 774 585 q 577 406 669 435 l 804 0 l 661 0 l 451 387 l 217 387 m 424 1058 l 319 1058 l 469 1254 l 600 1254 l 424 1058 z "},"ŕ":{"ha":428,"x_min":77,"x_max":461,"o":"m 77 0 l 77 705 l 188 705 l 188 590 l 191 590 q 254 683 208 649 q 361 718 300 718 q 409 713 376 718 l 409 598 q 346 605 390 605 q 236 559 277 605 q 195 439 195 514 l 195 0 l 77 0 m 294 807 l 191 807 l 334 1010 l 461 1010 l 294 807 z "},"Ŗ":{"ha":832,"x_min":95,"x_max":804,"o":"m 217 870 l 217 495 l 451 495 q 596 544 545 495 q 648 683 648 593 q 594 821 648 771 q 446 870 541 870 l 217 870 m 217 387 l 217 0 l 95 0 l 95 979 l 462 979 q 689 899 604 979 q 774 687 774 819 q 722 510 774 585 q 577 406 669 435 l 804 0 l 661 0 l 451 387 l 217 387 m 344 -330 l 258 -330 l 332 -86 l 435 -86 l 344 -330 z "},"ŗ":{"ha":428,"x_min":31,"x_max":409,"o":"m 77 0 l 77 705 l 188 705 l 188 590 l 191 590 q 254 683 208 649 q 361 718 300 718 q 409 713 376 718 l 409 598 q 346 605 390 605 q 236 559 277 605 q 195 439 195 514 l 195 0 l 77 0 m 117 -330 l 31 -330 l 104 -86 l 208 -86 l 117 -330 z "},"Ř":{"ha":832,"x_min":95,"x_max":804,"o":"m 217 870 l 217 495 l 451 495 q 596 544 545 495 q 648 683 648 593 q 594 821 648 771 q 446 870 541 870 l 217 870 m 217 387 l 217 0 l 95 0 l 95 979 l 462 979 q 689 899 604 979 q 774 687 774 819 q 722 510 774 585 q 577 406 669 435 l 804 0 l 661 0 l 451 387 l 217 387 m 317 1051 l 125 1253 l 238 1253 l 361 1123 l 365 1123 l 488 1253 l 600 1253 l 408 1051 l 317 1051 z "},"ř":{"ha":428,"x_min":11,"x_max":471,"o":"m 77 0 l 77 705 l 188 705 l 188 590 l 191 590 q 254 683 208 649 q 361 718 300 718 q 409 713 376 718 l 409 598 q 346 605 390 605 q 236 559 277 605 q 195 439 195 514 l 195 0 l 77 0 m 286 807 l 195 807 l 11 1010 l 121 1010 l 239 878 l 243 878 l 360 1010 l 471 1010 l 286 807 z "},"Ś":{"ha":825,"x_min":48,"x_max":777,"o":"m 48 269 l 171 269 q 249 142 180 190 q 422 94 317 94 q 586 141 522 94 q 651 260 651 188 q 606 361 651 321 q 462 427 561 401 l 336 460 q 138 556 201 494 q 76 718 76 618 q 173 918 76 840 q 422 995 269 995 q 663 917 568 995 q 763 715 759 838 l 641 715 q 573 840 633 794 q 418 885 513 885 q 263 840 323 885 q 203 724 203 795 q 247 632 203 668 q 390 571 290 597 l 492 544 q 711 443 644 506 q 777 275 777 380 q 679 62 777 140 q 411 -16 580 -16 q 156 62 255 -16 q 48 269 57 140 m 483 1058 l 378 1058 l 528 1254 l 659 1254 l 483 1058 z "},"ś":{"ha":646,"x_min":45,"x_max":601,"o":"m 64 511 q 138 660 64 602 q 328 718 212 718 q 509 659 437 718 q 586 511 582 601 l 473 511 q 428 592 467 563 q 323 621 388 621 q 220 592 259 621 q 180 517 180 564 q 298 415 180 445 l 407 389 q 557 318 513 361 q 601 197 601 275 q 522 46 601 105 q 320 -12 444 -12 q 130 45 205 -12 q 45 197 55 102 l 163 197 q 328 84 183 84 q 440 112 399 84 q 482 189 482 140 q 457 249 482 227 q 374 287 433 271 l 250 319 q 64 511 64 366 m 381 807 l 278 807 l 420 1010 l 548 1010 l 381 807 z "},"Ŝ":{"ha":825,"x_min":48,"x_max":777,"o":"m 48 269 l 171 269 q 249 142 180 190 q 422 94 317 94 q 586 141 522 94 q 651 260 651 188 q 606 361 651 321 q 462 427 561 401 l 336 460 q 138 556 201 494 q 76 718 76 618 q 173 918 76 840 q 422 995 269 995 q 663 917 568 995 q 763 715 759 838 l 641 715 q 573 840 633 794 q 418 885 513 885 q 263 840 323 885 q 203 724 203 795 q 247 632 203 668 q 390 571 290 597 l 492 544 q 711 443 644 506 q 777 275 777 380 q 679 62 777 140 q 411 -16 580 -16 q 156 62 255 -16 q 48 269 57 140 m 376 1246 l 467 1246 l 659 1044 l 547 1044 l 424 1175 l 420 1175 l 297 1044 l 184 1044 l 376 1246 z "},"ŝ":{"ha":646,"x_min":45,"x_max":601,"o":"m 64 511 q 138 660 64 602 q 328 718 212 718 q 509 659 437 718 q 586 511 582 601 l 473 511 q 428 592 467 563 q 323 621 388 621 q 220 592 259 621 q 180 517 180 564 q 298 415 180 445 l 407 389 q 557 318 513 361 q 601 197 601 275 q 522 46 601 105 q 320 -12 444 -12 q 130 45 205 -12 q 45 197 55 102 l 163 197 q 328 84 183 84 q 440 112 399 84 q 482 189 482 140 q 457 249 482 227 q 374 287 433 271 l 250 319 q 64 511 64 366 m 373 1010 l 557 807 l 447 807 l 330 937 l 326 937 l 208 807 l 98 807 l 282 1010 l 373 1010 z "},"Ş":{"ha":825,"x_min":48,"x_max":777,"o":"m 390 571 l 492 544 q 711 443 644 506 q 777 275 777 380 q 692 74 777 151 q 459 -14 607 -3 l 427 -88 q 533 -118 494 -90 q 572 -197 572 -146 q 528 -284 572 -253 q 414 -317 483 -316 q 312 -308 347 -319 l 312 -239 q 397 -247 348 -247 q 483 -198 483 -247 q 459 -165 483 -175 q 384 -155 436 -155 l 336 -155 l 336 -108 l 373 -15 q 144 71 232 -5 q 48 269 56 148 l 171 269 q 249 142 180 190 q 422 94 317 94 q 586 141 522 94 q 651 260 651 188 q 606 361 651 321 q 462 427 561 401 l 336 460 q 138 556 201 494 q 76 718 76 618 q 173 918 76 840 q 422 995 269 995 q 663 917 568 995 q 763 715 759 838 l 641 715 q 573 840 633 794 q 418 885 513 885 q 263 840 323 885 q 203 724 203 795 q 247 632 203 668 q 390 571 290 597 z "},"ş":{"ha":646,"x_min":45,"x_max":601,"o":"m 298 415 l 407 389 q 557 318 513 361 q 601 197 601 275 q 537 59 601 115 q 370 -9 474 2 l 336 -88 q 443 -118 404 -90 q 481 -197 481 -146 q 437 -284 481 -253 q 323 -317 392 -316 q 221 -308 256 -319 l 221 -239 q 306 -247 257 -247 q 392 -198 392 -247 q 369 -165 392 -175 q 293 -155 345 -155 l 245 -155 l 245 -108 l 284 -11 q 118 54 182 -2 q 45 197 54 111 l 163 197 q 328 84 183 84 q 440 112 399 84 q 482 189 482 140 q 457 249 482 227 q 374 287 433 271 l 250 319 q 64 511 64 366 q 138 660 64 602 q 328 718 212 718 q 509 659 437 718 q 586 511 582 601 l 473 511 q 428 592 467 563 q 323 621 388 621 q 220 592 259 621 q 180 517 180 564 q 298 415 180 445 z "},"Š":{"ha":825,"x_min":48,"x_max":777,"o":"m 48 269 l 171 269 q 249 142 180 190 q 422 94 317 94 q 586 141 522 94 q 651 260 651 188 q 606 361 651 321 q 462 427 561 401 l 336 460 q 138 556 201 494 q 76 718 76 618 q 173 918 76 840 q 422 995 269 995 q 663 917 568 995 q 763 715 759 838 l 641 715 q 573 840 633 794 q 418 885 513 885 q 263 840 323 885 q 203 724 203 795 q 247 632 203 668 q 390 571 290 597 l 492 544 q 711 443 644 506 q 777 275 777 380 q 679 62 777 140 q 411 -16 580 -16 q 156 62 255 -16 q 48 269 57 140 m 376 1051 l 184 1253 l 297 1253 l 420 1123 l 424 1123 l 547 1253 l 659 1253 l 467 1051 l 376 1051 z "},"š":{"ha":646,"x_min":45,"x_max":601,"o":"m 64 511 q 138 660 64 602 q 328 718 212 718 q 509 659 437 718 q 586 511 582 601 l 473 511 q 428 592 467 563 q 323 621 388 621 q 220 592 259 621 q 180 517 180 564 q 298 415 180 445 l 407 389 q 557 318 513 361 q 601 197 601 275 q 522 46 601 105 q 320 -12 444 -12 q 130 45 205 -12 q 45 197 55 102 l 163 197 q 328 84 183 84 q 440 112 399 84 q 482 189 482 140 q 457 249 482 227 q 374 287 433 271 l 250 319 q 64 511 64 366 m 373 807 l 282 807 l 98 1010 l 208 1010 l 326 878 l 330 878 l 447 1010 l 557 1010 l 373 807 z "},"Ţ":{"ha":807,"x_min":34,"x_max":773,"o":"m 465 5 l 465 0 l 427 -88 q 533 -118 494 -90 q 572 -197 572 -146 q 527 -284 572 -253 q 413 -317 482 -316 q 311 -308 346 -319 l 311 -239 q 396 -247 347 -247 q 482 -198 482 -247 q 459 -165 482 -175 q 383 -155 435 -155 l 336 -155 l 336 -108 l 378 0 l 342 0 l 342 869 l 34 869 l 34 979 l 773 979 l 773 869 l 465 869 l 465 5 z "},"ţ":{"ha":418,"x_min":9,"x_max":404,"o":"m 294 -5 l 258 -88 q 365 -118 326 -90 q 404 -197 404 -146 q 359 -284 404 -253 q 245 -317 314 -316 q 143 -308 178 -319 l 143 -239 q 228 -247 179 -247 q 314 -198 314 -247 q 291 -165 314 -175 q 215 -155 267 -155 l 168 -155 l 168 -108 l 212 5 q 138 63 161 20 q 115 183 115 106 l 115 608 l 9 608 l 9 705 l 115 705 l 115 876 l 233 876 l 233 705 l 370 705 l 370 608 l 233 608 l 233 189 q 254 118 233 141 q 320 96 275 96 q 369 99 349 96 l 369 0 q 294 -5 346 -5 z "},"Ť":{"ha":807,"x_min":34,"x_max":773,"o":"m 465 0 l 342 0 l 342 869 l 34 869 l 34 979 l 773 979 l 773 869 l 465 869 l 465 0 m 358 1051 l 166 1253 l 279 1253 l 401 1123 l 406 1123 l 528 1253 l 641 1253 l 449 1051 l 358 1051 z "},"ť":{"ha":478,"x_min":9,"x_max":425,"o":"m 331 1125 l 425 1125 l 406 806 l 331 806 l 331 1125 m 115 876 l 233 876 l 233 705 l 370 705 l 370 608 l 233 608 l 233 189 q 254 118 233 141 q 320 96 275 96 q 369 99 349 96 l 369 0 q 294 -5 346 -5 q 156 38 197 -5 q 115 183 115 81 l 115 608 l 9 608 l 9 705 l 115 705 l 115 876 z "},"Ŧ":{"ha":807,"x_min":34,"x_max":773,"o":"m 773 869 l 465 869 l 465 538 l 671 538 l 671 441 l 465 441 l 465 0 l 342 0 l 342 441 l 136 441 l 136 538 l 342 538 l 342 869 l 34 869 l 34 979 l 773 979 l 773 869 z "},"ŧ":{"ha":421,"x_min":9,"x_max":370,"o":"m 370 608 l 233 608 l 233 418 l 370 418 l 370 323 l 233 323 l 233 189 q 254 118 233 141 q 320 96 275 96 q 369 99 349 96 l 369 0 q 294 -5 346 -5 q 156 38 197 -5 q 115 183 115 81 l 115 323 l 9 323 l 9 418 l 115 418 l 115 608 l 9 608 l 9 705 l 115 705 l 115 876 l 233 876 l 233 705 l 370 705 l 370 608 z "},"Ũ":{"ha":967,"x_min":95,"x_max":872,"o":"m 217 979 l 217 351 q 288 167 217 238 q 484 96 359 96 q 679 167 608 96 q 750 351 750 238 l 750 979 l 872 979 l 872 343 q 767 84 872 184 q 484 -16 663 -16 q 200 84 304 -16 q 95 343 95 184 l 95 979 l 217 979 m 572 1072 q 514 1088 542 1072 q 470 1123 487 1104 q 433 1158 454 1142 q 395 1175 413 1175 q 358 1149 372 1175 q 347 1078 345 1124 l 267 1078 q 302 1206 267 1160 q 396 1251 337 1251 q 446 1241 422 1251 q 486 1215 469 1230 q 516 1184 502 1200 q 545 1159 530 1169 q 573 1148 559 1148 q 607 1173 595 1148 q 620 1245 620 1198 l 700 1245 q 664 1118 700 1165 q 572 1072 629 1072 z "},"ũ":{"ha":732,"x_min":73,"x_max":656,"o":"m 656 705 l 656 0 l 544 0 l 544 115 l 541 115 q 317 -12 475 -12 q 138 57 203 -12 q 73 248 73 127 l 73 705 l 191 705 l 191 269 q 354 92 191 92 q 489 146 439 92 q 538 291 538 200 l 538 705 l 656 705 m 456 812 q 398 829 425 812 q 354 864 370 845 q 317 899 337 883 q 279 916 296 916 q 242 890 255 916 q 231 819 229 865 l 151 819 q 185 947 151 901 q 279 992 220 992 q 329 982 306 992 q 369 956 353 971 q 399 925 385 941 q 428 900 414 910 q 456 889 443 889 q 491 914 478 889 q 503 986 503 939 l 583 986 q 548 859 583 906 q 456 812 512 812 z "},"Ū":{"ha":967,"x_min":95,"x_max":872,"o":"m 217 979 l 217 351 q 288 167 217 238 q 484 96 359 96 q 679 167 608 96 q 750 351 750 238 l 750 979 l 872 979 l 872 343 q 767 84 872 184 q 484 -16 663 -16 q 200 84 304 -16 q 95 343 95 184 l 95 979 l 217 979 m 699 1187 l 699 1108 l 269 1108 l 269 1187 l 699 1187 z "},"ū":{"ha":732,"x_min":73,"x_max":656,"o":"m 656 705 l 656 0 l 544 0 l 544 115 l 541 115 q 317 -12 475 -12 q 138 57 203 -12 q 73 248 73 127 l 73 705 l 191 705 l 191 269 q 354 92 191 92 q 489 146 439 92 q 538 291 538 200 l 538 705 l 656 705 m 559 929 l 559 850 l 170 850 l 170 929 l 559 929 z "},"Ŭ":{"ha":967,"x_min":95,"x_max":872,"o":"m 217 979 l 217 351 q 288 167 217 238 q 484 96 359 96 q 679 167 608 96 q 750 351 750 238 l 750 979 l 872 979 l 872 343 q 767 84 872 184 q 484 -16 663 -16 q 200 84 304 -16 q 95 343 95 184 l 95 979 l 217 979 m 266 1253 l 352 1253 q 394 1157 358 1192 q 484 1122 430 1122 q 573 1157 537 1122 q 615 1253 609 1192 l 701 1253 q 636 1106 694 1166 q 484 1046 577 1046 q 331 1106 390 1046 q 266 1253 273 1166 z "},"ŭ":{"ha":732,"x_min":73,"x_max":656,"o":"m 656 705 l 656 0 l 544 0 l 544 115 l 541 115 q 317 -12 475 -12 q 138 57 203 -12 q 73 248 73 127 l 73 705 l 191 705 l 191 269 q 354 92 191 92 q 489 146 439 92 q 538 291 538 200 l 538 705 l 656 705 m 145 1010 l 231 1010 q 268 911 231 949 q 363 873 305 873 q 459 911 422 873 q 496 1010 496 949 l 582 1010 q 523 859 582 917 q 363 800 463 800 q 204 859 264 800 q 145 1010 145 917 z "},"Ů":{"ha":967,"x_min":95,"x_max":872,"o":"m 217 979 l 217 351 q 288 167 217 238 q 484 96 359 96 q 679 167 608 96 q 750 351 750 238 l 750 979 l 872 979 l 872 343 q 767 84 872 184 q 484 -16 663 -16 q 200 84 304 -16 q 95 343 95 184 l 95 979 l 217 979 m 575 1066 q 556 1047 575 1066 q 484 1028 537 1028 q 392 1066 430 1028 q 354 1158 354 1104 q 392 1249 354 1211 q 484 1287 430 1287 q 575 1249 537 1287 q 613 1158 613 1211 q 575 1066 613 1104 m 434 1108 q 444 1098 434 1108 q 484 1088 454 1088 q 533 1108 513 1088 q 553 1158 553 1128 q 533 1207 553 1187 q 484 1227 513 1227 q 434 1207 454 1227 q 414 1158 414 1187 q 434 1108 414 1128 z "},"ů":{"ha":732,"x_min":73,"x_max":656,"o":"m 656 705 l 656 0 l 544 0 l 544 115 l 541 115 q 317 -12 475 -12 q 138 57 203 -12 q 73 248 73 127 l 73 705 l 191 705 l 191 269 q 354 92 191 92 q 489 146 439 92 q 538 291 538 200 l 538 705 l 656 705 m 456 806 q 437 787 456 806 q 364 768 418 768 q 273 806 311 768 q 235 897 235 844 q 273 989 235 951 q 364 1027 311 1027 q 456 989 418 1027 q 494 897 494 951 q 456 806 494 844 m 315 848 q 325 838 315 848 q 364 827 335 827 q 414 848 393 827 q 434 897 434 868 q 414 947 434 926 q 364 967 393 967 q 315 947 335 967 q 294 897 294 926 q 315 848 294 868 z "},"Ű":{"ha":967,"x_min":95,"x_max":872,"o":"m 217 979 l 217 351 q 288 167 217 238 q 484 96 359 96 q 679 167 608 96 q 750 351 750 238 l 750 979 l 872 979 l 872 343 q 767 84 872 184 q 484 -16 663 -16 q 200 84 304 -16 q 95 343 95 184 l 95 979 l 217 979 m 653 1058 l 549 1058 l 698 1254 l 829 1254 l 653 1058 m 436 1058 l 332 1058 l 481 1254 l 612 1254 l 436 1058 z "},"ű":{"ha":732,"x_min":73,"x_max":683,"o":"m 656 705 l 656 0 l 544 0 l 544 115 l 541 115 q 317 -12 475 -12 q 138 57 203 -12 q 73 248 73 127 l 73 705 l 191 705 l 191 269 q 354 92 191 92 q 489 146 439 92 q 538 291 538 200 l 538 705 l 656 705 m 425 807 l 558 1010 l 683 1010 l 519 807 l 425 807 m 211 807 l 344 1010 l 469 1010 l 304 807 l 211 807 z "},"Ų":{"ha":967,"x_min":95,"x_max":872,"o":"m 640 -292 q 529 -256 573 -292 q 486 -164 486 -221 q 579 -3 486 -79 l 579 0 q 484 -16 526 -16 q 201 82 308 -16 q 95 343 95 180 l 95 979 l 217 979 l 217 351 q 290 165 217 235 q 484 96 362 96 q 677 165 605 96 q 750 351 750 235 l 750 979 l 872 979 l 872 343 q 830 172 872 248 q 696 15 789 95 q 613 -69 641 -33 q 585 -138 585 -105 q 607 -187 585 -170 q 665 -204 630 -204 q 720 -198 691 -204 l 720 -280 q 640 -292 697 -292 z "},"ų":{"ha":732,"x_min":73,"x_max":656,"o":"m 652 -268 q 574 -279 629 -279 q 465 -245 508 -279 q 422 -156 422 -212 q 458 -56 422 -100 q 544 15 493 -13 l 544 115 l 541 115 q 317 -12 475 -12 q 138 57 203 -12 q 73 248 73 127 l 73 705 l 191 705 l 191 269 q 354 92 191 92 q 489 146 439 92 q 538 291 538 200 l 538 705 l 656 705 l 656 -1 l 650 -3 q 559 -57 597 -24 q 522 -129 522 -90 q 543 -177 522 -160 q 598 -194 564 -194 q 652 -188 623 -194 l 652 -268 z "},"Ŵ":{"ha":1283,"x_min":31,"x_max":1253,"o":"m 638 777 l 412 0 l 297 0 l 31 979 l 158 979 l 354 180 l 359 180 l 580 979 l 703 979 l 924 180 l 929 180 l 1125 979 l 1253 979 l 986 0 l 871 0 l 645 777 l 638 777 m 596 1246 l 687 1246 l 879 1044 l 766 1044 l 644 1175 l 640 1175 l 517 1044 l 404 1044 l 596 1246 z "},"ŵ":{"ha":994,"x_min":19,"x_max":974,"o":"m 974 705 l 777 0 l 657 0 l 498 546 l 495 546 l 336 0 l 216 0 l 19 705 l 136 705 l 277 132 l 280 132 l 439 705 l 553 705 l 713 132 l 716 132 l 857 705 l 974 705 m 542 1010 l 726 807 l 616 807 l 498 937 l 494 937 l 377 807 l 267 807 l 451 1010 l 542 1010 z "},"Ŷ":{"ha":850,"x_min":17,"x_max":833,"o":"m 486 0 l 364 0 l 364 421 l 17 979 l 156 979 l 423 539 l 427 539 l 694 979 l 833 979 l 486 421 l 486 0 m 380 1246 l 471 1246 l 663 1044 l 550 1044 l 427 1175 l 423 1175 l 300 1044 l 188 1044 l 380 1246 z "},"ŷ":{"ha":675,"x_min":16,"x_max":659,"o":"m 135 -264 q 84 -260 104 -264 l 84 -161 q 130 -164 100 -164 q 210 -138 180 -164 q 260 -50 239 -112 l 276 -1 l 16 705 l 142 705 l 337 118 l 339 118 l 534 705 l 659 705 l 381 -50 q 283 -218 336 -173 q 135 -264 231 -264 m 383 1010 l 568 807 l 457 807 l 340 937 l 336 937 l 218 807 l 108 807 l 292 1010 l 383 1010 z "},"Ÿ":{"ha":850,"x_min":17,"x_max":833,"o":"m 486 0 l 364 0 l 364 421 l 17 979 l 156 979 l 423 539 l 427 539 l 694 979 l 833 979 l 486 421 l 486 0 m 352 1109 q 341 1099 352 1109 q 299 1088 330 1088 q 247 1109 269 1088 q 224 1162 224 1131 q 247 1215 224 1194 q 299 1237 269 1237 q 352 1215 330 1237 q 374 1162 374 1194 q 352 1109 374 1131 m 604 1109 q 593 1099 604 1109 q 551 1088 582 1088 q 499 1109 521 1088 q 477 1162 477 1131 q 499 1215 477 1194 q 551 1237 521 1237 q 604 1215 582 1237 q 626 1162 626 1194 q 604 1109 626 1131 z "},"Ź":{"ha":857,"x_min":66,"x_max":790,"o":"m 66 0 l 66 87 l 625 864 l 625 869 l 85 869 l 85 979 l 779 979 l 779 892 l 223 115 l 223 110 l 790 110 l 790 0 l 66 0 m 490 1058 l 385 1058 l 534 1254 l 666 1254 l 490 1058 z "},"ź":{"ha":650,"x_min":62,"x_max":588,"o":"m 62 0 l 62 84 l 452 606 l 452 608 l 62 608 l 62 705 l 586 705 l 586 619 l 198 99 l 198 97 l 588 97 l 588 0 l 62 0 m 378 807 l 275 807 l 418 1010 l 545 1010 l 378 807 z "},"Ż":{"ha":857,"x_min":66,"x_max":790,"o":"m 66 0 l 66 87 l 625 864 l 625 869 l 85 869 l 85 979 l 779 979 l 779 892 l 223 115 l 223 110 l 790 110 l 790 0 l 66 0 m 487 1099 q 475 1087 487 1099 q 429 1075 463 1075 q 371 1099 395 1075 q 347 1157 347 1123 q 371 1215 347 1191 q 429 1239 395 1239 q 487 1215 463 1239 q 511 1157 511 1191 q 487 1099 511 1123 z "},"ż":{"ha":650,"x_min":62,"x_max":588,"o":"m 62 0 l 62 84 l 452 606 l 452 608 l 62 608 l 62 705 l 586 705 l 586 619 l 198 99 l 198 97 l 588 97 l 588 0 l 62 0 m 384 839 q 372 827 384 839 q 325 814 359 814 q 266 839 290 814 q 241 899 241 864 q 266 958 241 933 q 325 983 290 983 q 384 958 359 983 q 409 899 409 933 q 384 839 409 864 z "},"Ž":{"ha":857,"x_min":66,"x_max":790,"o":"m 66 0 l 66 87 l 625 864 l 625 869 l 85 869 l 85 979 l 779 979 l 779 892 l 223 115 l 223 110 l 790 110 l 790 0 l 66 0 m 383 1051 l 191 1253 l 304 1253 l 427 1123 l 431 1123 l 553 1253 l 666 1253 l 474 1051 l 383 1051 z "},"ž":{"ha":650,"x_min":62,"x_max":588,"o":"m 62 0 l 62 84 l 452 606 l 452 608 l 62 608 l 62 705 l 586 705 l 586 619 l 198 99 l 198 97 l 588 97 l 588 0 l 62 0 m 370 807 l 279 807 l 95 1010 l 205 1010 l 323 878 l 327 878 l 444 1010 l 555 1010 l 370 807 z "},"Ə":{"ha":975,"x_min":64,"x_max":911,"o":"m 794 118 q 735 47 794 118 q 484 -23 676 -23 q 179 107 292 -23 q 64 460 66 237 l 64 514 l 781 514 l 781 532 q 694 789 782 690 q 468 889 607 889 q 204 732 275 889 l 79 732 q 226 930 123 859 q 471 1002 330 1002 q 792 863 673 1002 q 911 488 911 724 q 794 118 911 258 m 487 90 q 684 175 605 90 q 778 406 762 261 l 198 406 q 286 173 210 257 q 487 90 362 90 z "},"ƒ":{"ha":840,"x_min":25,"x_max":816,"o":"m 816 967 l 816 861 q 687 889 758 889 q 567 854 608 889 q 515 746 526 820 l 493 593 l 743 593 l 743 495 l 479 495 l 441 232 q 357 45 423 106 q 173 -16 290 -16 q 25 16 91 -16 l 25 129 q 90 102 51 113 q 162 92 128 92 q 275 127 237 92 q 325 245 313 163 l 361 495 l 133 495 l 133 593 l 375 593 l 398 753 q 485 933 416 872 q 672 995 555 995 q 816 967 756 995 z "},"Ơ":{"ha":1016,"x_min":57,"x_max":972,"o":"m 838 120 q 777 52 838 120 q 508 -16 716 -16 q 178 120 300 -16 q 57 489 57 256 q 178 859 57 722 q 508 995 300 995 q 649 981 558 995 q 790 968 739 968 q 848 982 831 968 q 864 1031 864 996 l 864 1126 l 972 1126 l 972 996 q 938 912 972 944 q 848 880 903 880 l 808 880 l 808 876 q 916 720 873 829 q 959 489 959 610 q 838 120 959 256 m 270 202 q 314 149 270 202 q 508 96 358 96 q 746 202 658 96 q 833 489 833 309 q 746 777 833 671 q 508 882 658 882 q 270 776 358 882 q 182 489 182 670 q 270 202 182 309 z "},"ơ":{"ha":768,"x_min":42,"x_max":726,"o":"m 218 161 q 246 126 218 161 q 369 92 274 92 q 519 160 464 92 q 575 353 575 229 q 519 545 575 476 q 369 614 464 614 q 218 545 274 614 q 162 353 162 475 q 218 161 162 230 m 695 353 q 606 87 695 186 q 369 -12 516 -12 q 132 86 221 -12 q 42 353 42 185 q 132 619 42 520 q 369 718 221 718 q 469 706 416 718 q 548 695 522 695 q 604 709 588 695 q 619 756 619 722 l 619 846 l 726 846 l 726 721 q 699 645 726 675 q 630 616 671 616 l 608 616 l 608 613 q 695 353 695 513 z "},"Ư":{"ha":1067,"x_min":95,"x_max":1043,"o":"m 766 82 q 712 33 766 82 q 484 -16 659 -16 q 201 82 308 -16 q 95 343 95 180 l 95 979 l 217 979 l 217 351 q 290 165 217 235 q 484 96 362 96 q 677 165 605 96 q 750 351 750 235 l 750 979 l 873 979 q 920 993 905 979 q 935 1038 935 1008 l 935 1146 l 1043 1146 l 1043 1018 q 1006 925 1043 959 q 906 892 970 892 l 872 892 l 872 343 q 766 82 872 180 z "},"ư":{"ha":798,"x_min":73,"x_max":804,"o":"m 541 115 q 317 -12 475 -12 q 138 57 203 -12 q 73 248 73 127 l 73 705 l 191 705 l 191 269 q 354 92 191 92 q 489 146 439 92 q 538 291 538 200 l 538 705 l 638 705 q 697 762 697 705 l 697 862 l 804 862 l 804 742 q 768 652 804 684 q 671 619 733 619 l 656 619 l 656 0 l 544 0 l 544 115 l 541 115 z "},"Ǆ":{"ha":1805,"x_min":95,"x_max":1739,"o":"m 95 979 l 424 979 q 764 849 642 979 q 886 490 886 720 q 764 129 886 258 q 424 0 642 0 l 95 0 l 95 979 m 217 869 l 217 110 l 416 110 q 671 208 582 110 q 761 488 761 306 q 672 770 761 672 q 416 869 583 869 l 217 869 m 1015 0 l 1015 87 l 1573 864 l 1573 869 l 1034 869 l 1034 979 l 1727 979 l 1727 892 l 1172 115 l 1172 110 l 1739 110 l 1739 0 l 1015 0 m 1332 1051 l 1140 1253 l 1253 1253 l 1375 1123 l 1379 1123 l 1502 1253 l 1615 1253 l 1423 1051 l 1332 1051 z "},"ǅ":{"ha":1620,"x_min":95,"x_max":1537,"o":"m 95 979 l 424 979 q 764 849 642 979 q 886 490 886 720 q 764 129 886 258 q 424 0 642 0 l 95 0 l 95 979 m 217 869 l 217 110 l 416 110 q 671 208 582 110 q 761 488 761 306 q 672 770 761 672 q 416 869 583 869 l 217 869 m 1010 0 l 1010 84 l 1401 606 l 1401 608 l 1011 608 l 1011 705 l 1535 705 l 1535 619 l 1147 99 l 1147 97 l 1537 97 l 1537 0 l 1010 0 m 1319 807 l 1228 807 l 1044 1010 l 1154 1010 l 1272 878 l 1276 878 l 1393 1010 l 1503 1010 l 1319 807 z "},"ǆ":{"ha":1467,"x_min":42,"x_max":1383,"o":"m 344 -12 q 125 87 208 -12 q 42 353 42 187 q 125 617 42 517 q 341 718 208 718 q 475 684 416 718 q 566 591 534 650 l 568 591 l 568 979 l 686 979 l 686 0 l 574 0 l 574 119 l 572 119 q 478 23 537 58 q 344 -12 419 -12 m 366 614 q 218 543 273 614 q 163 353 163 472 q 218 162 163 233 q 366 92 273 92 q 513 163 458 92 q 569 353 569 235 q 513 542 569 471 q 366 614 457 614 m 857 0 l 857 84 l 1248 606 l 1248 608 l 858 608 l 858 705 l 1381 705 l 1381 619 l 994 99 l 994 97 l 1383 97 l 1383 0 l 857 0 m 1166 807 l 1075 807 l 890 1010 l 1001 1010 l 1118 878 l 1122 878 l 1240 1010 l 1350 1010 l 1166 807 z "},"Ǉ":{"ha":1416,"x_min":95,"x_max":1321,"o":"m 689 110 l 689 0 l 95 0 l 95 979 l 217 979 l 217 110 l 689 110 m 757 230 l 878 230 q 923 129 880 168 q 1033 90 966 90 q 1156 137 1114 90 q 1199 273 1199 184 l 1199 979 l 1321 979 l 1321 273 q 1245 55 1321 134 q 1034 -23 1169 -23 q 834 48 911 -23 q 757 230 757 119 z "},"ǈ":{"ha":1020,"x_min":95,"x_max":944,"o":"m 689 110 l 689 0 l 95 0 l 95 979 l 217 979 l 217 110 l 689 110 m 929 705 l 929 -35 q 876 -192 929 -142 q 711 -243 823 -243 q 688 -242 690 -243 l 688 -144 l 707 -144 q 788 -119 764 -144 q 811 -36 811 -95 l 811 705 l 929 705 m 870 824 q 819 846 840 824 q 797 897 797 867 q 819 949 797 928 q 870 970 840 970 q 922 949 901 970 q 944 897 944 928 q 922 846 944 867 q 870 824 901 824 z "},"ǉ":{"ha":583,"x_min":83,"x_max":507,"o":"m 83 0 l 83 979 l 201 979 l 201 0 l 83 0 m 492 705 l 492 -35 q 439 -192 492 -142 q 274 -243 387 -243 q 252 -242 253 -243 l 252 -144 l 270 -144 q 351 -119 328 -144 q 374 -36 374 -95 l 374 705 l 492 705 m 433 824 q 382 846 404 824 q 360 897 360 867 q 382 949 360 928 q 433 970 404 970 q 486 949 464 970 q 507 897 507 928 q 486 846 507 867 q 433 824 464 824 z "},"Ǌ":{"ha":1659,"x_min":95,"x_max":1564,"o":"m 216 0 l 95 0 l 95 979 l 214 979 l 749 210 l 755 210 l 755 979 l 876 979 l 876 0 l 758 0 l 222 766 l 216 766 l 216 0 m 1000 230 l 1121 230 q 1166 129 1123 168 q 1276 90 1209 90 q 1399 137 1356 90 q 1442 273 1442 184 l 1442 979 l 1564 979 l 1564 273 q 1488 55 1564 134 q 1276 -23 1412 -23 q 1077 48 1154 -23 q 1000 230 1000 119 z "},"ǋ":{"ha":1263,"x_min":95,"x_max":1187,"o":"m 216 0 l 95 0 l 95 979 l 214 979 l 749 210 l 755 210 l 755 979 l 876 979 l 876 0 l 758 0 l 222 766 l 216 766 l 216 0 m 1172 705 l 1172 -35 q 1119 -192 1172 -142 q 954 -243 1066 -243 q 931 -242 932 -243 l 931 -144 l 949 -144 q 1030 -119 1007 -144 q 1054 -36 1054 -95 l 1054 705 l 1172 705 m 1113 824 q 1061 846 1083 824 q 1040 897 1040 867 q 1061 949 1040 928 q 1113 970 1083 970 q 1165 949 1143 970 q 1187 897 1187 928 q 1165 846 1187 867 q 1113 824 1143 824 z "},"ǌ":{"ha":1048,"x_min":77,"x_max":972,"o":"m 77 0 l 77 705 l 188 705 l 188 593 l 191 593 q 278 685 221 652 q 414 718 335 718 q 594 648 530 718 q 659 458 659 578 l 659 0 l 541 0 l 541 437 q 500 568 541 523 q 378 613 459 613 q 245 559 295 613 q 195 415 195 505 l 195 0 l 77 0 m 957 705 l 957 -35 q 904 -192 957 -142 q 739 -243 851 -243 q 716 -242 718 -243 l 716 -144 l 734 -144 q 815 -119 792 -144 q 839 -36 839 -95 l 839 705 l 957 705 m 898 824 q 846 846 868 824 q 825 897 825 867 q 846 949 825 928 q 898 970 868 970 q 950 949 928 970 q 972 897 972 928 q 950 846 972 867 q 898 824 928 824 z "},"Ǎ":{"ha":876,"x_min":17,"x_max":859,"o":"m 731 0 l 633 280 l 243 280 l 145 0 l 17 0 l 378 979 l 498 979 l 859 0 l 731 0 m 436 830 l 279 384 l 597 384 l 440 830 l 436 830 m 393 1051 l 201 1253 l 313 1253 l 436 1123 l 440 1123 l 563 1253 l 675 1253 l 484 1051 l 393 1051 z "},"ǎ":{"ha":697,"x_min":48,"x_max":624,"o":"m 309 88 q 449 140 393 88 q 506 268 506 192 l 506 326 l 317 314 q 207 279 246 309 q 168 199 168 250 q 207 119 168 149 q 309 88 245 88 m 283 -12 q 113 46 178 -12 q 48 199 48 104 q 115 345 48 290 q 304 406 182 399 l 506 417 l 506 476 q 465 577 506 541 q 351 614 425 614 q 242 584 284 614 q 189 502 200 555 l 75 502 q 156 657 81 596 q 354 718 232 718 q 551 655 478 718 q 624 488 624 593 l 624 0 l 512 0 l 512 121 l 509 121 q 416 24 477 61 q 283 -12 354 -12 m 391 807 l 300 807 l 116 1010 l 227 1010 l 344 878 l 348 878 l 465 1010 l 576 1010 l 391 807 z "},"Ǐ":{"ha":312,"x_min":-81,"x_max":393,"o":"m 217 0 l 95 0 l 95 979 l 217 979 l 217 0 m 111 1051 l -81 1253 l 31 1253 l 154 1123 l 158 1123 l 281 1253 l 393 1253 l 201 1051 l 111 1051 z "},"ǐ":{"ha":283,"x_min":-88,"x_max":372,"o":"m 83 0 l 83 705 l 201 705 l 201 0 l 83 0 m 187 807 l 96 807 l -88 1010 l 22 1010 l 140 878 l 144 878 l 261 1010 l 372 1010 l 187 807 z "},"Ǒ":{"ha":1016,"x_min":57,"x_max":959,"o":"m 178 859 q 239 927 178 859 q 508 995 300 995 q 838 859 716 995 q 959 489 959 722 q 838 120 959 256 q 508 -16 716 -16 q 178 120 300 -16 q 57 489 57 256 q 178 859 57 722 m 746 776 q 702 829 746 776 q 508 882 658 882 q 270 776 358 882 q 182 489 182 670 q 270 202 182 309 q 508 96 358 96 q 746 202 658 96 q 833 489 833 309 q 746 776 833 670 m 463 1051 l 271 1253 l 383 1253 l 506 1123 l 510 1123 l 633 1253 l 745 1253 l 553 1051 l 463 1051 z "},"ǒ":{"ha":737,"x_min":42,"x_max":695,"o":"m 369 -12 q 132 86 221 -12 q 42 353 42 185 q 132 619 42 520 q 369 718 221 718 q 606 619 516 718 q 695 353 695 520 q 606 87 695 186 q 369 -12 516 -12 m 218 161 q 246 126 218 161 q 369 92 274 92 q 519 160 464 92 q 575 353 575 229 q 519 545 575 476 q 369 614 464 614 q 218 545 274 614 q 162 353 162 475 q 218 161 162 230 m 414 807 l 323 807 l 139 1010 l 250 1010 l 367 878 l 371 878 l 488 1010 l 599 1010 l 414 807 z "},"Ǔ":{"ha":967,"x_min":95,"x_max":872,"o":"m 217 979 l 217 351 q 288 167 217 238 q 484 96 359 96 q 679 167 608 96 q 750 351 750 238 l 750 979 l 872 979 l 872 343 q 767 84 872 184 q 484 -16 663 -16 q 200 84 304 -16 q 95 343 95 184 l 95 979 l 217 979 m 438 1051 l 246 1253 l 359 1253 l 481 1123 l 486 1123 l 608 1253 l 721 1253 l 529 1051 l 438 1051 z "},"ǔ":{"ha":732,"x_min":73,"x_max":656,"o":"m 656 705 l 656 0 l 544 0 l 544 115 l 541 115 q 317 -12 475 -12 q 138 57 203 -12 q 73 248 73 127 l 73 705 l 191 705 l 191 269 q 354 92 191 92 q 489 146 439 92 q 538 291 538 200 l 538 705 l 656 705 m 410 807 l 319 807 l 134 1010 l 245 1010 l 362 878 l 366 878 l 484 1010 l 594 1010 l 410 807 z "},"Ǖ":{"ha":967,"x_min":95,"x_max":872,"o":"m 217 979 l 217 351 q 288 167 217 238 q 484 96 359 96 q 679 167 608 96 q 750 351 750 238 l 750 979 l 872 979 l 872 343 q 767 84 872 184 q 484 -16 663 -16 q 200 84 304 -16 q 95 343 95 184 l 95 979 l 217 979 m 363 1198 q 413 1177 393 1198 q 434 1126 434 1156 q 413 1075 434 1096 q 363 1054 393 1054 q 313 1075 334 1054 q 292 1126 292 1096 q 313 1177 292 1156 q 363 1198 334 1198 m 269 1373 l 699 1373 l 699 1295 l 269 1295 l 269 1373 m 604 1198 q 654 1177 633 1198 q 675 1126 675 1156 q 654 1075 675 1096 q 604 1054 633 1054 q 554 1075 574 1054 q 533 1126 533 1096 q 554 1177 533 1156 q 604 1198 574 1198 z "},"ǖ":{"ha":732,"x_min":73,"x_max":656,"o":"m 656 705 l 656 0 l 544 0 l 544 115 l 541 115 q 317 -12 475 -12 q 138 57 203 -12 q 73 248 73 127 l 73 705 l 191 705 l 191 269 q 354 92 191 92 q 489 146 439 92 q 538 291 538 200 l 538 705 l 656 705 m 289 804 q 278 792 289 804 q 235 781 267 781 q 182 804 204 781 q 159 857 159 826 q 182 911 159 888 q 235 933 204 933 q 289 911 267 933 q 311 857 311 888 q 289 804 311 826 m 547 804 q 535 792 547 804 q 493 781 524 781 q 439 804 462 781 q 417 857 417 826 q 439 911 417 888 q 493 933 462 933 q 547 911 524 933 q 569 857 569 888 q 547 804 569 826 m 559 1111 l 559 1032 l 170 1032 l 170 1111 l 559 1111 z "},"Ǘ":{"ha":967,"x_min":95,"x_max":872,"o":"m 217 979 l 217 351 q 288 167 217 238 q 484 96 359 96 q 679 167 608 96 q 750 351 750 238 l 750 979 l 872 979 l 872 343 q 767 84 872 184 q 484 -16 663 -16 q 200 84 304 -16 q 95 343 95 184 l 95 979 l 217 979 m 428 1241 l 542 1388 l 657 1388 l 527 1241 l 428 1241 m 363 1054 q 313 1075 334 1054 q 292 1126 292 1096 q 313 1177 292 1156 q 363 1198 334 1198 q 413 1177 393 1198 q 434 1126 434 1156 q 413 1075 434 1096 q 363 1054 393 1054 m 604 1054 q 554 1075 574 1054 q 533 1126 533 1096 q 554 1177 533 1156 q 604 1198 574 1198 q 654 1177 633 1198 q 675 1126 675 1156 q 654 1075 675 1096 q 604 1054 633 1054 z "},"ǘ":{"ha":732,"x_min":73,"x_max":656,"o":"m 656 705 l 656 0 l 544 0 l 544 115 l 541 115 q 317 -12 475 -12 q 138 57 203 -12 q 73 248 73 127 l 73 705 l 191 705 l 191 269 q 354 92 191 92 q 489 146 439 92 q 538 291 538 200 l 538 705 l 656 705 m 303 1012 l 445 1213 l 556 1213 l 399 1012 l 303 1012 m 291 804 q 280 793 291 804 q 238 783 269 783 q 185 804 208 783 q 163 857 163 826 q 185 910 163 888 q 238 932 208 932 q 291 910 269 932 q 313 857 313 888 q 291 804 313 826 m 543 804 q 532 793 543 804 q 490 783 521 783 q 438 804 460 783 q 416 857 416 826 q 438 910 416 888 q 490 932 460 932 q 543 910 521 932 q 565 857 565 888 q 543 804 565 826 z "},"Ǚ":{"ha":967,"x_min":95,"x_max":872,"o":"m 217 979 l 217 351 q 288 167 217 238 q 484 96 359 96 q 679 167 608 96 q 750 351 750 238 l 750 979 l 872 979 l 872 343 q 767 84 872 184 q 484 -16 663 -16 q 200 84 304 -16 q 95 343 95 184 l 95 979 l 217 979 m 432 1232 l 253 1389 l 371 1389 l 481 1291 l 486 1291 l 596 1389 l 714 1389 l 535 1232 l 432 1232 m 363 1198 q 413 1177 393 1198 q 434 1126 434 1156 q 413 1075 434 1096 q 363 1054 393 1054 q 313 1075 334 1054 q 292 1126 292 1096 q 313 1177 292 1156 q 363 1198 334 1198 m 604 1198 q 654 1177 633 1198 q 675 1126 675 1156 q 654 1075 675 1096 q 604 1054 633 1054 q 554 1075 574 1054 q 533 1126 533 1096 q 554 1177 533 1156 q 604 1198 574 1198 z "},"ǚ":{"ha":732,"x_min":73,"x_max":656,"o":"m 656 705 l 656 0 l 544 0 l 544 115 l 541 115 q 317 -12 475 -12 q 138 57 203 -12 q 73 248 73 127 l 73 705 l 191 705 l 191 269 q 354 92 191 92 q 489 146 439 92 q 538 291 538 200 l 538 705 l 656 705 m 289 804 q 278 792 289 804 q 235 781 267 781 q 182 804 204 781 q 159 857 159 826 q 182 911 159 888 q 235 933 204 933 q 289 911 267 933 q 311 857 311 888 q 289 804 311 826 m 547 804 q 535 792 547 804 q 493 781 524 781 q 439 804 462 781 q 417 857 417 826 q 439 911 417 888 q 493 933 462 933 q 547 911 524 933 q 569 857 569 888 q 547 804 569 826 m 410 996 l 318 996 l 134 1185 l 245 1185 l 362 1065 l 366 1065 l 484 1185 l 595 1185 l 410 996 z "},"Ǜ":{"ha":967,"x_min":95,"x_max":872,"o":"m 217 979 l 217 351 q 288 167 217 238 q 484 96 359 96 q 679 167 608 96 q 750 351 750 238 l 750 979 l 872 979 l 872 343 q 767 84 872 184 q 484 -16 663 -16 q 200 84 304 -16 q 95 343 95 184 l 95 979 l 217 979 m 532 1241 l 433 1241 l 303 1388 l 418 1388 l 532 1241 m 363 1054 q 313 1075 334 1054 q 292 1126 292 1096 q 313 1177 292 1156 q 363 1198 334 1198 q 413 1177 393 1198 q 434 1126 434 1156 q 413 1075 434 1096 q 363 1054 393 1054 m 604 1054 q 554 1075 574 1054 q 533 1126 533 1096 q 554 1177 533 1156 q 604 1198 574 1198 q 654 1177 633 1198 q 675 1126 675 1156 q 654 1075 675 1096 q 604 1054 633 1054 z "},"ǜ":{"ha":732,"x_min":73,"x_max":656,"o":"m 656 705 l 656 0 l 544 0 l 544 115 l 541 115 q 317 -12 475 -12 q 138 57 203 -12 q 73 248 73 127 l 73 705 l 191 705 l 191 269 q 354 92 191 92 q 489 146 439 92 q 538 291 538 200 l 538 705 l 656 705 m 425 1012 l 329 1012 l 172 1213 l 283 1213 l 425 1012 m 291 804 q 280 793 291 804 q 238 783 269 783 q 185 804 208 783 q 163 857 163 826 q 185 910 163 888 q 238 932 208 932 q 291 910 269 932 q 313 857 313 888 q 291 804 313 826 m 543 804 q 532 793 543 804 q 490 783 521 783 q 438 804 460 783 q 416 857 416 826 q 438 910 416 888 q 490 932 460 932 q 543 910 521 932 q 565 857 565 888 q 543 804 565 826 z "},"ǝ":{"ha":724,"x_min":49,"x_max":675,"o":"m 357 90 q 495 145 441 90 q 555 294 549 201 l 171 294 q 223 145 172 201 q 357 90 275 90 m 174 522 l 58 522 q 162 664 83 611 q 354 718 241 718 q 589 619 503 718 q 675 353 675 521 q 589 87 675 186 q 356 -12 502 -12 q 131 83 213 -12 q 49 342 49 178 l 51 386 l 555 386 l 555 391 q 499 555 555 494 q 354 616 444 616 q 174 522 222 616 z "},"Ǟ":{"ha":876,"x_min":17,"x_max":859,"o":"m 731 0 l 633 280 l 243 280 l 145 0 l 17 0 l 378 979 l 498 979 l 859 0 l 731 0 m 436 830 l 279 384 l 597 384 l 440 830 l 436 830 m 318 1198 q 368 1177 347 1198 q 389 1126 389 1156 q 368 1075 389 1096 q 318 1054 347 1054 q 268 1075 288 1054 q 247 1126 247 1096 q 268 1177 247 1156 q 318 1198 288 1198 m 223 1373 l 653 1373 l 653 1295 l 223 1295 l 223 1373 m 558 1198 q 609 1177 588 1198 q 629 1126 629 1156 q 609 1075 629 1096 q 558 1054 588 1054 q 508 1075 529 1054 q 488 1126 488 1096 q 508 1177 488 1156 q 558 1198 529 1198 z "},"ǟ":{"ha":697,"x_min":48,"x_max":624,"o":"m 309 88 q 449 140 393 88 q 506 268 506 192 l 506 326 l 317 314 q 207 279 246 309 q 168 199 168 250 q 207 119 168 149 q 309 88 245 88 m 283 -12 q 113 46 178 -12 q 48 199 48 104 q 115 345 48 290 q 304 406 182 399 l 506 417 l 506 476 q 465 577 506 541 q 351 614 425 614 q 242 584 284 614 q 189 502 200 555 l 75 502 q 156 657 81 596 q 354 718 232 718 q 551 655 478 718 q 624 488 624 593 l 624 0 l 512 0 l 512 121 l 509 121 q 416 24 477 61 q 283 -12 354 -12 m 271 804 q 259 792 271 804 q 217 781 248 781 q 163 804 186 781 q 141 857 141 826 q 163 911 141 888 q 217 933 186 933 q 271 911 248 933 q 293 857 293 888 q 271 804 293 826 m 528 804 q 517 792 528 804 q 475 781 506 781 q 421 804 444 781 q 399 857 399 826 q 421 911 399 888 q 475 933 444 933 q 528 911 506 933 q 551 857 551 888 q 528 804 551 826 m 541 1111 l 541 1032 l 151 1032 l 151 1111 l 541 1111 z "},"Ǡ":{"ha":876,"x_min":17,"x_max":859,"o":"m 731 0 l 633 280 l 243 280 l 145 0 l 17 0 l 378 979 l 498 979 l 859 0 l 731 0 m 436 830 l 279 384 l 597 384 l 440 830 l 436 830 m 494 1090 q 483 1079 494 1090 q 438 1067 471 1067 q 382 1090 405 1067 q 359 1147 359 1114 q 382 1202 359 1179 q 438 1225 405 1225 q 494 1202 471 1225 q 517 1147 517 1179 q 494 1090 517 1114 m 653 1373 l 653 1295 l 223 1295 l 223 1373 l 653 1373 z "},"ǡ":{"ha":697,"x_min":48,"x_max":624,"o":"m 309 88 q 449 140 393 88 q 506 268 506 192 l 506 326 l 317 314 q 207 279 246 309 q 168 199 168 250 q 207 119 168 149 q 309 88 245 88 m 283 -12 q 113 46 178 -12 q 48 199 48 104 q 115 345 48 290 q 304 406 182 399 l 506 417 l 506 476 q 465 577 506 541 q 351 614 425 614 q 242 584 284 614 q 189 502 200 555 l 75 502 q 156 657 81 596 q 354 718 232 718 q 551 655 478 718 q 624 488 624 593 l 624 0 l 512 0 l 512 121 l 509 121 q 416 24 477 61 q 283 -12 354 -12 m 404 818 q 392 806 404 818 q 346 794 380 794 q 288 818 312 794 q 263 877 263 842 q 288 935 263 910 q 346 960 312 960 q 404 935 380 960 q 429 877 429 910 q 404 818 429 842 m 541 1111 l 541 1032 l 151 1032 l 151 1111 l 541 1111 z "},"Ǣ":{"ha":1338,"x_min":3,"x_max":1245,"o":"m 544 876 l 326 415 l 652 415 l 652 876 l 544 876 m 652 0 l 652 311 l 276 311 l 129 0 l 3 0 l 469 979 l 1245 979 l 1245 869 l 774 869 l 774 548 l 1220 548 l 1220 439 l 774 439 l 774 110 l 1245 110 l 1245 0 l 652 0 m 1164 1187 l 1164 1108 l 734 1108 l 734 1187 l 1164 1187 z "},"ǣ":{"ha":1159,"x_min":45,"x_max":1116,"o":"m 825 -12 q 672 28 739 -12 q 571 138 606 68 l 564 138 q 453 27 521 66 q 299 -12 386 -12 q 114 45 182 -12 q 45 199 45 102 q 113 343 45 290 q 309 402 182 396 l 505 412 l 505 462 q 459 571 505 528 q 342 614 414 614 q 234 583 276 614 q 187 501 193 551 l 72 501 q 150 656 77 595 q 338 718 222 718 q 491 681 426 718 q 581 578 555 644 l 587 578 q 684 682 623 646 q 826 718 745 718 q 1038 622 960 718 q 1116 366 1116 526 l 1116 321 l 623 321 l 623 314 q 678 152 623 214 q 826 90 734 90 q 932 120 888 90 q 992 202 976 151 l 1108 202 q 1014 48 1093 109 q 825 -12 935 -12 m 817 615 q 682 559 735 615 q 623 413 629 503 l 995 413 q 944 560 993 505 q 817 615 896 615 m 303 89 q 447 141 388 89 q 505 268 505 194 l 505 321 l 321 311 q 205 278 245 307 q 165 201 165 250 q 203 120 165 151 q 303 89 241 89 m 777 929 l 777 850 l 388 850 l 388 929 l 777 929 z "},"Ǧ":{"ha":981,"x_min":57,"x_max":920,"o":"m 920 405 q 811 95 920 206 q 505 -16 701 -16 q 179 122 300 -16 q 57 494 57 261 q 178 859 57 724 q 505 995 300 995 q 775 908 664 995 q 914 675 887 821 l 786 675 q 682 828 755 774 q 505 882 608 882 q 268 780 354 882 q 182 495 182 677 q 269 203 182 311 q 505 96 356 96 q 717 173 635 96 q 798 373 798 250 l 798 391 l 522 391 l 522 498 l 920 498 l 920 405 m 460 1051 l 268 1253 l 380 1253 l 503 1123 l 507 1123 l 630 1253 l 743 1253 l 551 1051 l 460 1051 z "},"ǧ":{"ha":763,"x_min":42,"x_max":686,"o":"m 363 98 q 512 169 456 98 q 568 355 568 239 q 512 543 568 472 q 363 614 456 614 q 217 544 272 614 q 163 355 163 473 q 217 168 163 237 q 363 98 272 98 m 368 -266 q 168 -207 252 -266 q 70 -58 85 -149 l 191 -58 q 258 -136 209 -107 q 372 -165 307 -165 q 516 -117 463 -165 q 568 10 568 -69 l 568 121 l 566 121 q 473 29 532 63 q 340 -5 413 -5 q 123 93 205 -5 q 42 355 42 191 q 124 619 42 521 q 342 718 205 718 q 477 683 417 718 q 572 587 536 648 l 574 587 l 574 705 l 686 705 l 686 14 q 600 -189 686 -113 q 368 -266 513 -266 m 410 807 l 319 807 l 135 1010 l 245 1010 l 363 878 l 367 878 l 484 1010 l 595 1010 l 410 807 z "},"Ǩ":{"ha":854,"x_min":95,"x_max":846,"o":"m 217 0 l 95 0 l 95 979 l 217 979 l 217 501 l 224 501 l 656 979 l 810 979 l 408 545 l 846 0 l 690 0 l 323 458 l 217 342 l 217 0 m 368 1051 l 176 1253 l 288 1253 l 411 1123 l 415 1123 l 538 1253 l 650 1253 l 458 1051 l 368 1051 z "},"ǩ":{"ha":674,"x_min":-96,"x_max":665,"o":"m 201 392 l 513 705 l 656 705 l 350 401 l 665 0 l 528 0 l 267 328 l 201 266 l 201 0 l 83 0 l 83 979 l 201 979 l 201 392 m 96 1051 l -96 1253 l 17 1253 l 140 1123 l 144 1123 l 267 1253 l 379 1253 l 187 1051 l 96 1051 z "},"Ǫ":{"ha":1016,"x_min":57,"x_max":959,"o":"m 665 -292 q 554 -256 597 -292 q 510 -164 510 -221 q 604 -7 510 -77 l 604 -4 q 508 -16 543 -16 q 178 120 300 -16 q 57 489 57 256 q 178 859 57 722 q 508 995 300 995 q 838 859 716 995 q 959 489 959 722 q 904 229 959 342 q 732 15 850 117 q 682 -30 698 -15 q 645 -66 665 -45 q 617 -105 625 -88 q 609 -140 609 -123 q 632 -188 609 -171 q 690 -204 654 -204 q 745 -198 715 -204 l 745 -280 q 665 -292 722 -292 m 746 776 q 702 829 746 776 q 508 882 658 882 q 270 776 358 882 q 182 489 182 670 q 270 202 182 309 q 508 96 358 96 q 746 202 658 96 q 833 489 833 309 q 746 776 833 670 z "},"ǫ":{"ha":737,"x_min":42,"x_max":695,"o":"m 486 -279 q 377 -245 420 -279 q 334 -156 334 -211 q 419 -12 334 -73 l 419 -9 q 369 -12 392 -12 q 132 86 221 -12 q 42 353 42 185 q 132 619 42 520 q 369 718 221 718 q 606 619 516 718 q 695 353 695 520 q 543 23 695 145 q 431 -129 431 -64 q 453 -177 431 -160 q 510 -194 475 -194 q 564 -188 535 -194 l 564 -268 q 486 -279 541 -279 m 218 161 q 246 126 218 161 q 369 92 274 92 q 519 160 464 92 q 575 353 575 229 q 519 545 575 476 q 369 614 464 614 q 218 545 274 614 q 162 353 162 475 q 218 161 162 230 z "},"Ǭ":{"ha":1015,"x_min":57,"x_max":959,"o":"m 665 -292 q 554 -256 597 -292 q 510 -164 510 -221 q 604 -7 510 -77 l 604 -4 q 508 -16 543 -16 q 178 120 300 -16 q 57 489 57 256 q 178 859 57 722 q 508 995 300 995 q 838 859 716 995 q 959 489 959 722 q 904 229 959 342 q 732 15 850 117 q 682 -30 698 -15 q 645 -66 665 -45 q 617 -105 625 -88 q 609 -140 609 -123 q 632 -188 609 -171 q 690 -204 654 -204 q 745 -198 715 -204 l 745 -280 q 665 -292 722 -292 m 746 776 q 702 829 746 776 q 508 882 658 882 q 270 776 358 882 q 182 489 182 670 q 270 202 182 309 q 508 96 358 96 q 746 202 658 96 q 833 489 833 309 q 746 776 833 670 m 723 1187 l 723 1108 l 293 1108 l 293 1187 l 723 1187 z "},"ǭ":{"ha":737,"x_min":42,"x_max":695,"o":"m 486 -279 q 377 -245 420 -279 q 334 -156 334 -211 q 419 -12 334 -73 l 419 -9 q 369 -12 392 -12 q 132 86 221 -12 q 42 353 42 185 q 132 619 42 520 q 369 718 221 718 q 606 619 516 718 q 695 353 695 520 q 543 23 695 145 q 431 -129 431 -64 q 453 -177 431 -160 q 510 -194 475 -194 q 564 -188 535 -194 l 564 -268 q 486 -279 541 -279 m 218 161 q 246 126 218 161 q 369 92 274 92 q 519 160 464 92 q 575 353 575 229 q 519 545 575 476 q 369 614 464 614 q 218 545 274 614 q 162 353 162 475 q 218 161 162 230 m 564 929 l 564 850 l 174 850 l 174 929 l 564 929 z "},"Ǳ":{"ha":1805,"x_min":95,"x_max":1739,"o":"m 95 979 l 424 979 q 764 849 642 979 q 886 490 886 720 q 764 129 886 258 q 424 0 642 0 l 95 0 l 95 979 m 217 869 l 217 110 l 416 110 q 671 208 582 110 q 761 488 761 306 q 672 770 761 672 q 416 869 583 869 l 217 869 m 1015 0 l 1015 87 l 1573 864 l 1573 869 l 1034 869 l 1034 979 l 1727 979 l 1727 892 l 1172 115 l 1172 110 l 1739 110 l 1739 0 l 1015 0 z "},"ǲ":{"ha":1620,"x_min":95,"x_max":1537,"o":"m 95 979 l 424 979 q 764 849 642 979 q 886 490 886 720 q 764 129 886 258 q 424 0 642 0 l 95 0 l 95 979 m 217 869 l 217 110 l 416 110 q 671 208 582 110 q 761 488 761 306 q 672 770 761 672 q 416 869 583 869 l 217 869 m 1010 0 l 1010 84 l 1401 606 l 1401 608 l 1011 608 l 1011 705 l 1535 705 l 1535 619 l 1147 99 l 1147 97 l 1537 97 l 1537 0 l 1010 0 z "},"ǳ":{"ha":1467,"x_min":42,"x_max":1383,"o":"m 344 -12 q 125 87 208 -12 q 42 353 42 187 q 125 617 42 517 q 341 718 208 718 q 475 684 416 718 q 566 591 534 650 l 568 591 l 568 979 l 686 979 l 686 0 l 574 0 l 574 119 l 572 119 q 478 23 537 58 q 344 -12 419 -12 m 366 614 q 218 543 273 614 q 163 353 163 472 q 218 162 163 233 q 366 92 273 92 q 513 163 458 92 q 569 353 569 235 q 513 542 569 471 q 366 614 457 614 m 857 0 l 857 84 l 1248 606 l 1248 608 l 858 608 l 858 705 l 1381 705 l 1381 619 l 994 99 l 994 97 l 1383 97 l 1383 0 l 857 0 z "},"Ǵ":{"ha":981,"x_min":57,"x_max":920,"o":"m 920 405 q 811 95 920 206 q 505 -16 701 -16 q 179 122 300 -16 q 57 494 57 261 q 178 859 57 724 q 505 995 300 995 q 775 908 664 995 q 914 675 887 821 l 786 675 q 682 828 755 774 q 505 882 608 882 q 268 780 354 882 q 182 495 182 677 q 269 203 182 311 q 505 96 356 96 q 717 173 635 96 q 798 373 798 250 l 798 391 l 522 391 l 522 498 l 920 498 l 920 405 m 566 1058 l 462 1058 l 611 1254 l 743 1254 l 566 1058 z "},"ǵ":{"ha":763,"x_min":42,"x_max":686,"o":"m 363 98 q 512 169 456 98 q 568 355 568 239 q 512 543 568 472 q 363 614 456 614 q 217 544 272 614 q 163 355 163 473 q 217 168 163 237 q 363 98 272 98 m 368 -266 q 168 -207 252 -266 q 70 -58 85 -149 l 191 -58 q 258 -136 209 -107 q 372 -165 307 -165 q 516 -117 463 -165 q 568 10 568 -69 l 568 121 l 566 121 q 473 29 532 63 q 340 -5 413 -5 q 123 93 205 -5 q 42 355 42 191 q 124 619 42 521 q 342 718 205 718 q 477 683 417 718 q 572 587 536 648 l 574 587 l 574 705 l 686 705 l 686 14 q 600 -189 686 -113 q 368 -266 513 -266 m 418 807 l 315 807 l 458 1010 l 585 1010 l 418 807 z "},"Ǹ":{"ha":971,"x_min":95,"x_max":876,"o":"m 216 0 l 95 0 l 95 979 l 214 979 l 749 210 l 755 210 l 755 979 l 876 979 l 876 0 l 758 0 l 222 766 l 216 766 l 216 0 m 425 1058 l 248 1254 l 380 1254 l 529 1058 l 425 1058 z "},"ǹ":{"ha":732,"x_min":77,"x_max":659,"o":"m 77 0 l 77 705 l 188 705 l 188 593 l 191 593 q 278 685 221 652 q 414 718 335 718 q 594 648 530 718 q 659 458 659 578 l 659 0 l 541 0 l 541 437 q 500 568 541 523 q 378 613 459 613 q 245 559 295 613 q 195 415 195 505 l 195 0 l 77 0 m 411 807 l 308 807 l 141 1010 l 269 1010 l 411 807 z "},"Ǻ":{"ha":876,"x_min":17,"x_max":859,"o":"m 731 0 l 633 280 l 243 280 l 145 0 l 17 0 l 378 979 l 498 979 l 859 0 l 731 0 m 436 830 l 279 384 l 597 384 l 440 830 l 436 830 m 527 1047 q 508 1029 527 1047 q 438 1010 490 1010 q 350 1047 387 1010 q 313 1136 313 1084 q 350 1225 313 1188 q 438 1261 387 1261 q 527 1225 490 1261 q 564 1136 564 1188 q 527 1047 564 1084 m 390 1087 q 400 1077 390 1087 q 438 1067 410 1067 q 487 1087 467 1067 q 507 1136 507 1107 q 487 1184 507 1164 q 438 1204 467 1204 q 390 1184 410 1204 q 370 1136 370 1164 q 390 1087 370 1107 m 480 1421 l 586 1421 l 487 1295 l 393 1295 l 480 1421 z "},"ǻ":{"ha":697,"x_min":48,"x_max":624,"o":"m 309 88 q 449 140 393 88 q 506 268 506 192 l 506 326 l 317 314 q 207 279 246 309 q 168 199 168 250 q 207 119 168 149 q 309 88 245 88 m 283 -12 q 113 46 178 -12 q 48 199 48 104 q 115 345 48 290 q 304 406 182 399 l 506 417 l 506 476 q 465 577 506 541 q 351 614 425 614 q 242 584 284 614 q 189 502 200 555 l 75 502 q 156 657 81 596 q 354 718 232 718 q 551 655 478 718 q 624 488 624 593 l 624 0 l 512 0 l 512 121 l 509 121 q 416 24 477 61 q 283 -12 354 -12 m 437 806 q 418 787 437 806 q 346 768 399 768 q 254 806 292 768 q 216 897 216 844 q 254 989 216 951 q 346 1027 292 1027 q 437 989 399 1027 q 475 897 475 951 q 437 806 475 844 m 296 947 q 286 937 296 947 q 276 897 276 926 q 296 848 276 868 q 346 827 317 827 q 395 848 375 827 q 416 897 416 868 q 395 947 416 926 q 346 967 375 967 q 296 947 317 967 m 298 1080 l 381 1213 l 487 1213 l 392 1080 l 298 1080 z "},"Ǽ":{"ha":1338,"x_min":3,"x_max":1245,"o":"m 544 876 l 326 415 l 652 415 l 652 876 l 544 876 m 652 0 l 652 311 l 276 311 l 129 0 l 3 0 l 469 979 l 1245 979 l 1245 869 l 774 869 l 774 548 l 1220 548 l 1220 439 l 774 439 l 774 110 l 1245 110 l 1245 0 l 652 0 m 874 1058 l 770 1058 l 919 1254 l 1050 1254 l 874 1058 z "},"ǽ":{"ha":1159,"x_min":45,"x_max":1116,"o":"m 825 -12 q 672 28 739 -12 q 571 138 606 68 l 564 138 q 453 27 521 66 q 299 -12 386 -12 q 114 45 182 -12 q 45 199 45 102 q 113 343 45 290 q 309 402 182 396 l 505 412 l 505 462 q 459 571 505 528 q 342 614 414 614 q 234 583 276 614 q 187 501 193 551 l 72 501 q 150 656 77 595 q 338 718 222 718 q 491 681 426 718 q 581 578 555 644 l 587 578 q 684 682 623 646 q 826 718 745 718 q 1038 622 960 718 q 1116 366 1116 526 l 1116 321 l 623 321 l 623 314 q 678 152 623 214 q 826 90 734 90 q 932 120 888 90 q 992 202 976 151 l 1108 202 q 1014 48 1093 109 q 825 -12 935 -12 m 817 615 q 682 559 735 615 q 623 413 629 503 l 995 413 q 944 560 993 505 q 817 615 896 615 m 303 89 q 447 141 388 89 q 505 268 505 194 l 505 321 l 321 311 q 205 278 245 307 q 165 201 165 250 q 203 120 165 151 q 303 89 241 89 m 636 807 l 533 807 l 675 1010 l 803 1010 l 636 807 z "},"Ǿ":{"ha":1016,"x_min":57,"x_max":959,"o":"m 764 1254 l 587 1058 l 483 1058 l 632 1254 l 764 1254 m 770 743 l 319 156 q 508 96 397 96 q 746 202 658 96 q 833 489 833 309 q 770 743 833 643 m 259 216 l 715 808 q 508 882 633 882 q 270 776 358 882 q 182 489 182 670 q 259 216 182 320 m 937 962 l 848 846 q 959 489 959 711 q 838 120 959 256 q 508 -16 716 -16 q 245 60 355 -16 l 175 -32 l 107 20 l 182 116 q 57 489 57 254 q 178 859 57 722 q 508 995 300 995 q 789 904 677 995 l 871 1009 l 937 962 z "},"ǿ":{"ha":737,"x_min":42,"x_max":695,"o":"m 589 1010 l 422 807 l 319 807 l 462 1010 l 589 1010 m 534 524 l 262 121 q 369 92 309 92 q 519 160 464 92 q 575 353 575 229 q 534 524 575 456 m 205 180 l 479 582 q 369 614 432 614 q 218 545 274 614 q 162 353 162 475 q 205 180 162 245 m 647 691 l 602 623 q 695 353 695 523 q 606 87 695 186 q 369 -12 516 -12 q 201 31 275 -12 l 163 -25 l 96 20 l 137 81 q 42 353 42 180 q 132 619 42 520 q 369 718 221 718 q 541 672 467 718 l 582 732 l 647 691 z "},"Ȁ":{"ha":876,"x_min":17,"x_max":859,"o":"m 731 0 l 633 280 l 243 280 l 145 0 l 17 0 l 378 979 l 498 979 l 859 0 l 731 0 m 436 830 l 279 384 l 597 384 l 440 830 l 436 830 m 486 1058 l 309 1254 l 441 1254 l 590 1058 l 486 1058 m 269 1058 l 92 1254 l 224 1254 l 373 1058 l 269 1058 z "},"ȁ":{"ha":697,"x_min":26,"x_max":624,"o":"m 309 88 q 449 140 393 88 q 506 268 506 192 l 506 326 l 317 314 q 207 279 246 309 q 168 199 168 250 q 207 119 168 149 q 309 88 245 88 m 283 -12 q 113 46 178 -12 q 48 199 48 104 q 115 345 48 290 q 304 406 182 399 l 506 417 l 506 476 q 465 577 506 541 q 351 614 425 614 q 242 584 284 614 q 189 502 200 555 l 75 502 q 156 657 81 596 q 354 718 232 718 q 551 655 478 718 q 624 488 624 593 l 624 0 l 512 0 l 512 121 l 509 121 q 416 24 477 61 q 283 -12 354 -12 m 285 807 l 191 807 l 26 1010 l 152 1010 l 285 807 m 499 807 l 405 807 l 241 1010 l 366 1010 l 499 807 z "},"Ȃ":{"ha":876,"x_min":17,"x_max":859,"o":"m 731 0 l 633 280 l 243 280 l 145 0 l 17 0 l 378 979 l 498 979 l 859 0 l 731 0 m 436 830 l 279 384 l 597 384 l 440 830 l 436 830 m 220 1046 q 286 1193 227 1133 q 438 1253 345 1253 q 590 1193 532 1253 q 656 1046 649 1133 l 570 1046 q 528 1142 564 1107 q 438 1177 492 1177 q 349 1142 385 1177 q 307 1046 313 1107 l 220 1046 z "},"ȃ":{"ha":697,"x_min":48,"x_max":624,"o":"m 309 88 q 449 140 393 88 q 506 268 506 192 l 506 326 l 317 314 q 207 279 246 309 q 168 199 168 250 q 207 119 168 149 q 309 88 245 88 m 283 -12 q 113 46 178 -12 q 48 199 48 104 q 115 345 48 290 q 304 406 182 399 l 506 417 l 506 476 q 465 577 506 541 q 351 614 425 614 q 242 584 284 614 q 189 502 200 555 l 75 502 q 156 657 81 596 q 354 718 232 718 q 551 655 478 718 q 624 488 624 593 l 624 0 l 512 0 l 512 121 l 509 121 q 416 24 477 61 q 283 -12 354 -12 m 127 807 q 187 959 127 901 q 346 1017 246 1017 q 505 959 446 1017 q 564 807 564 901 l 479 807 q 441 905 479 868 q 346 943 404 943 q 250 905 288 943 q 213 807 213 868 l 127 807 z "},"Ȅ":{"ha":767,"x_min":52,"x_max":701,"o":"m 701 110 l 701 0 l 95 0 l 95 979 l 701 979 l 701 869 l 217 869 l 217 555 l 676 555 l 676 446 l 217 446 l 217 110 l 701 110 m 446 1058 l 269 1254 l 401 1254 l 550 1058 l 446 1058 m 229 1058 l 52 1254 l 184 1254 l 333 1058 l 229 1058 z "},"ȅ":{"ha":711,"x_min":42,"x_max":669,"o":"m 359 615 q 223 558 277 615 q 164 413 170 502 l 547 413 q 494 559 545 503 q 359 615 442 615 m 545 202 l 661 202 q 563 48 645 109 q 367 -12 481 -12 q 129 85 216 -12 q 42 350 42 183 q 129 616 42 515 q 361 718 216 718 q 587 622 504 718 q 669 366 669 526 l 669 321 l 163 321 l 163 314 q 219 151 163 212 q 370 90 275 90 q 483 121 436 90 q 545 202 530 151 m 300 807 l 206 807 l 42 1010 l 168 1010 l 300 807 m 515 807 l 420 807 l 256 1010 l 382 1010 l 515 807 z "},"Ȇ":{"ha":767,"x_min":95,"x_max":701,"o":"m 701 110 l 701 0 l 95 0 l 95 979 l 701 979 l 701 869 l 217 869 l 217 555 l 676 555 l 676 446 l 217 446 l 217 110 l 701 110 m 180 1046 q 246 1193 187 1133 q 398 1253 304 1253 q 550 1193 492 1253 q 616 1046 609 1133 l 530 1046 q 488 1142 524 1107 q 398 1177 452 1177 q 309 1142 345 1177 q 267 1046 273 1107 l 180 1046 z "},"ȇ":{"ha":711,"x_min":42,"x_max":669,"o":"m 359 615 q 223 558 277 615 q 164 413 170 502 l 547 413 q 494 559 545 503 q 359 615 442 615 m 545 202 l 661 202 q 563 48 645 109 q 367 -12 481 -12 q 129 85 216 -12 q 42 350 42 183 q 129 616 42 515 q 361 718 216 718 q 587 622 504 718 q 669 366 669 526 l 669 321 l 163 321 l 163 314 q 219 151 163 212 q 370 90 275 90 q 483 121 436 90 q 545 202 530 151 m 143 807 q 202 959 143 901 q 361 1017 262 1017 q 520 959 461 1017 q 580 807 580 901 l 494 807 q 457 905 494 868 q 361 943 420 943 q 266 905 302 943 q 229 807 229 868 l 143 807 z "},"Ȉ":{"ha":312,"x_min":-190,"x_max":308,"o":"m 217 0 l 95 0 l 95 979 l 217 979 l 217 0 m 203 1058 l 27 1254 l 159 1254 l 308 1058 l 203 1058 m -14 1058 l -190 1254 l -58 1254 l 91 1058 l -14 1058 z "},"ȉ":{"ha":283,"x_min":-178,"x_max":295,"o":"m 83 0 l 83 705 l 201 705 l 201 0 l 83 0 m 81 807 l -14 807 l -178 1010 l -52 1010 l 81 807 m 295 807 l 201 807 l 37 1010 l 162 1010 l 295 807 z "},"Ȋ":{"ha":312,"x_min":-62,"x_max":374,"o":"m 217 0 l 95 0 l 95 979 l 217 979 l 217 0 m -62 1046 q 4 1193 -55 1133 q 156 1253 62 1253 q 308 1193 250 1253 q 374 1046 367 1133 l 288 1046 q 245 1142 281 1107 q 156 1177 210 1177 q 66 1142 102 1177 q 24 1046 31 1107 l -62 1046 z "},"ȋ":{"ha":283,"x_min":-77,"x_max":360,"o":"m 83 0 l 83 705 l 201 705 l 201 0 l 83 0 m -77 807 q -17 959 -77 901 q 142 1017 42 1017 q 301 959 241 1017 q 360 807 360 901 l 275 807 q 238 905 275 868 q 142 943 201 943 q 46 905 83 943 q 9 807 9 868 l -77 807 z "},"Ȍ":{"ha":1016,"x_min":57,"x_max":959,"o":"m 178 859 q 239 927 178 859 q 508 995 300 995 q 838 859 716 995 q 959 489 959 722 q 838 120 959 256 q 508 -16 716 -16 q 178 120 300 -16 q 57 489 57 256 q 178 859 57 722 m 746 776 q 702 829 746 776 q 508 882 658 882 q 270 776 358 882 q 182 489 182 670 q 270 202 182 309 q 508 96 358 96 q 746 202 658 96 q 833 489 833 309 q 746 776 833 670 m 555 1058 l 379 1254 l 511 1254 l 660 1058 l 555 1058 m 338 1058 l 162 1254 l 294 1254 l 443 1058 l 338 1058 z "},"ȍ":{"ha":737,"x_min":42,"x_max":695,"o":"m 369 -12 q 132 86 221 -12 q 42 353 42 185 q 132 619 42 520 q 369 718 221 718 q 606 619 516 718 q 695 353 695 520 q 606 87 695 186 q 369 -12 516 -12 m 218 161 q 246 126 218 161 q 369 92 274 92 q 519 160 464 92 q 575 353 575 229 q 519 545 575 476 q 369 614 464 614 q 218 545 274 614 q 162 353 162 475 q 218 161 162 230 m 308 807 l 214 807 l 50 1010 l 175 1010 l 308 807 m 522 807 l 428 807 l 264 1010 l 389 1010 l 522 807 z "},"Ȏ":{"ha":1016,"x_min":57,"x_max":959,"o":"m 178 859 q 239 927 178 859 q 508 995 300 995 q 838 859 716 995 q 959 489 959 722 q 838 120 959 256 q 508 -16 716 -16 q 178 120 300 -16 q 57 489 57 256 q 178 859 57 722 m 746 776 q 702 829 746 776 q 508 882 658 882 q 270 776 358 882 q 182 489 182 670 q 270 202 182 309 q 508 96 358 96 q 746 202 658 96 q 833 489 833 309 q 746 776 833 670 m 290 1046 q 356 1193 297 1133 q 508 1253 414 1253 q 660 1193 602 1253 q 726 1046 719 1133 l 640 1046 q 597 1142 633 1107 q 508 1177 562 1177 q 418 1142 454 1177 q 376 1046 382 1107 l 290 1046 z "},"ȏ":{"ha":737,"x_min":42,"x_max":695,"o":"m 369 -12 q 132 86 221 -12 q 42 353 42 185 q 132 619 42 520 q 369 718 221 718 q 606 619 516 718 q 695 353 695 520 q 606 87 695 186 q 369 -12 516 -12 m 218 161 q 246 126 218 161 q 369 92 274 92 q 519 160 464 92 q 575 353 575 229 q 519 545 575 476 q 369 614 464 614 q 218 545 274 614 q 162 353 162 475 q 218 161 162 230 m 151 807 q 210 959 151 901 q 369 1017 269 1017 q 528 959 469 1017 q 587 807 587 901 l 502 807 q 465 905 502 868 q 369 943 427 943 q 273 905 311 943 q 236 807 236 868 l 151 807 z "},"Ȑ":{"ha":832,"x_min":17,"x_max":804,"o":"m 217 870 l 217 495 l 451 495 q 596 544 545 495 q 648 683 648 593 q 594 821 648 771 q 446 870 541 870 l 217 870 m 217 387 l 217 0 l 95 0 l 95 979 l 462 979 q 689 899 604 979 q 774 687 774 819 q 722 510 774 585 q 577 406 669 435 l 804 0 l 661 0 l 451 387 l 217 387 m 410 1058 l 234 1254 l 366 1254 l 515 1058 l 410 1058 m 193 1058 l 17 1254 l 149 1254 l 298 1058 l 193 1058 z "},"ȑ":{"ha":428,"x_min":-79,"x_max":409,"o":"m 77 0 l 77 705 l 188 705 l 188 590 l 191 590 q 254 683 208 649 q 361 718 300 718 q 409 713 376 718 l 409 598 q 346 605 390 605 q 236 559 277 605 q 195 439 195 514 l 195 0 l 77 0 m 180 807 l 85 807 l -79 1010 l 47 1010 l 180 807 m 394 807 l 300 807 l 136 1010 l 261 1010 l 394 807 z "},"Ȓ":{"ha":832,"x_min":95,"x_max":804,"o":"m 217 870 l 217 495 l 451 495 q 596 544 545 495 q 648 683 648 593 q 594 821 648 771 q 446 870 541 870 l 217 870 m 217 387 l 217 0 l 95 0 l 95 979 l 462 979 q 689 899 604 979 q 774 687 774 819 q 722 510 774 585 q 577 406 669 435 l 804 0 l 661 0 l 451 387 l 217 387 m 145 1046 q 211 1193 152 1133 q 363 1253 269 1253 q 515 1193 456 1253 q 581 1046 574 1133 l 494 1046 q 452 1142 488 1107 q 363 1177 416 1177 q 273 1142 309 1177 q 231 1046 237 1107 l 145 1046 z "},"ȓ":{"ha":428,"x_min":22,"x_max":459,"o":"m 77 0 l 77 705 l 188 705 l 188 590 l 191 590 q 254 683 208 649 q 361 718 300 718 q 409 713 376 718 l 409 598 q 346 605 390 605 q 236 559 277 605 q 195 439 195 514 l 195 0 l 77 0 m 22 807 q 82 959 22 901 q 241 1017 141 1017 q 400 959 340 1017 q 459 807 459 901 l 374 807 q 337 905 374 868 q 241 943 300 943 q 145 905 182 943 q 108 807 108 868 l 22 807 z "},"Ȕ":{"ha":967,"x_min":95,"x_max":872,"o":"m 217 979 l 217 351 q 288 167 217 238 q 484 96 359 96 q 679 167 608 96 q 750 351 750 238 l 750 979 l 872 979 l 872 343 q 767 84 872 184 q 484 -16 663 -16 q 200 84 304 -16 q 95 343 95 184 l 95 979 l 217 979 m 531 1058 l 355 1254 l 486 1254 l 635 1058 l 531 1058 m 314 1058 l 138 1254 l 269 1254 l 418 1058 l 314 1058 z "},"ȕ":{"ha":732,"x_min":45,"x_max":656,"o":"m 656 705 l 656 0 l 544 0 l 544 115 l 541 115 q 317 -12 475 -12 q 138 57 203 -12 q 73 248 73 127 l 73 705 l 191 705 l 191 269 q 354 92 191 92 q 489 146 439 92 q 538 291 538 200 l 538 705 l 656 705 m 303 807 l 209 807 l 45 1010 l 170 1010 l 303 807 m 517 807 l 423 807 l 259 1010 l 385 1010 l 517 807 z "},"Ȗ":{"ha":967,"x_min":95,"x_max":872,"o":"m 217 979 l 217 351 q 288 167 217 238 q 484 96 359 96 q 679 167 608 96 q 750 351 750 238 l 750 979 l 872 979 l 872 343 q 767 84 872 184 q 484 -16 663 -16 q 200 84 304 -16 q 95 343 95 184 l 95 979 l 217 979 m 266 1046 q 331 1193 273 1133 q 484 1253 390 1253 q 636 1193 577 1253 q 701 1046 694 1133 l 615 1046 q 573 1142 609 1107 q 484 1177 537 1177 q 394 1142 430 1177 q 352 1046 358 1107 l 266 1046 z "},"ȗ":{"ha":732,"x_min":73,"x_max":656,"o":"m 656 705 l 656 0 l 544 0 l 544 115 l 541 115 q 317 -12 475 -12 q 138 57 203 -12 q 73 248 73 127 l 73 705 l 191 705 l 191 269 q 354 92 191 92 q 489 146 439 92 q 538 291 538 200 l 538 705 l 656 705 m 146 807 q 205 959 146 901 q 364 1017 264 1017 q 523 959 464 1017 q 583 807 583 901 l 497 807 q 460 905 497 868 q 364 943 423 943 q 268 905 305 943 q 231 807 231 868 l 146 807 z "},"Ș":{"ha":825,"x_min":48,"x_max":777,"o":"m 48 269 l 171 269 q 249 142 180 190 q 422 94 317 94 q 586 141 522 94 q 651 260 651 188 q 606 361 651 321 q 462 427 561 401 l 336 460 q 138 556 201 494 q 76 718 76 618 q 173 918 76 840 q 422 995 269 995 q 663 917 568 995 q 763 715 759 838 l 641 715 q 573 840 633 794 q 418 885 513 885 q 263 840 323 885 q 203 724 203 795 q 247 632 203 668 q 390 571 290 597 l 492 544 q 711 443 644 506 q 777 275 777 380 q 679 62 777 140 q 411 -16 580 -16 q 156 62 255 -16 q 48 269 57 140 m 392 -330 l 307 -330 l 380 -86 l 483 -86 l 392 -330 z "},"ș":{"ha":646,"x_min":45,"x_max":601,"o":"m 64 511 q 138 660 64 602 q 328 718 212 718 q 509 659 437 718 q 586 511 582 601 l 473 511 q 428 592 467 563 q 323 621 388 621 q 220 592 259 621 q 180 517 180 564 q 298 415 180 445 l 407 389 q 557 318 513 361 q 601 197 601 275 q 522 46 601 105 q 320 -12 444 -12 q 130 45 205 -12 q 45 197 55 102 l 163 197 q 328 84 183 84 q 440 112 399 84 q 482 189 482 140 q 457 249 482 227 q 374 287 433 271 l 250 319 q 64 511 64 366 m 301 -330 l 216 -330 l 289 -86 l 392 -86 l 301 -330 z "},"Ț":{"ha":807,"x_min":34,"x_max":773,"o":"m 465 0 l 342 0 l 342 869 l 34 869 l 34 979 l 773 979 l 773 869 l 465 869 l 465 0 m 365 -330 l 279 -330 l 353 -86 l 456 -86 l 365 -330 z "},"ț":{"ha":418,"x_min":9,"x_max":370,"o":"m 115 876 l 233 876 l 233 705 l 370 705 l 370 608 l 233 608 l 233 189 q 254 118 233 141 q 320 96 275 96 q 369 99 349 96 l 369 0 q 294 -5 346 -5 q 156 38 197 -5 q 115 183 115 81 l 115 608 l 9 608 l 9 705 l 115 705 l 115 876 m 223 -330 l 138 -330 l 211 -86 l 314 -86 l 223 -330 z "},"Ȟ":{"ha":971,"x_min":95,"x_max":876,"o":"m 876 0 l 754 0 l 754 446 l 217 446 l 217 0 l 95 0 l 95 979 l 217 979 l 217 555 l 754 555 l 754 979 l 876 979 l 876 0 m 440 1051 l 248 1253 l 361 1253 l 484 1123 l 488 1123 l 610 1253 l 723 1253 l 531 1051 l 440 1051 z "},"ȟ":{"ha":749,"x_min":-95,"x_max":675,"o":"m 83 0 l 83 979 l 201 979 l 201 593 l 203 593 q 291 685 233 652 q 427 718 348 718 q 609 646 543 718 q 675 456 675 575 l 675 0 l 557 0 l 557 434 q 515 566 557 519 q 391 613 473 613 q 252 558 303 613 q 201 411 201 503 l 201 0 l 83 0 m 97 1051 l -95 1253 l 18 1253 l 140 1123 l 144 1123 l 267 1253 l 380 1253 l 188 1051 l 97 1051 z "},"Ȧ":{"ha":876,"x_min":17,"x_max":859,"o":"m 731 0 l 633 280 l 243 280 l 145 0 l 17 0 l 378 979 l 498 979 l 859 0 l 731 0 m 436 830 l 279 384 l 597 384 l 440 830 l 436 830 m 496 1099 q 484 1087 496 1099 q 438 1075 472 1075 q 380 1099 404 1075 q 356 1157 356 1123 q 380 1215 356 1191 q 438 1239 404 1239 q 496 1215 472 1239 q 520 1157 520 1191 q 496 1099 520 1123 z "},"ȧ":{"ha":697,"x_min":48,"x_max":624,"o":"m 309 88 q 449 140 393 88 q 506 268 506 192 l 506 326 l 317 314 q 207 279 246 309 q 168 199 168 250 q 207 119 168 149 q 309 88 245 88 m 283 -12 q 113 46 178 -12 q 48 199 48 104 q 115 345 48 290 q 304 406 182 399 l 506 417 l 506 476 q 465 577 506 541 q 351 614 425 614 q 242 584 284 614 q 189 502 200 555 l 75 502 q 156 657 81 596 q 354 718 232 718 q 551 655 478 718 q 624 488 624 593 l 624 0 l 512 0 l 512 121 l 509 121 q 416 24 477 61 q 283 -12 354 -12 m 405 839 q 393 827 405 839 q 346 814 380 814 q 287 839 311 814 q 262 899 262 864 q 287 958 262 933 q 346 983 311 983 q 405 958 380 983 q 430 899 430 933 q 405 839 430 864 z "},"Ȩ":{"ha":767,"x_min":95,"x_max":701,"o":"m 701 869 l 217 869 l 217 555 l 676 555 l 676 446 l 217 446 l 217 110 l 701 110 l 701 0 l 452 0 l 414 -88 q 520 -118 481 -90 q 559 -197 559 -146 q 515 -284 559 -253 q 401 -317 470 -316 q 299 -308 334 -319 l 299 -239 q 384 -247 335 -247 q 470 -198 470 -247 q 447 -165 470 -175 q 371 -155 423 -155 l 323 -155 l 323 -108 l 366 0 l 95 0 l 95 979 l 701 979 l 701 869 z "},"ȩ":{"ha":711,"x_min":42,"x_max":669,"o":"m 164 413 l 547 413 q 494 559 545 503 q 359 615 442 615 q 223 558 277 615 q 164 413 170 502 m 669 321 l 163 321 l 163 314 q 219 151 163 212 q 370 90 275 90 q 483 121 436 90 q 545 202 530 151 l 661 202 q 580 62 647 119 q 416 -9 513 4 l 382 -88 q 489 -118 450 -90 q 528 -197 528 -146 q 483 -284 528 -253 q 369 -317 438 -316 q 267 -308 302 -319 l 267 -239 q 352 -247 303 -247 q 438 -198 438 -247 q 415 -165 438 -175 q 339 -155 391 -155 l 292 -155 l 292 -108 l 330 -11 q 119 97 195 1 q 42 350 42 193 q 129 616 42 515 q 361 718 216 718 q 587 622 504 718 q 669 366 669 526 l 669 321 z "},"Ȫ":{"ha":1016,"x_min":57,"x_max":959,"o":"m 178 859 q 239 927 178 859 q 508 995 300 995 q 838 859 716 995 q 959 489 959 722 q 838 120 959 256 q 508 -16 716 -16 q 178 120 300 -16 q 57 489 57 256 q 178 859 57 722 m 746 776 q 702 829 746 776 q 508 882 658 882 q 270 776 358 882 q 182 489 182 670 q 270 202 182 309 q 508 96 358 96 q 746 202 658 96 q 833 489 833 309 q 746 776 833 670 m 388 1198 q 438 1177 417 1198 q 458 1126 458 1156 q 438 1075 458 1096 q 388 1054 417 1054 q 337 1075 358 1054 q 317 1126 317 1096 q 337 1177 317 1156 q 388 1198 358 1198 m 293 1373 l 723 1373 l 723 1295 l 293 1295 l 293 1373 m 628 1198 q 679 1177 658 1198 q 699 1126 699 1156 q 679 1075 699 1096 q 628 1054 658 1054 q 578 1075 599 1054 q 557 1126 557 1096 q 578 1177 557 1156 q 628 1198 599 1198 z "},"ȫ":{"ha":737,"x_min":42,"x_max":695,"o":"m 369 -12 q 132 86 221 -12 q 42 353 42 185 q 132 619 42 520 q 369 718 221 718 q 606 619 516 718 q 695 353 695 520 q 606 87 695 186 q 369 -12 516 -12 m 218 161 q 246 126 218 161 q 369 92 274 92 q 519 160 464 92 q 575 353 575 229 q 519 545 575 476 q 369 614 464 614 q 218 545 274 614 q 162 353 162 475 q 218 161 162 230 m 294 804 q 282 792 294 804 q 240 781 271 781 q 186 804 209 781 q 164 857 164 826 q 186 911 164 888 q 240 933 209 933 q 294 911 271 933 q 316 857 316 888 q 294 804 316 826 m 551 804 q 540 792 551 804 q 498 781 529 781 q 444 804 467 781 q 422 857 422 826 q 444 911 422 888 q 498 933 467 933 q 551 911 529 933 q 574 857 574 888 q 551 804 574 826 m 564 1111 l 564 1032 l 174 1032 l 174 1111 l 564 1111 z "},"Ȭ":{"ha":1016,"x_min":57,"x_max":959,"o":"m 178 859 q 239 927 178 859 q 508 995 300 995 q 838 859 716 995 q 959 489 959 722 q 838 120 959 256 q 508 -16 716 -16 q 178 120 300 -16 q 57 489 57 256 q 178 859 57 722 m 746 776 q 702 829 746 776 q 508 882 658 882 q 270 776 358 882 q 182 489 182 670 q 270 202 182 309 q 508 96 358 96 q 746 202 658 96 q 833 489 833 309 q 746 776 833 670 m 593 1046 q 548 1056 570 1046 q 511 1081 526 1066 q 481 1111 495 1096 q 452 1136 467 1126 q 423 1146 437 1146 q 387 1123 400 1146 q 376 1059 374 1099 l 301 1059 q 334 1177 301 1134 q 424 1220 368 1220 q 469 1210 448 1220 q 505 1185 490 1200 q 535 1155 521 1170 q 565 1130 549 1140 q 594 1120 580 1120 q 628 1142 616 1120 q 640 1208 640 1165 l 715 1208 q 681 1090 715 1135 q 593 1046 647 1046 m 723 1373 l 723 1295 l 293 1295 l 293 1373 l 723 1373 z "},"ȭ":{"ha":737,"x_min":42,"x_max":695,"o":"m 369 -12 q 132 86 221 -12 q 42 353 42 185 q 132 619 42 520 q 369 718 221 718 q 606 619 516 718 q 695 353 695 520 q 606 87 695 186 q 369 -12 516 -12 m 218 161 q 246 126 218 161 q 369 92 274 92 q 519 160 464 92 q 575 353 575 229 q 519 545 575 476 q 369 614 464 614 q 218 545 274 614 q 162 353 162 475 q 218 161 162 230 m 460 777 q 402 793 430 777 q 358 829 375 810 q 321 864 342 848 q 283 880 301 880 q 247 855 260 880 q 235 784 233 830 l 155 784 q 190 911 155 866 q 284 957 225 957 q 334 946 311 957 q 374 921 357 936 q 404 890 390 905 q 433 864 418 875 q 461 854 448 854 q 495 879 483 854 q 508 951 508 903 l 588 951 q 552 824 588 871 q 460 777 517 777 m 564 1111 l 564 1032 l 174 1032 l 174 1111 l 564 1111 z "},"Ȯ":{"ha":1016,"x_min":57,"x_max":959,"o":"m 178 859 q 239 927 178 859 q 508 995 300 995 q 838 859 716 995 q 959 489 959 722 q 838 120 959 256 q 508 -16 716 -16 q 178 120 300 -16 q 57 489 57 256 q 178 859 57 722 m 746 776 q 702 829 746 776 q 508 882 658 882 q 270 776 358 882 q 182 489 182 670 q 270 202 182 309 q 508 96 358 96 q 746 202 658 96 q 833 489 833 309 q 746 776 833 670 m 566 1099 q 554 1087 566 1099 q 508 1075 542 1075 q 450 1099 474 1075 q 426 1157 426 1123 q 450 1215 426 1191 q 508 1239 474 1239 q 566 1215 542 1239 q 590 1157 590 1191 q 566 1099 590 1123 z "},"ȯ":{"ha":737,"x_min":42,"x_max":695,"o":"m 369 -12 q 132 86 221 -12 q 42 353 42 185 q 132 619 42 520 q 369 718 221 718 q 606 619 516 718 q 695 353 695 520 q 606 87 695 186 q 369 -12 516 -12 m 218 161 q 246 126 218 161 q 369 92 274 92 q 519 160 464 92 q 575 353 575 229 q 519 545 575 476 q 369 614 464 614 q 218 545 274 614 q 162 353 162 475 q 218 161 162 230 m 428 839 q 416 827 428 839 q 369 814 404 814 q 310 839 334 814 q 285 899 285 864 q 310 958 285 933 q 369 983 334 983 q 428 958 404 983 q 453 899 453 933 q 428 839 453 864 z "},"Ȱ":{"ha":1016,"x_min":57,"x_max":959,"o":"m 178 859 q 239 927 178 859 q 508 995 300 995 q 838 859 716 995 q 959 489 959 722 q 838 120 959 256 q 508 -16 716 -16 q 178 120 300 -16 q 57 489 57 256 q 178 859 57 722 m 746 776 q 702 829 746 776 q 508 882 658 882 q 270 776 358 882 q 182 489 182 670 q 270 202 182 309 q 508 96 358 96 q 746 202 658 96 q 833 489 833 309 q 746 776 833 670 m 564 1090 q 553 1079 564 1090 q 508 1067 541 1067 q 452 1090 475 1067 q 429 1147 429 1114 q 452 1202 429 1179 q 508 1225 475 1225 q 564 1202 541 1225 q 587 1147 587 1179 q 564 1090 587 1114 m 723 1373 l 723 1295 l 293 1295 l 293 1373 l 723 1373 z "},"ȱ":{"ha":737,"x_min":42,"x_max":695,"o":"m 369 -12 q 132 86 221 -12 q 42 353 42 185 q 132 619 42 520 q 369 718 221 718 q 606 619 516 718 q 695 353 695 520 q 606 87 695 186 q 369 -12 516 -12 m 218 161 q 246 126 218 161 q 369 92 274 92 q 519 160 464 92 q 575 353 575 229 q 519 545 575 476 q 369 614 464 614 q 218 545 274 614 q 162 353 162 475 q 218 161 162 230 m 427 818 q 415 806 427 818 q 369 794 403 794 q 311 818 335 794 q 286 877 286 842 q 311 935 286 910 q 369 960 335 960 q 427 935 403 960 q 452 877 452 910 q 427 818 452 842 m 564 1111 l 564 1032 l 174 1032 l 174 1111 l 564 1111 z "},"Ȳ":{"ha":850,"x_min":17,"x_max":833,"o":"m 486 0 l 364 0 l 364 421 l 17 979 l 156 979 l 423 539 l 427 539 l 694 979 l 833 979 l 486 421 l 486 0 m 640 1187 l 640 1108 l 210 1108 l 210 1187 l 640 1187 z "},"ȳ":{"ha":675,"x_min":16,"x_max":659,"o":"m 135 -264 q 84 -260 104 -264 l 84 -161 q 130 -164 100 -164 q 210 -138 180 -164 q 260 -50 239 -112 l 276 -1 l 16 705 l 142 705 l 337 118 l 339 118 l 534 705 l 659 705 l 381 -50 q 283 -218 336 -173 q 135 -264 231 -264 m 532 929 l 532 850 l 143 850 l 143 929 l 532 929 z "},"ȷ":{"ha":283,"x_min":-40,"x_max":201,"o":"m 201 705 l 201 -35 q 148 -192 201 -142 q -18 -243 95 -243 q -40 -242 -39 -243 l -40 -144 l -22 -144 q 59 -119 36 -144 q 83 -36 83 -95 l 83 705 l 201 705 z "},"ʼ":{"ha":365,"x_min":87,"x_max":278,"o":"m 185 633 l 87 633 l 153 979 l 278 979 l 185 633 z "},"ˆ":{"ha":682,"x_min":111,"x_max":571,"o":"m 387 1077 l 571 873 l 460 873 l 343 1004 l 339 1004 l 222 873 l 111 873 l 296 1077 l 387 1077 z "},"ˇ":{"ha":682,"x_min":111,"x_max":571,"o":"m 387 873 l 296 873 l 111 1077 l 222 1077 l 339 944 l 343 944 l 460 1077 l 571 1077 l 387 873 z "},"˘":{"ha":678,"x_min":121,"x_max":557,"o":"m 121 1077 l 206 1077 q 243 978 206 1015 q 339 940 281 940 q 435 978 397 940 q 472 1077 472 1015 l 557 1077 q 498 925 557 983 q 339 867 439 867 q 180 925 239 867 q 121 1077 121 983 z "},"˙":{"ha":609,"x_min":220,"x_max":389,"o":"m 364 906 q 351 893 364 906 q 304 881 339 881 q 245 906 270 881 q 220 965 220 930 q 245 1024 220 1000 q 304 1049 270 1049 q 364 1024 339 1049 q 389 965 389 1000 q 364 906 389 930 z "},"˚":{"ha":711,"x_min":226,"x_max":485,"o":"m 447 873 q 428 854 447 873 q 355 836 409 836 q 264 873 302 836 q 226 965 226 911 q 264 1057 226 1019 q 355 1095 302 1095 q 447 1057 409 1095 q 485 965 485 1019 q 447 873 485 911 m 306 916 q 316 905 306 916 q 355 895 326 895 q 405 916 385 895 q 425 965 425 936 q 405 1015 425 994 q 355 1035 385 1035 q 306 1015 326 1035 q 286 965 286 994 q 306 916 286 936 z "},"˛":{"ha":678,"x_min":230,"x_max":454,"o":"m 454 -221 l 454 -304 q 374 -315 419 -315 q 269 -281 309 -315 q 230 -189 230 -247 q 260 -90 230 -139 q 346 0 290 -41 l 422 0 q 350 -80 372 -43 q 328 -156 328 -117 q 349 -208 328 -189 q 406 -227 370 -227 q 454 -221 431 -227 z "},"˜":{"ha":682,"x_min":125,"x_max":557,"o":"m 430 879 q 372 895 399 879 q 328 930 345 911 q 291 966 311 949 q 253 982 271 982 q 216 957 229 982 q 205 886 203 932 l 125 886 q 160 1013 125 968 q 254 1059 195 1059 q 303 1048 280 1059 q 343 1022 327 1038 q 374 992 359 1007 q 402 966 388 977 q 431 956 417 956 q 465 980 452 956 q 477 1053 477 1005 l 557 1053 q 522 926 557 972 q 430 879 486 879 z "},"˝":{"ha":678,"x_min":104,"x_max":576,"o":"m 319 873 l 452 1077 l 576 1077 l 412 873 l 319 873 m 104 873 l 237 1077 l 362 1077 l 198 873 l 104 873 z "},"̀":{"ha":0,"x_min":-227,"x_max":43,"o":"m 43 833 l -60 833 l -227 1036 l -99 1036 l 43 833 z "},"́":{"ha":0,"x_min":-50,"x_max":220,"o":"m 54 833 l -50 833 l 93 1036 l 220 1036 l 54 833 z "},"̂":{"ha":0,"x_min":-230,"x_max":230,"o":"m 45 1036 l 230 833 l 119 833 l 2 963 l -2 963 l -119 833 l -230 833 l -45 1036 l 45 1036 z "},"̃":{"ha":0,"x_min":-214,"x_max":219,"o":"m 92 838 q 34 854 61 838 q -11 890 6 871 q -47 925 -27 909 q -85 941 -68 941 q -122 916 -109 941 q -134 845 -136 891 l -214 845 q -179 972 -214 927 q -85 1018 -144 1018 q -35 1007 -58 1018 q 5 982 -12 997 q 35 951 21 966 q 64 925 50 936 q 92 915 79 915 q 126 940 114 915 q 139 1012 139 964 l 219 1012 q 183 885 219 932 q 92 838 148 838 z "},"̄":{"ha":0,"x_min":-195,"x_max":195,"o":"m 195 955 l 195 876 l -195 876 l -195 955 l 195 955 z "},"̆":{"ha":0,"x_min":-219,"x_max":218,"o":"m -219 1036 l -134 1036 q -96 937 -134 975 q -1 899 -59 899 q 95 937 58 899 q 132 1036 132 975 l 218 1036 q 158 884 218 943 q -1 826 99 826 q -160 884 -100 826 q -219 1036 -219 943 z "},"̇":{"ha":0,"x_min":-84,"x_max":84,"o":"m 59 865 q 47 853 59 865 q 0 840 35 840 q -59 865 -35 840 q -84 924 -84 890 q -59 984 -84 959 q 0 1008 -35 1008 q 59 984 35 1008 q 84 924 84 959 q 59 865 84 890 z "},"̈":{"ha":0,"x_min":-201,"x_max":201,"o":"m -74 863 q -85 852 -74 863 q -126 842 -96 842 q -179 863 -157 842 q -201 916 -201 885 q -179 969 -201 947 q -126 991 -157 991 q -74 969 -96 991 q -52 916 -52 947 q -74 863 -52 885 m 179 863 q 168 852 179 863 q 126 842 157 842 q 74 863 96 842 q 52 916 52 885 q 74 969 52 947 q 126 991 96 991 q 179 969 157 991 q 201 916 201 947 q 179 863 201 885 z "},"̉":{"ha":0,"x_min":-80,"x_max":138,"o":"m -80 968 l -80 1040 q 11 1057 -39 1057 q 103 1024 68 1057 q 138 938 138 992 q 109 859 138 895 q 28 805 79 823 l -13 862 q 50 933 50 883 q 32 970 50 955 q -11 985 14 985 q -80 968 -42 985 z "},"̊":{"ha":0,"x_min":-130,"x_max":130,"o":"m 92 831 q 73 812 92 831 q 0 793 54 793 q -92 831 -54 793 q -130 923 -130 869 q -92 1015 -130 977 q 0 1053 -54 1053 q 92 1015 54 1053 q 130 923 130 977 q 92 831 130 869 m -50 873 q -39 863 -50 873 q 0 853 -29 853 q 50 873 29 853 q 70 923 70 894 q 50 972 70 952 q 0 993 29 993 q -50 972 -29 993 q -70 923 -70 952 q -50 873 -70 894 z "},"̋":{"ha":0,"x_min":-153,"x_max":319,"o":"m 61 833 l 194 1036 l 319 1036 l 155 833 l 61 833 m -153 833 l -20 1036 l 104 1036 l -60 833 l -153 833 z "},"̌":{"ha":0,"x_min":-230,"x_max":230,"o":"m 45 833 l -45 833 l -230 1036 l -119 1036 l -2 903 l 2 903 l 119 1036 l 230 1036 l 45 833 z "},"̏":{"ha":0,"x_min":-319,"x_max":153,"o":"m -61 833 l -155 833 l -319 1036 l -194 1036 l -61 833 m 153 833 l 59 833 l -105 1036 l 20 1036 l 153 833 z "},"̑":{"ha":0,"x_min":-218,"x_max":218,"o":"m -218 833 q -159 985 -218 927 q 0 1043 -100 1043 q 159 985 100 1043 q 218 833 218 927 l 133 833 q 96 931 133 894 q 0 968 58 968 q -96 931 -58 968 q -133 833 -133 894 l -218 833 z "},"̛":{"ha":0,"x_min":0,"x_max":260,"o":"m 0 618 l 0 713 q 70 684 27 684 q 133 711 114 684 q 152 801 152 739 l 152 907 l 260 907 l 260 768 q 213 638 260 688 q 92 589 167 589 q 0 618 37 589 z "},"̣":{"ha":0,"x_min":-82,"x_max":82,"o":"m 58 -240 q 46 -252 58 -240 q 0 -264 34 -264 q -58 -240 -34 -264 q -82 -182 -82 -216 q -58 -124 -82 -148 q 0 -100 -34 -100 q 58 -124 34 -100 q 82 -182 82 -148 q 58 -240 82 -216 z "},"̤":{"ha":0,"x_min":-201,"x_max":201,"o":"m -74 -208 q -85 -219 -74 -208 q -126 -230 -96 -230 q -179 -208 -157 -230 q -201 -155 -201 -186 q -179 -102 -201 -124 q -126 -81 -157 -81 q -74 -102 -96 -81 q -52 -155 -52 -124 q -74 -208 -52 -186 m 179 -208 q 168 -219 179 -208 q 126 -230 157 -230 q 74 -208 96 -230 q 52 -155 52 -186 q 74 -102 52 -124 q 126 -81 96 -81 q 179 -102 157 -81 q 201 -155 201 -124 q 179 -208 201 -186 z "},"̥":{"ha":0,"x_min":-130,"x_max":130,"o":"m 92 -281 q 73 -300 92 -281 q 0 -319 54 -319 q -92 -281 -54 -319 q -130 -190 -130 -243 q -92 -98 -130 -136 q 0 -60 -54 -60 q 92 -98 54 -60 q 130 -190 130 -136 q 92 -281 130 -243 m -50 -239 q -39 -250 -50 -239 q 0 -260 -29 -260 q 50 -239 29 -260 q 70 -190 70 -219 q 50 -140 70 -161 q 0 -120 29 -120 q -50 -140 -29 -120 q -70 -190 -70 -161 q -50 -239 -70 -219 z "},"̦":{"ha":0,"x_min":-104,"x_max":72,"o":"m -19 -330 l -104 -330 l -31 -86 l 72 -86 l -19 -330 z "},"̧":{"ha":0,"x_min":-99,"x_max":161,"o":"m -75 -155 l -75 -108 l -30 5 l 54 5 l 54 0 l 16 -88 q 122 -118 83 -90 q 161 -197 161 -146 q 117 -284 161 -253 q 3 -317 72 -316 q -99 -308 -64 -319 l -99 -239 q -14 -247 -63 -247 q 72 -198 72 -247 q 48 -165 72 -175 q -27 -155 25 -155 l -75 -155 z "},"̨":{"ha":0,"x_min":-146,"x_max":78,"o":"m 78 -221 l 78 -304 q -2 -315 43 -315 q -106 -281 -67 -315 q -146 -189 -146 -247 q -116 -90 -146 -139 q -30 0 -85 -41 l 46 0 q -26 -80 -3 -43 q -48 -156 -48 -117 q -27 -208 -48 -189 q 31 -227 -5 -227 q 78 -221 55 -227 z "},"̭":{"ha":0,"x_min":-237,"x_max":237,"o":"m -45 -86 l 45 -86 l 237 -288 l 125 -288 l 2 -158 l -2 -158 l -125 -288 l -237 -288 l -45 -86 z "},"̮":{"ha":0,"x_min":-218,"x_max":218,"o":"m -218 -68 l -132 -68 q -90 -164 -125 -129 q 0 -199 -54 -199 q 90 -164 54 -199 q 132 -68 125 -129 l 218 -68 q 152 -215 211 -155 q 0 -275 94 -275 q -152 -215 -94 -275 q -218 -68 -211 -155 z "},"̰":{"ha":0,"x_min":-216,"x_max":216,"o":"m 89 -233 q 31 -217 58 -233 q -13 -182 3 -201 q -50 -146 -30 -163 q -88 -130 -71 -130 q -125 -155 -112 -130 q -136 -227 -138 -180 l -216 -227 q -181 -99 -216 -144 q -87 -54 -146 -54 q -38 -64 -61 -54 q 2 -90 -14 -75 q 33 -120 18 -105 q 61 -146 47 -136 q 90 -157 76 -157 q 124 -132 111 -157 q 136 -60 136 -107 l 216 -60 q 181 -186 216 -140 q 89 -233 145 -233 z "},"̱":{"ha":0,"x_min":-215,"x_max":215,"o":"m 215 -147 l 215 -226 l -215 -226 l -215 -147 l 215 -147 z "},";":{"ha":353,"x_min":59,"x_max":254,"o":"m 231 515 q 220 504 231 515 q 176 492 209 492 q 121 515 144 492 q 99 570 99 537 q 121 625 99 602 q 176 647 144 647 q 231 625 209 647 q 254 570 254 602 q 231 515 254 537 m 157 -195 l 59 -195 l 125 151 l 250 151 l 157 -195 z "},"΄":{"ha":585,"x_min":194,"x_max":393,"o":"m 194 807 l 245 1010 l 393 1010 l 291 807 l 194 807 z "},"΅":{"ha":821,"x_min":144,"x_max":676,"o":"m 274 837 q 263 826 274 837 q 220 814 252 814 q 167 837 189 814 q 144 890 144 859 q 167 944 144 922 q 220 966 189 966 q 274 944 252 966 q 296 890 296 922 q 274 837 296 859 m 654 837 q 643 826 654 837 q 600 814 631 814 q 547 837 569 814 q 524 890 524 859 q 547 944 524 922 q 600 966 569 966 q 654 944 632 966 q 676 890 676 922 q 654 837 676 859 m 338 807 l 359 1017 l 503 1017 l 429 807 l 338 807 z "},"Ά":{"ha":876,"x_min":17,"x_max":859,"o":"m 731 0 l 633 280 l 243 280 l 145 0 l 17 0 l 378 979 l 498 979 l 859 0 l 731 0 m 436 830 l 279 384 l 597 384 l 440 830 l 436 830 m 62 775 l 113 979 l 260 979 l 159 775 l 62 775 z "},"·":{"ha":353,"x_min":99,"x_max":254,"o":"m 231 599 q 220 588 231 599 q 176 576 209 576 q 121 599 144 576 q 99 654 99 621 q 121 709 99 686 q 176 731 144 731 q 231 709 209 731 q 254 654 254 686 q 231 599 254 621 z "},"Έ":{"ha":998,"x_min":32,"x_max":932,"o":"m 32 775 l 83 979 l 231 979 l 129 775 l 32 775 m 932 110 l 932 0 l 326 0 l 326 979 l 932 979 l 932 869 l 448 869 l 448 555 l 907 555 l 907 446 l 448 446 l 448 110 l 932 110 z "},"Ή":{"ha":1202,"x_min":32,"x_max":1107,"o":"m 32 743 l 83 947 l 231 947 l 129 743 l 32 743 m 1107 0 l 985 0 l 985 446 l 448 446 l 448 0 l 326 0 l 326 979 l 448 979 l 448 555 l 985 555 l 985 979 l 1107 979 l 1107 0 z "},"Ί":{"ha":543,"x_min":32,"x_max":448,"o":"m 32 743 l 83 947 l 231 947 l 129 743 l 32 743 m 448 0 l 326 0 l 326 979 l 448 979 l 448 0 z "},"Ό":{"ha":1139,"x_min":16,"x_max":1082,"o":"m 16 743 l 66 947 l 214 947 l 113 743 l 16 743 m 301 859 q 362 927 301 859 q 631 995 422 995 q 960 859 839 995 q 1082 489 1082 722 q 960 120 1082 256 q 631 -16 839 -16 q 301 120 422 -16 q 180 489 180 256 q 301 859 180 722 m 868 776 q 824 829 868 776 q 631 882 781 882 q 393 776 481 882 q 305 489 305 670 q 393 202 305 309 q 631 96 481 96 q 868 202 781 96 q 956 489 956 309 q 868 776 956 670 z "},"Ύ":{"ha":1102,"x_min":18,"x_max":1085,"o":"m 18 743 l 69 947 l 217 947 l 115 743 l 18 743 m 738 0 l 616 0 l 616 421 l 269 979 l 408 979 l 675 539 l 679 539 l 946 979 l 1085 979 l 738 421 l 738 0 z "},"Ώ":{"ha":1161,"x_min":36,"x_max":1090,"o":"m 36 743 l 87 947 l 235 947 l 133 743 l 36 743 m 965 538 q 879 789 965 696 q 643 882 792 882 q 407 789 494 882 q 321 538 321 696 q 377 309 321 407 q 552 131 433 210 l 552 0 l 195 0 l 195 110 l 406 110 l 406 115 q 251 295 306 184 q 195 541 195 406 q 251 777 195 673 q 409 938 307 880 q 643 995 511 995 q 877 938 775 995 q 1035 777 979 880 q 1090 541 1090 673 q 1035 295 1090 406 q 880 115 980 184 l 880 110 l 1090 110 l 1090 0 l 734 0 l 734 131 q 909 309 852 210 q 965 538 965 407 z "},"ΐ":{"ha":365,"x_min":-96,"x_max":435,"o":"m 78 705 l 196 705 l 196 189 q 217 118 196 141 q 283 96 238 96 q 332 99 312 96 l 332 3 q 258 -5 303 -5 q 119 38 161 -5 q 78 183 78 81 l 78 705 m 33 837 q 22 826 33 837 q -20 814 11 814 q -74 837 -52 814 q -96 890 -96 859 q -74 944 -96 922 q -20 966 -52 966 q 33 944 11 966 q 56 890 56 922 q 33 837 56 859 m 413 837 q 402 826 413 837 q 359 814 391 814 q 306 837 328 814 q 283 890 283 859 q 306 944 283 922 q 359 966 328 966 q 413 944 391 966 q 435 890 435 922 q 413 837 435 859 m 98 807 l 119 1017 l 262 1017 l 189 807 l 98 807 z "},"Α":{"ha":876,"x_min":17,"x_max":859,"o":"m 731 0 l 633 280 l 243 280 l 145 0 l 17 0 l 378 979 l 498 979 l 859 0 l 731 0 m 436 830 l 279 384 l 597 384 l 440 830 l 436 830 z "},"Β":{"ha":840,"x_min":95,"x_max":796,"o":"m 465 0 l 95 0 l 95 979 l 466 979 q 669 911 591 979 q 747 734 747 844 q 697 596 747 658 q 578 521 648 534 l 578 515 q 737 437 677 503 q 796 275 796 372 q 708 73 796 145 q 465 0 621 0 m 217 871 l 217 557 l 400 557 q 566 599 509 557 q 623 720 623 641 q 575 832 623 793 q 438 871 527 871 l 217 871 m 217 108 l 446 108 q 614 152 557 108 q 671 281 671 196 q 435 452 671 452 l 217 452 l 217 108 z "},"Γ":{"ha":720,"x_min":95,"x_max":675,"o":"m 217 0 l 95 0 l 95 979 l 675 979 l 675 869 l 217 869 l 217 0 z "},"Δ":{"ha":880,"x_min":37,"x_max":843,"o":"m 843 0 l 37 0 l 37 86 l 380 979 l 500 979 l 843 86 l 843 0 m 174 115 l 174 110 l 707 110 l 707 115 l 442 837 l 438 837 l 174 115 z "},"Ε":{"ha":767,"x_min":95,"x_max":701,"o":"m 701 110 l 701 0 l 95 0 l 95 979 l 701 979 l 701 869 l 217 869 l 217 555 l 676 555 l 676 446 l 217 446 l 217 110 l 701 110 z "},"Ζ":{"ha":857,"x_min":66,"x_max":790,"o":"m 66 0 l 66 87 l 625 864 l 625 869 l 85 869 l 85 979 l 779 979 l 779 892 l 223 115 l 223 110 l 790 110 l 790 0 l 66 0 z "},"Η":{"ha":971,"x_min":95,"x_max":876,"o":"m 876 0 l 754 0 l 754 446 l 217 446 l 217 0 l 95 0 l 95 979 l 217 979 l 217 555 l 754 555 l 754 979 l 876 979 l 876 0 z "},"Θ":{"ha":1023,"x_min":57,"x_max":966,"o":"m 717 433 l 307 433 l 307 543 l 717 543 l 717 433 m 511 995 q 844 859 723 995 q 966 489 966 723 q 844 119 966 255 q 511 -16 723 -16 q 179 120 300 -16 q 57 489 57 256 q 179 859 57 722 q 511 995 300 995 m 511 882 q 271 777 359 882 q 182 489 182 671 q 271 202 182 308 q 511 96 359 96 q 752 202 665 96 q 840 489 840 308 q 753 777 840 671 q 511 882 665 882 z "},"Ι":{"ha":312,"x_min":95,"x_max":217,"o":"m 217 0 l 95 0 l 95 979 l 217 979 l 217 0 z "},"Κ":{"ha":854,"x_min":95,"x_max":846,"o":"m 217 0 l 95 0 l 95 979 l 217 979 l 217 501 l 224 501 l 656 979 l 810 979 l 408 545 l 846 0 l 690 0 l 323 458 l 217 342 l 217 0 z "},"Λ":{"ha":849,"x_min":17,"x_max":832,"o":"m 704 0 l 427 823 l 422 823 l 145 0 l 17 0 l 364 979 l 485 979 l 832 0 l 704 0 z "},"Μ":{"ha":1154,"x_min":95,"x_max":1059,"o":"m 1059 0 l 945 0 l 945 754 l 941 754 l 629 7 l 526 7 l 214 754 l 209 754 l 209 0 l 95 0 l 95 979 l 237 979 l 574 162 l 580 162 l 918 979 l 1059 979 l 1059 0 z "},"Ν":{"ha":971,"x_min":95,"x_max":876,"o":"m 216 0 l 95 0 l 95 979 l 214 979 l 749 210 l 755 210 l 755 979 l 876 979 l 876 0 l 758 0 l 222 766 l 216 766 l 216 0 z "},"Ξ":{"ha":850,"x_min":66,"x_max":784,"o":"m 66 979 l 784 979 l 784 867 l 66 867 l 66 979 m 725 444 l 125 444 l 125 553 l 725 553 l 725 444 m 66 111 l 784 111 l 784 0 l 66 0 l 66 111 z "},"Ο":{"ha":1016,"x_min":57,"x_max":959,"o":"m 178 859 q 239 927 178 859 q 508 995 300 995 q 838 859 716 995 q 959 489 959 722 q 838 120 959 256 q 508 -16 716 -16 q 178 120 300 -16 q 57 489 57 256 q 178 859 57 722 m 746 776 q 702 829 746 776 q 508 882 658 882 q 270 776 358 882 q 182 489 182 670 q 270 202 182 309 q 508 96 358 96 q 746 202 658 96 q 833 489 833 309 q 746 776 833 670 z "},"Π":{"ha":958,"x_min":95,"x_max":863,"o":"m 863 0 l 741 0 l 741 869 l 217 869 l 217 0 l 95 0 l 95 979 l 863 979 l 863 0 z "},"Ρ":{"ha":802,"x_min":95,"x_max":758,"o":"m 95 979 l 444 979 q 670 891 582 979 q 758 665 758 803 q 669 437 758 526 q 443 349 581 349 l 217 349 l 217 0 l 95 0 l 95 979 m 217 870 l 217 458 l 412 458 q 574 512 517 458 q 632 665 632 567 q 575 816 632 762 q 412 870 517 870 l 217 870 z "},"Σ":{"ha":836,"x_min":66,"x_max":770,"o":"m 214 115 l 214 110 l 770 110 l 770 0 l 66 0 l 66 87 l 351 492 l 78 882 l 78 979 l 751 979 l 751 869 l 229 869 l 229 864 l 481 503 l 481 498 l 214 115 z "},"Τ":{"ha":807,"x_min":34,"x_max":773,"o":"m 465 0 l 342 0 l 342 869 l 34 869 l 34 979 l 773 979 l 773 869 l 465 869 l 465 0 z "},"Υ":{"ha":850,"x_min":17,"x_max":833,"o":"m 486 0 l 364 0 l 364 421 l 17 979 l 156 979 l 423 539 l 427 539 l 694 979 l 833 979 l 486 421 l 486 0 z "},"Φ":{"ha":1104,"x_min":50,"x_max":1054,"o":"m 845 257 q 887 300 845 257 q 929 487 929 342 q 845 716 929 631 q 613 807 761 802 l 613 167 q 845 257 761 172 m 259 716 q 217 674 259 716 q 175 487 175 631 q 259 257 175 342 q 491 167 343 172 l 491 807 q 259 716 343 802 m 613 -39 l 491 -39 l 491 58 q 170 183 289 66 q 50 487 50 299 q 170 791 50 675 q 491 916 289 907 l 491 1015 l 613 1015 l 613 916 q 935 791 815 907 q 1054 487 1054 675 q 935 183 1054 299 q 613 58 815 66 l 613 -39 z "},"Χ":{"ha":882,"x_min":31,"x_max":851,"o":"m 31 0 l 363 490 l 363 495 l 35 979 l 182 979 l 443 585 l 448 585 l 712 979 l 851 979 l 513 489 l 513 485 l 844 0 l 697 0 l 437 390 l 433 390 l 169 0 l 31 0 z "},"Ψ":{"ha":1070,"x_min":81,"x_max":989,"o":"m 596 0 l 474 0 l 474 230 q 189 335 297 231 q 81 609 81 439 l 81 979 l 203 979 l 203 613 q 274 415 203 486 q 474 342 344 345 l 474 979 l 596 979 l 596 342 q 797 415 726 345 q 867 613 867 486 l 867 979 l 989 979 l 989 609 q 881 334 989 439 q 596 230 772 230 l 596 0 z "},"Ω":{"ha":1036,"x_min":71,"x_max":966,"o":"m 840 538 q 754 789 840 696 q 518 882 667 882 q 282 789 369 882 q 196 538 196 696 q 252 309 196 407 q 427 131 309 210 l 427 0 l 71 0 l 71 110 l 281 110 l 281 115 q 126 295 181 184 q 71 541 71 406 q 126 777 71 673 q 284 938 182 880 q 518 995 386 995 q 752 938 650 995 q 910 777 854 880 q 966 541 966 673 q 910 295 966 406 q 755 115 855 184 l 755 110 l 966 110 l 966 0 l 609 0 l 609 131 q 784 309 728 210 q 840 538 840 407 z "},"Ϊ":{"ha":312,"x_min":-45,"x_max":357,"o":"m 217 0 l 95 0 l 95 979 l 217 979 l 217 0 m 82 1109 q 71 1099 82 1109 q 30 1088 60 1088 q -23 1109 -1 1088 q -45 1162 -45 1131 q -23 1215 -45 1194 q 30 1237 -1 1237 q 82 1215 60 1237 q 104 1162 104 1194 q 82 1109 104 1131 m 335 1109 q 324 1099 335 1109 q 282 1088 313 1088 q 230 1109 252 1088 q 208 1162 208 1131 q 230 1215 208 1194 q 282 1237 252 1237 q 335 1215 313 1237 q 357 1162 357 1194 q 335 1109 357 1131 z "},"Ϋ":{"ha":850,"x_min":17,"x_max":833,"o":"m 486 0 l 364 0 l 364 421 l 17 979 l 156 979 l 423 539 l 427 539 l 694 979 l 833 979 l 486 421 l 486 0 m 352 1109 q 341 1099 352 1109 q 299 1088 330 1088 q 247 1109 269 1088 q 224 1162 224 1131 q 247 1215 224 1194 q 299 1237 269 1237 q 352 1215 330 1237 q 374 1162 374 1194 q 352 1109 374 1131 m 604 1109 q 593 1099 604 1109 q 551 1088 582 1088 q 499 1109 521 1088 q 477 1162 477 1131 q 499 1215 477 1194 q 551 1237 521 1237 q 604 1215 582 1237 q 626 1162 626 1194 q 604 1109 626 1131 z "},"ά":{"ha":807,"x_min":42,"x_max":771,"o":"m 350 92 q 499 165 442 92 q 555 353 555 238 q 499 541 555 467 q 353 614 442 614 q 214 543 266 614 q 163 353 163 472 q 212 162 163 231 q 350 92 262 92 m 339 -12 q 123 89 204 -12 q 42 353 42 189 q 123 618 42 518 q 340 718 205 718 q 469 684 412 718 q 559 591 526 649 l 561 591 l 561 706 l 673 706 l 673 184 q 688 117 673 137 q 735 96 702 96 q 771 101 755 96 l 771 3 q 713 -5 751 -5 q 607 26 648 -5 q 557 115 567 56 l 557 115 l 553 115 q 470 25 530 61 q 339 -12 410 -12 m 312 807 l 363 1010 l 511 1010 l 409 807 l 312 807 z "},"έ":{"ha":691,"x_min":49,"x_max":659,"o":"m 334 -12 q 124 43 200 -12 q 49 191 49 99 q 82 292 49 250 q 176 351 115 334 l 176 353 q 91 414 121 373 q 61 510 61 454 q 137 660 61 603 q 347 718 213 718 q 562 654 485 718 q 649 481 639 591 l 532 481 q 505 554 524 526 q 444 598 486 581 q 336 614 403 614 q 215 585 255 615 q 174 506 174 554 q 336 406 174 406 l 436 406 l 436 306 l 336 306 q 214 277 258 306 q 170 201 170 249 q 213 120 170 148 q 341 92 256 92 q 478 125 428 92 q 541 221 528 159 l 659 221 q 556 52 643 115 q 334 -12 469 -12 m 307 807 l 357 1010 l 505 1010 l 404 807 l 307 807 z "},"ή":{"ha":806,"x_min":52,"x_max":732,"o":"m 732 -235 l 614 -235 l 614 426 q 577 567 614 522 q 450 613 540 613 q 322 558 370 613 q 274 416 274 504 l 274 0 l 156 0 l 156 523 q 140 590 156 570 q 91 611 124 611 q 52 606 70 611 l 52 705 q 121 712 89 712 q 262 622 233 712 q 268 595 267 600 l 271 595 q 357 687 305 657 q 484 718 408 718 q 669 649 606 718 q 732 456 732 580 l 732 -235 m 307 807 l 358 1010 l 506 1010 l 404 807 l 307 807 z "},"ί":{"ha":365,"x_min":78,"x_max":332,"o":"m 78 705 l 196 705 l 196 189 q 217 118 196 141 q 283 96 238 96 q 332 99 312 96 l 332 3 q 258 -5 303 -5 q 119 38 161 -5 q 78 183 78 81 l 78 705 m 85 807 l 136 1010 l 284 1010 l 182 807 l 85 807 z "},"ΰ":{"ha":707,"x_min":73,"x_max":652,"o":"m 350 -12 q 145 64 217 -12 q 73 279 73 140 l 73 705 l 191 705 l 191 285 q 349 94 191 94 q 486 163 440 94 q 532 361 532 232 q 518 549 532 479 q 465 705 505 618 l 585 705 q 633 558 614 646 q 652 378 652 469 q 573 89 652 191 q 350 -12 495 -12 m 221 837 q 210 826 221 837 q 168 814 199 814 q 114 837 136 814 q 92 890 92 859 q 114 944 92 922 q 168 966 136 966 q 221 944 199 966 q 243 890 243 922 q 221 837 243 859 m 601 837 q 590 826 601 837 q 547 814 578 814 q 494 837 516 814 q 471 890 471 859 q 494 944 471 922 q 547 966 516 966 q 601 944 579 966 q 623 890 623 922 q 601 837 623 859 m 286 807 l 307 1017 l 450 1017 l 376 807 l 286 807 z "},"α":{"ha":807,"x_min":42,"x_max":771,"o":"m 350 92 q 499 164 442 92 q 555 353 555 237 q 499 540 555 467 q 353 614 442 614 q 214 543 266 614 q 163 353 163 471 q 212 161 163 231 q 350 92 262 92 m 339 -12 q 123 88 204 -12 q 42 353 42 188 q 123 617 42 517 q 340 718 205 718 q 469 683 412 718 q 559 591 526 648 l 561 591 l 561 705 l 673 705 l 673 183 q 688 116 673 136 q 735 96 702 96 q 771 100 755 96 l 771 3 q 713 -5 751 -5 q 607 25 648 -5 q 557 114 567 56 l 557 115 l 553 115 q 470 24 530 60 q 339 -12 410 -12 z "},"β":{"ha":762,"x_min":77,"x_max":720,"o":"m 302 475 l 302 575 l 358 575 q 491 617 446 575 q 537 736 537 659 q 491 846 537 804 q 371 887 446 887 q 193 661 193 887 l 193 349 q 248 160 193 228 q 409 92 303 92 q 548 144 496 92 q 599 279 599 197 q 537 425 599 375 q 356 475 475 475 l 302 475 m 77 670 q 153 907 77 824 q 368 991 229 991 q 577 925 500 991 q 654 745 654 859 q 615 618 654 673 q 507 536 577 563 l 507 534 q 666 446 612 510 q 720 282 720 382 q 638 71 720 153 q 427 -12 556 -12 q 288 20 347 -12 q 197 112 229 53 l 195 112 l 195 -235 l 77 -235 l 77 670 z "},"γ":{"ha":719,"x_min":32,"x_max":657,"o":"m 395 -229 l 278 -229 l 278 -16 l 32 705 l 156 705 l 348 98 l 351 98 q 499 354 451 237 q 547 595 547 471 q 541 705 547 646 l 651 705 q 657 595 657 659 q 595 305 657 441 q 395 -18 534 170 l 395 -229 z "},"δ":{"ha":730,"x_min":42,"x_max":688,"o":"m 366 -12 q 132 80 222 -12 q 42 324 42 173 q 115 543 42 457 q 307 645 189 629 l 307 647 q 153 819 153 711 q 219 946 153 901 q 395 991 285 991 q 621 944 528 991 l 614 842 q 392 890 494 890 q 300 872 332 890 q 269 819 269 853 q 297 765 269 788 q 412 696 325 741 q 624 535 559 621 q 688 330 688 448 q 599 81 688 175 q 366 -12 510 -12 m 363 89 q 512 153 456 89 q 568 327 568 216 q 512 505 568 443 q 366 567 456 567 q 215 498 268 567 q 162 321 162 430 q 217 153 162 216 q 363 89 273 89 z "},"ε":{"ha":691,"x_min":49,"x_max":659,"o":"m 334 -12 q 124 43 200 -12 q 49 191 49 99 q 82 292 49 250 q 176 351 115 334 l 176 353 q 91 414 121 373 q 61 510 61 454 q 137 660 61 603 q 347 718 213 718 q 562 654 485 718 q 649 481 639 591 l 532 481 q 505 554 524 526 q 444 598 486 581 q 336 614 403 614 q 215 585 255 615 q 174 506 174 554 q 336 406 174 406 l 436 406 l 436 306 l 336 306 q 214 277 258 306 q 170 201 170 249 q 213 120 170 148 q 341 92 256 92 q 478 125 428 92 q 541 221 528 159 l 659 221 q 556 52 643 115 q 334 -12 469 -12 z "},"ζ":{"ha":581,"x_min":42,"x_max":590,"o":"m 541 -235 l 443 -215 q 477 -98 477 -152 q 448 -28 477 -55 q 330 26 418 -2 q 107 153 172 76 q 42 367 42 231 q 135 636 42 507 q 397 871 229 766 l 397 874 l 98 874 l 98 978 l 573 978 l 573 876 q 264 634 366 755 q 163 373 163 513 q 208 222 163 274 q 375 130 254 170 q 544 43 497 91 q 590 -79 590 -4 q 541 -235 590 -154 z "},"η":{"ha":806,"x_min":52,"x_max":732,"o":"m 732 -235 l 614 -235 l 614 426 q 577 567 614 522 q 450 613 540 613 q 322 558 370 613 q 274 416 274 504 l 274 0 l 156 0 l 156 523 q 140 590 156 570 q 91 611 124 611 q 52 606 70 611 l 52 705 q 121 712 89 712 q 262 622 233 712 q 268 595 267 600 l 271 595 q 357 687 305 657 q 484 718 408 718 q 669 649 606 718 q 732 456 732 580 l 732 -235 z "},"θ":{"ha":780,"x_min":62,"x_max":719,"o":"m 390 -12 q 145 117 229 -12 q 62 492 62 246 q 146 863 62 736 q 390 991 231 991 q 634 862 549 991 q 719 490 719 733 q 634 117 719 245 q 390 -12 549 -12 m 237 177 q 262 134 237 177 q 390 92 288 92 q 543 177 492 92 q 599 447 594 263 l 181 447 q 237 177 186 263 m 182 550 l 598 550 q 390 888 584 888 q 182 550 196 888 z "},"ι":{"ha":365,"x_min":78,"x_max":332,"o":"m 78 705 l 196 705 l 196 189 q 217 118 196 141 q 283 96 238 96 q 332 99 312 96 l 332 3 q 258 -5 303 -5 q 119 38 161 -5 q 78 183 78 81 l 78 705 z "},"κ":{"ha":735,"x_min":83,"x_max":702,"o":"m 83 0 l 83 705 l 199 705 l 199 330 l 201 330 l 422 589 q 520 683 481 659 q 614 707 559 707 q 677 700 647 707 l 677 600 q 628 606 661 606 q 570 588 597 606 q 497 515 544 570 l 421 425 l 702 0 l 570 0 l 349 345 l 199 182 l 199 0 l 83 0 z "},"λ":{"ha":733,"x_min":25,"x_max":720,"o":"m 25 0 l 302 666 l 267 760 q 240 827 251 804 q 215 862 230 849 q 187 878 201 876 q 145 881 173 881 q 104 875 125 881 l 104 975 q 167 982 140 982 q 239 975 211 982 q 292 945 268 967 q 335 886 317 922 q 375 788 353 850 l 592 170 q 626 111 607 127 q 678 96 644 96 q 714 101 696 96 l 720 1 q 659 -5 691 -5 q 552 25 589 -5 q 485 144 515 56 l 353 526 l 351 526 l 146 0 l 25 0 z "},"ν":{"ha":706,"x_min":32,"x_max":644,"o":"m 273 0 l 32 705 l 156 705 l 348 98 l 351 98 q 491 350 447 232 q 534 595 534 467 q 528 705 534 646 l 639 705 q 644 595 644 657 q 591 306 644 441 q 408 0 537 170 l 273 0 z "},"ξ":{"ha":607,"x_min":42,"x_max":591,"o":"m 541 -235 l 443 -215 q 477 -96 477 -155 q 445 -26 477 -54 q 321 29 414 1 q 104 141 166 78 q 42 293 42 204 q 93 432 42 375 q 241 509 144 488 l 241 510 q 122 582 160 538 q 83 697 83 626 q 123 808 83 764 q 237 872 163 852 l 237 874 l 86 874 l 86 978 l 573 978 l 573 886 l 505 878 q 269 818 344 861 q 195 696 195 776 q 253 600 195 629 q 435 570 311 570 l 526 570 l 526 467 l 433 467 q 231 429 299 467 q 162 309 162 391 q 209 209 162 249 q 376 130 256 170 q 543 44 495 92 q 591 -79 591 -3 q 541 -235 591 -155 z "},"ο":{"ha":731,"x_min":42,"x_max":689,"o":"m 601 87 q 557 38 601 87 q 366 -12 513 -12 q 130 87 218 -12 q 42 353 42 187 q 129 619 42 521 q 366 718 216 718 q 602 619 515 718 q 689 353 689 521 q 601 87 689 187 m 216 160 q 242 126 216 160 q 366 92 269 92 q 515 160 463 92 q 568 353 568 228 q 514 544 568 475 q 366 614 460 614 q 216 544 270 614 q 163 353 163 475 q 216 160 163 228 z "},"π":{"ha":878,"x_min":43,"x_max":822,"o":"m 181 0 l 181 605 l 43 605 l 43 705 l 822 705 l 822 605 l 681 605 l 681 176 q 696 115 681 134 q 743 96 711 96 q 783 101 768 96 l 783 3 q 722 -5 760 -5 q 604 34 641 -5 q 568 164 568 74 l 568 605 l 294 605 l 294 0 l 181 0 z "},"ρ":{"ha":756,"x_min":70,"x_max":714,"o":"m 388 92 q 538 162 483 92 q 593 354 593 233 q 538 545 593 477 q 388 614 484 614 q 240 545 294 614 q 187 355 187 476 q 246 160 187 228 q 388 92 304 92 m 70 -235 l 70 349 q 156 617 70 517 q 388 718 242 718 q 624 618 534 718 q 714 356 714 519 q 632 88 714 188 q 411 -12 550 -12 q 278 20 337 -12 q 191 108 220 52 l 188 108 l 188 -235 l 70 -235 z "},"ς":{"ha":684,"x_min":42,"x_max":652,"o":"m 544 43 q 567 20 544 43 q 591 -79 591 -4 q 541 -235 591 -155 l 443 -215 q 477 -98 477 -153 q 448 -28 477 -54 q 331 26 419 -2 q 107 154 172 76 q 42 372 42 233 q 127 623 42 529 q 355 718 212 718 q 558 655 484 718 q 652 475 633 593 l 535 475 q 476 578 520 542 q 361 614 431 614 q 215 549 267 614 q 163 373 163 484 q 209 222 163 274 q 376 130 254 170 q 544 43 498 91 z "},"σ":{"ha":825,"x_min":42,"x_max":782,"o":"m 595 86 q 552 37 595 86 q 363 -12 508 -12 q 131 86 219 -12 q 42 345 42 184 q 137 607 42 509 q 393 705 233 705 l 782 705 l 782 605 l 571 605 l 571 602 q 652 497 622 566 q 682 347 682 427 q 595 86 682 185 m 363 92 q 513 160 458 92 q 568 346 568 228 q 516 532 568 464 q 375 601 465 601 q 220 531 278 601 q 163 345 163 461 q 217 160 163 228 q 363 92 271 92 z "},"τ":{"ha":666,"x_min":39,"x_max":610,"o":"m 437 -5 q 295 39 336 -5 q 255 189 255 84 l 255 605 l 39 605 l 39 705 l 610 705 l 610 605 l 373 605 l 373 192 q 393 120 373 143 q 463 96 414 96 q 513 100 496 96 l 513 3 q 437 -5 483 -5 z "},"υ":{"ha":707,"x_min":73,"x_max":652,"o":"m 350 -12 q 145 64 217 -12 q 73 279 73 140 l 73 705 l 191 705 l 191 285 q 349 94 191 94 q 486 163 440 94 q 532 361 532 232 q 518 549 532 479 q 465 705 505 618 l 585 705 q 633 558 614 646 q 652 378 652 469 q 573 89 652 191 q 350 -12 495 -12 z "},"φ":{"ha":942,"x_min":39,"x_max":903,"o":"m 415 -235 l 415 -10 q 141 97 243 -2 q 39 353 39 196 q 139 612 39 512 q 415 715 240 711 l 415 876 l 527 876 l 527 715 q 802 612 701 711 q 903 353 903 512 q 801 97 903 196 q 527 -10 699 -2 l 527 -235 l 415 -235 m 527 88 q 716 169 647 98 q 785 353 785 241 q 718 539 785 467 q 527 617 650 612 l 527 88 m 415 88 l 415 617 q 224 540 292 612 q 157 353 157 468 q 226 169 157 241 q 415 88 295 98 z "},"χ":{"ha":748,"x_min":36,"x_max":728,"o":"m 60 -235 l 323 235 l 176 532 q 133 591 154 576 q 74 606 112 606 q 36 600 54 606 l 36 700 q 100 707 71 707 q 200 680 164 707 q 275 576 236 654 l 393 336 l 395 336 l 587 705 l 711 705 l 446 229 l 589 -58 q 632 -120 613 -105 q 686 -136 652 -136 q 722 -130 707 -136 l 728 -230 q 671 -237 703 -237 q 568 -214 602 -237 q 498 -117 534 -191 l 376 127 l 374 127 l 184 -235 l 60 -235 z "},"ψ":{"ha":923,"x_min":73,"x_max":868,"o":"m 402 -235 l 402 -11 q 160 68 247 -9 q 73 280 73 145 l 73 705 l 191 705 l 191 295 q 245 147 191 199 q 402 95 299 96 l 402 876 l 515 876 l 515 95 q 687 164 627 97 q 748 361 748 232 q 734 548 748 478 q 682 705 721 618 l 802 705 q 849 559 831 646 q 868 380 868 472 q 774 94 868 197 q 515 -11 681 -10 l 515 -235 l 402 -235 z "},"ω":{"ha":1000,"x_min":55,"x_max":945,"o":"m 701 -12 q 502 148 559 -12 l 498 148 q 299 -12 440 -12 q 118 77 181 -12 q 55 331 55 165 q 83 532 55 428 q 157 705 112 635 l 284 705 q 175 332 175 532 q 208 152 175 211 q 310 94 241 94 q 406 145 370 94 q 441 281 441 197 l 441 503 l 557 503 l 557 281 q 594 145 557 197 q 690 94 630 94 q 791 152 758 94 q 825 332 825 211 q 715 705 825 532 l 842 705 q 916 532 888 635 q 945 331 945 429 q 882 77 945 165 q 701 -12 819 -12 z "},"ϊ":{"ha":365,"x_min":-47,"x_max":354,"o":"m 78 705 l 196 705 l 196 189 q 217 118 196 141 q 283 96 238 96 q 332 99 312 96 l 332 3 q 258 -5 303 -5 q 119 38 161 -5 q 78 183 78 81 l 78 705 m 80 838 q 69 827 80 838 q 27 816 58 816 q -25 838 -3 816 q -47 890 -47 859 q -25 943 -47 922 q 27 965 -3 965 q 80 943 58 965 q 102 890 102 922 q 80 838 102 859 m 332 838 q 321 827 332 838 q 279 816 310 816 q 227 838 249 816 q 205 890 205 859 q 227 943 205 922 q 279 965 249 965 q 332 943 310 965 q 354 890 354 922 q 332 838 354 859 z "},"ϋ":{"ha":707,"x_min":73,"x_max":652,"o":"m 350 -12 q 145 64 217 -12 q 73 279 73 140 l 73 705 l 191 705 l 191 285 q 349 94 191 94 q 486 163 440 94 q 532 361 532 232 q 518 549 532 479 q 465 705 505 618 l 585 705 q 633 558 614 646 q 652 378 652 469 q 573 89 652 191 q 350 -12 495 -12 m 287 838 q 276 827 287 838 q 235 816 265 816 q 182 838 204 816 q 160 890 160 859 q 182 943 160 922 q 235 965 204 965 q 287 943 265 965 q 309 890 309 922 q 287 838 309 859 m 539 838 q 528 827 539 838 q 487 816 517 816 q 434 838 456 816 q 412 890 412 859 q 434 943 412 922 q 487 965 456 965 q 539 943 517 965 q 562 890 562 922 q 539 838 562 859 z "},"ό":{"ha":731,"x_min":42,"x_max":689,"o":"m 601 87 q 557 38 601 87 q 366 -12 513 -12 q 130 87 218 -12 q 42 353 42 187 q 129 619 42 521 q 366 718 216 718 q 602 619 515 718 q 689 353 689 521 q 601 87 689 187 m 216 160 q 242 126 216 160 q 366 92 269 92 q 515 160 463 92 q 568 353 568 228 q 514 544 568 475 q 366 614 460 614 q 216 544 270 614 q 163 353 163 475 q 216 160 163 228 m 321 807 l 372 1010 l 520 1010 l 418 807 l 321 807 z "},"ύ":{"ha":707,"x_min":73,"x_max":652,"o":"m 350 -12 q 145 64 217 -12 q 73 279 73 140 l 73 705 l 191 705 l 191 285 q 349 94 191 94 q 486 163 440 94 q 532 361 532 232 q 518 549 532 479 q 465 705 505 618 l 585 705 q 633 558 614 646 q 652 378 652 469 q 573 89 652 191 q 350 -12 495 -12 m 288 807 l 339 1010 l 487 1010 l 385 807 l 288 807 z "},"ώ":{"ha":1000,"x_min":55,"x_max":945,"o":"m 701 -12 q 502 148 559 -12 l 498 148 q 299 -12 440 -12 q 118 77 181 -12 q 55 331 55 165 q 83 532 55 428 q 157 705 112 635 l 284 705 q 175 332 175 532 q 208 152 175 211 q 310 94 241 94 q 406 145 370 94 q 441 281 441 197 l 441 503 l 557 503 l 557 281 q 594 145 557 197 q 690 94 630 94 q 791 152 758 94 q 825 332 825 211 q 715 705 825 532 l 842 705 q 916 532 888 635 q 945 331 945 429 q 882 77 945 165 q 701 -12 819 -12 m 453 807 l 504 1010 l 652 1010 l 550 807 l 453 807 z "},"Ѐ":{"ha":781,"x_min":102,"x_max":708,"o":"m 708 110 l 708 0 l 102 0 l 102 979 l 708 979 l 708 869 l 224 869 l 224 555 l 683 555 l 683 446 l 224 446 l 224 110 l 708 110 m 344 1058 l 168 1254 l 299 1254 l 448 1058 l 344 1058 z "},"Ё":{"ha":781,"x_min":102,"x_max":708,"o":"m 708 110 l 708 0 l 102 0 l 102 979 l 708 979 l 708 869 l 224 869 l 224 555 l 683 555 l 683 446 l 224 446 l 224 110 l 708 110 m 331 1109 q 320 1099 331 1109 q 279 1088 309 1088 q 226 1109 248 1088 q 204 1162 204 1131 q 226 1215 204 1194 q 279 1237 248 1237 q 331 1215 309 1237 q 353 1162 353 1194 q 331 1109 353 1131 m 584 1109 q 573 1099 584 1109 q 531 1088 562 1088 q 478 1109 500 1088 q 456 1162 456 1131 q 478 1215 456 1194 q 531 1237 500 1237 q 584 1215 562 1237 q 606 1162 606 1194 q 584 1109 606 1131 z "},"Ђ":{"ha":1137,"x_min":41,"x_max":1056,"o":"m 756 -11 q 668 1 697 -11 l 668 111 q 755 100 698 100 q 886 153 838 100 q 934 298 934 205 q 877 449 934 392 q 724 505 819 505 q 576 465 646 505 q 478 363 506 424 l 478 0 l 356 0 l 356 869 l 41 869 l 41 979 l 793 979 l 793 869 l 478 869 l 478 516 l 484 516 q 592 590 528 564 q 732 615 656 615 q 967 528 878 615 q 1056 300 1056 441 q 974 74 1056 159 q 756 -11 892 -11 z "},"Ѓ":{"ha":726,"x_min":102,"x_max":682,"o":"m 224 0 l 102 0 l 102 979 l 682 979 l 682 867 l 224 867 l 224 0 m 456 1058 l 352 1058 l 501 1254 l 633 1254 l 456 1058 z "},"Є":{"ha":964,"x_min":64,"x_max":908,"o":"m 908 273 q 768 58 872 133 q 505 -16 663 -16 q 183 120 302 -16 q 64 490 64 257 q 184 858 64 720 q 505 995 304 995 q 771 910 661 995 q 908 684 881 825 l 783 684 q 681 828 757 774 q 505 882 605 882 q 289 793 374 882 q 193 555 203 705 l 627 555 l 627 446 l 191 446 q 283 191 197 286 q 505 96 369 96 q 682 142 609 96 q 783 273 754 189 l 908 273 z "}}}
